G04*
G04 #@! TF.GenerationSoftware,Altium Limited,Altium Designer,18.0.12 (696)*
G04*
G04 Layer_Physical_Order=2*
G04 Layer_Color=16711680*
%FSLAX44Y44*%
%MOMM*%
G71*
G01*
G75*
%ADD15R,1.1684X1.6002*%
%ADD59C,1.7000*%
%ADD67C,0.3048*%
%ADD68C,0.4064*%
%ADD69C,0.2794*%
%ADD70C,0.6096*%
%ADD71C,0.8128*%
%ADD72C,0.3050*%
%ADD75C,3.0000*%
%ADD76C,3.3000*%
%ADD77C,1.5000*%
%ADD78O,1.6000X2.0000*%
%ADD79R,1.6000X2.0000*%
%ADD80P,4.3296X8X22.5*%
%ADD81P,4.3296X8X292.5*%
%ADD82C,2.0320*%
%ADD83C,1.0160*%
%ADD84C,0.5080*%
G36*
X654177Y516819D02*
Y402844D01*
X654586Y401856D01*
X679450Y376992D01*
Y364684D01*
X679014Y364348D01*
X675761Y365047D01*
X675439Y365649D01*
X673189Y368390D01*
X670449Y370639D01*
X667322Y372310D01*
X663929Y373340D01*
X660400Y373687D01*
X656871Y373340D01*
X653478Y372310D01*
X650351Y370639D01*
X647610Y368390D01*
X645361Y365649D01*
X643690Y362522D01*
X642661Y359129D01*
X642313Y355600D01*
X642661Y352071D01*
X643690Y348678D01*
X645361Y345551D01*
X647610Y342811D01*
X650351Y340561D01*
X653478Y338890D01*
X656871Y337860D01*
X660400Y337513D01*
X663929Y337860D01*
X667322Y338890D01*
X670449Y340561D01*
X673189Y342811D01*
X675439Y345551D01*
X675761Y346153D01*
X679014Y346852D01*
X679450Y346516D01*
Y85284D01*
X679014Y84948D01*
X675761Y85646D01*
X675439Y86249D01*
X673189Y88989D01*
X670449Y91239D01*
X667322Y92910D01*
X663929Y93940D01*
X660400Y94287D01*
X656871Y93940D01*
X653478Y92910D01*
X650351Y91239D01*
X647610Y88989D01*
X645361Y86249D01*
X643690Y83122D01*
X642661Y79729D01*
X642313Y76200D01*
X642661Y72671D01*
X643690Y69278D01*
X645361Y66151D01*
X647610Y63411D01*
X650351Y61161D01*
X653478Y59490D01*
X656871Y58460D01*
X660400Y58113D01*
X663929Y58460D01*
X667322Y59490D01*
X670449Y61161D01*
X673189Y63411D01*
X675439Y66151D01*
X675761Y66754D01*
X679014Y67452D01*
X679450Y67116D01*
Y52268D01*
X654332Y27150D01*
X653923Y26162D01*
Y6350D01*
X148784D01*
X148448Y6786D01*
X149146Y10039D01*
X149749Y10361D01*
X152490Y12610D01*
X154739Y15351D01*
X156410Y18478D01*
X157439Y21871D01*
X157787Y25400D01*
X157439Y28929D01*
X156410Y32322D01*
X154739Y35449D01*
X152490Y38189D01*
X149749Y40439D01*
X146622Y42110D01*
X143229Y43140D01*
X139700Y43487D01*
X136171Y43140D01*
X132778Y42110D01*
X129651Y40439D01*
X126910Y38189D01*
X124661Y35449D01*
X122990Y32322D01*
X121960Y28929D01*
X121613Y25400D01*
X121960Y21871D01*
X122990Y18478D01*
X124661Y15351D01*
X126910Y12610D01*
X129651Y10361D01*
X130253Y10039D01*
X130952Y6786D01*
X130616Y6350D01*
X6350D01*
Y123237D01*
X6834Y123753D01*
X8890Y124961D01*
X92710D01*
X93490Y125116D01*
X94152Y125558D01*
X94152Y125558D01*
X122800Y154206D01*
X162012Y114994D01*
X162012Y114992D01*
X162726Y113270D01*
X163860Y111791D01*
X165340Y110656D01*
X167062Y109942D01*
X167064Y109942D01*
X231378Y45628D01*
X233384Y44288D01*
X235750Y43817D01*
X298617D01*
Y35261D01*
X297668Y34532D01*
X296065Y32443D01*
X295057Y30010D01*
X294714Y27400D01*
Y23400D01*
X295057Y20789D01*
X296065Y18357D01*
X297668Y16268D01*
X299757Y14665D01*
X302190Y13657D01*
X304800Y13314D01*
X307411Y13657D01*
X309843Y14665D01*
X311932Y16268D01*
X313535Y18357D01*
X314543Y20789D01*
X314886Y23400D01*
Y27400D01*
X314543Y30010D01*
X313535Y32443D01*
X311932Y34532D01*
X310983Y35261D01*
Y43817D01*
X369939D01*
X374817Y38939D01*
Y35261D01*
X373868Y34532D01*
X372265Y32443D01*
X371257Y30010D01*
X370914Y27400D01*
Y23400D01*
X371257Y20789D01*
X372265Y18357D01*
X373868Y16268D01*
X375957Y14665D01*
X378390Y13657D01*
X381000Y13314D01*
X383610Y13657D01*
X386043Y14665D01*
X388132Y16268D01*
X389735Y18357D01*
X390743Y20789D01*
X391086Y23400D01*
Y27400D01*
X390743Y30010D01*
X389735Y32443D01*
X388132Y34532D01*
X387183Y35261D01*
Y41500D01*
X386712Y43866D01*
X385372Y45872D01*
X376872Y54372D01*
X374866Y55712D01*
X372500Y56183D01*
X238311D01*
X175808Y118686D01*
X175808Y118688D01*
X175094Y120410D01*
X173960Y121889D01*
X172481Y123024D01*
X170758Y123738D01*
X170756Y123738D01*
X129039Y165455D01*
Y194310D01*
X128884Y195090D01*
X128442Y195752D01*
X118265Y205929D01*
X119170Y208616D01*
X120649Y208817D01*
X136373Y193093D01*
X137707Y192202D01*
X139280Y191889D01*
X209967D01*
X216533Y185323D01*
X216379Y184150D01*
X216622Y182302D01*
X217336Y180579D01*
X218470Y179100D01*
X219949Y177966D01*
X221672Y177252D01*
X223520Y177009D01*
X225368Y177252D01*
X227090Y177966D01*
X228570Y179100D01*
X229704Y180579D01*
X230418Y182302D01*
X230661Y184150D01*
X230418Y185998D01*
X229704Y187721D01*
X228570Y189200D01*
X227090Y190334D01*
X225368Y191048D01*
X223520Y191291D01*
X222347Y191137D01*
X214577Y198907D01*
X213243Y199798D01*
X211670Y200111D01*
X140983D01*
X125732Y215362D01*
X125886Y216535D01*
X125643Y218383D01*
X124929Y220105D01*
X123794Y221584D01*
X123060Y222148D01*
X123957Y223994D01*
X126037Y224184D01*
X140611Y209611D01*
X142280Y208495D01*
X144250Y208103D01*
X168750D01*
X170720Y208495D01*
X172389Y209611D01*
X179593Y216814D01*
X181920Y216583D01*
X183032Y214357D01*
X182332Y212668D01*
X182089Y210820D01*
X182332Y208972D01*
X183046Y207250D01*
X184181Y205770D01*
X185660Y204636D01*
X187382Y203922D01*
X189230Y203679D01*
X191078Y203922D01*
X192801Y204636D01*
X194279Y205770D01*
X195397Y207227D01*
X212384D01*
X221682Y197929D01*
X222848Y197150D01*
X224223Y196877D01*
X242264D01*
X243639Y197150D01*
X244805Y197929D01*
X253594Y206718D01*
X256236Y205769D01*
X256330Y205299D01*
X257221Y203965D01*
X258840Y202346D01*
X258725Y202009D01*
X257118Y199938D01*
X255270Y200181D01*
X253422Y199938D01*
X251700Y199224D01*
X250221Y198090D01*
X249086Y196611D01*
X248372Y194888D01*
X248129Y193040D01*
X248372Y191192D01*
X249086Y189470D01*
X250123Y188117D01*
Y175980D01*
X250515Y174010D01*
X251631Y172341D01*
X276861Y147111D01*
X276861Y147110D01*
X280773Y143198D01*
Y116960D01*
X280647Y116771D01*
X280578Y116427D01*
X280424Y116111D01*
X280384Y115451D01*
X280255Y114802D01*
Y112598D01*
X280647Y110628D01*
X281763Y108959D01*
X288951Y101771D01*
X290620Y100655D01*
X292590Y100263D01*
X306227D01*
X307579Y99226D01*
X309302Y98512D01*
X311150Y98269D01*
X312998Y98512D01*
X314720Y99226D01*
X316199Y100360D01*
X317334Y101840D01*
X318048Y103562D01*
X318291Y105410D01*
X318048Y107258D01*
X317334Y108981D01*
X316199Y110459D01*
X314720Y111594D01*
X312998Y112308D01*
X311150Y112551D01*
X309302Y112308D01*
X307579Y111594D01*
X306227Y110557D01*
X294722D01*
X292769Y112510D01*
X294208Y114663D01*
X295840Y113987D01*
X298450Y113644D01*
X301061Y113987D01*
X303493Y114995D01*
X305582Y116598D01*
X307185Y118687D01*
X308193Y121119D01*
X308536Y123730D01*
Y127730D01*
X308193Y130340D01*
X307185Y132773D01*
X305582Y134862D01*
X303493Y136465D01*
X301061Y137473D01*
X298450Y137816D01*
X295840Y137473D01*
X293407Y136465D01*
X292571Y135824D01*
X290031Y137076D01*
Y143690D01*
X290157Y143878D01*
X290549Y145848D01*
X290157Y147818D01*
X289041Y149487D01*
X284139Y154389D01*
X284139Y154390D01*
X260417Y178112D01*
Y182026D01*
X262957Y183078D01*
X303570Y142465D01*
X304903Y141574D01*
X306476Y141261D01*
X378959D01*
X381366Y138854D01*
X381297Y138436D01*
X381036Y138115D01*
X378480Y136967D01*
X377261Y137473D01*
X374650Y137816D01*
X372039Y137473D01*
X369607Y136465D01*
X367518Y134862D01*
X365915Y132773D01*
X364907Y130340D01*
X364564Y127730D01*
Y123730D01*
X364907Y121119D01*
X365915Y118687D01*
X367518Y116598D01*
X369607Y114995D01*
X372039Y113987D01*
X374650Y113644D01*
X377261Y113987D01*
X379693Y114995D01*
X380699Y115767D01*
X383239Y114514D01*
Y112014D01*
X383552Y110441D01*
X384443Y109107D01*
X391301Y102249D01*
X392635Y101358D01*
X394208Y101045D01*
X438912D01*
X440485Y101358D01*
X441819Y102249D01*
X453626Y114056D01*
X455893Y114995D01*
X457567Y116279D01*
X459098Y115861D01*
X460107Y115195D01*
Y108035D01*
X448639Y96567D01*
X368225D01*
X353361Y111431D01*
Y114609D01*
X354293Y114995D01*
X356382Y116598D01*
X357985Y118687D01*
X358993Y121119D01*
X359336Y123730D01*
Y127730D01*
X358993Y130340D01*
X357985Y132773D01*
X356382Y134862D01*
X354293Y136465D01*
X351861Y137473D01*
X349250Y137816D01*
X346640Y137473D01*
X344207Y136465D01*
X342118Y134862D01*
X340515Y132773D01*
X339507Y130340D01*
X339164Y127730D01*
Y123730D01*
X339507Y121119D01*
X340515Y118687D01*
X342118Y116598D01*
X344207Y114995D01*
X345139Y114609D01*
Y109728D01*
X345452Y108155D01*
X346343Y106821D01*
X363615Y89549D01*
X364837Y88733D01*
X364872Y88543D01*
X364064Y86193D01*
X281703D01*
X281700Y86194D01*
X279978Y86908D01*
X278130Y87151D01*
X276282Y86908D01*
X274559Y86194D01*
X273081Y85059D01*
X271946Y83581D01*
X271232Y81858D01*
X270989Y80010D01*
X271232Y78162D01*
X271946Y76439D01*
X273081Y74960D01*
X274559Y73826D01*
X276282Y73112D01*
X278130Y72869D01*
X279978Y73112D01*
X281700Y73826D01*
X281703Y73827D01*
X480060D01*
X482426Y74298D01*
X484432Y75638D01*
X484446Y75652D01*
X484448Y75652D01*
X486171Y76366D01*
X487649Y77501D01*
X488784Y78980D01*
X489498Y80702D01*
X489741Y82550D01*
X489498Y84398D01*
X488784Y86121D01*
X487649Y87599D01*
X486171Y88734D01*
X484448Y89448D01*
X482600Y89691D01*
X480752Y89448D01*
X479030Y88734D01*
X477551Y87599D01*
X476471Y86193D01*
X452800D01*
X451992Y88543D01*
X452027Y88733D01*
X453249Y89549D01*
X467125Y103425D01*
X468016Y104759D01*
X468329Y106332D01*
Y137455D01*
X472135Y141261D01*
X643773D01*
X645347Y141574D01*
X646680Y142465D01*
X664471Y160256D01*
X665362Y161589D01*
X665675Y163162D01*
Y229468D01*
X665362Y231041D01*
X664471Y232375D01*
X653249Y243597D01*
Y264461D01*
X658243Y269454D01*
X658929Y269170D01*
X661670Y268809D01*
X664411Y269170D01*
X666965Y270228D01*
X669159Y271911D01*
X670842Y274105D01*
X671900Y276659D01*
X672261Y279400D01*
X671900Y282141D01*
X670842Y284695D01*
X669159Y286889D01*
X666965Y288572D01*
X664411Y289630D01*
X661670Y289991D01*
X658929Y289630D01*
X656375Y288572D01*
X654181Y286889D01*
X652498Y284695D01*
X651440Y282141D01*
X651079Y279400D01*
X651440Y276659D01*
X652137Y274977D01*
X646231Y269070D01*
X645340Y267737D01*
X645027Y266164D01*
Y263717D01*
X642487Y262465D01*
X641565Y263172D01*
X639011Y264230D01*
X636270Y264591D01*
X633529Y264230D01*
X631843Y263532D01*
X629609Y264471D01*
X629112Y264944D01*
X628939Y266255D01*
X632345Y269661D01*
X633529Y269170D01*
X636270Y268809D01*
X639011Y269170D01*
X641565Y270228D01*
X643759Y271911D01*
X645442Y274105D01*
X646500Y276659D01*
X646861Y279400D01*
X646500Y282141D01*
X645442Y284695D01*
X643759Y286889D01*
X641565Y288572D01*
X639011Y289630D01*
X636270Y289991D01*
X633529Y289630D01*
X630975Y288572D01*
X628781Y286889D01*
X627098Y284695D01*
X626040Y282141D01*
X625679Y279400D01*
X626040Y276659D01*
X626531Y275475D01*
X624132Y273076D01*
X621785Y274048D01*
Y285971D01*
X631305Y295491D01*
X633529Y294570D01*
X636270Y294209D01*
X639011Y294570D01*
X641565Y295628D01*
X643759Y297311D01*
X645442Y299505D01*
X646500Y302059D01*
X646861Y304800D01*
X646500Y307541D01*
X645442Y310095D01*
X643759Y312289D01*
X641565Y313972D01*
X639011Y315030D01*
X636270Y315391D01*
X633529Y315030D01*
X630975Y313972D01*
X628781Y312289D01*
X627098Y310095D01*
X626040Y307541D01*
X625679Y304800D01*
X626040Y302059D01*
X626100Y301914D01*
X614767Y290581D01*
X613876Y289247D01*
X613563Y287674D01*
Y246297D01*
X613876Y244724D01*
X614767Y243390D01*
X625660Y232497D01*
X626994Y231606D01*
X628567Y231293D01*
X632393D01*
X642889Y220797D01*
Y167719D01*
X626563D01*
X625134Y170259D01*
X625388Y170872D01*
X625631Y172720D01*
X625388Y174568D01*
X624674Y176290D01*
X623540Y177770D01*
X622061Y178904D01*
X620338Y179618D01*
X618490Y179861D01*
X616642Y179618D01*
X614920Y178904D01*
X613441Y177770D01*
X612323Y176313D01*
X600177D01*
X598924Y178853D01*
X599274Y179310D01*
X599988Y181032D01*
X600231Y182880D01*
X599988Y184728D01*
X599274Y186451D01*
X598139Y187929D01*
X596660Y189064D01*
X594938Y189778D01*
X593090Y190021D01*
X591242Y189778D01*
X589520Y189064D01*
X588041Y187929D01*
X586923Y186473D01*
X497858D01*
X495185Y189147D01*
X496607Y191195D01*
X499039Y190187D01*
X501650Y189844D01*
X504260Y190187D01*
X506693Y191195D01*
X508782Y192798D01*
X510385Y194887D01*
X511393Y197320D01*
X511736Y199930D01*
Y203930D01*
X511393Y206541D01*
X510385Y208973D01*
X508782Y211062D01*
X506693Y212665D01*
X505761Y213051D01*
Y229437D01*
X536307Y259983D01*
X537198Y261317D01*
X537511Y262890D01*
Y496879D01*
X538443Y497265D01*
X540532Y498868D01*
X542135Y500957D01*
X543143Y503390D01*
X543486Y506000D01*
Y510000D01*
X543143Y512611D01*
X542135Y515043D01*
X540532Y517132D01*
X538443Y518735D01*
X536011Y519743D01*
X533400Y520086D01*
X530789Y519743D01*
X528357Y518735D01*
X526268Y517132D01*
X524665Y515043D01*
X523657Y512611D01*
X523314Y510000D01*
Y506000D01*
X523657Y503390D01*
X524665Y500957D01*
X526268Y498868D01*
X528357Y497265D01*
X529289Y496879D01*
Y264593D01*
X498743Y234047D01*
X497852Y232713D01*
X497539Y231140D01*
Y213051D01*
X496607Y212665D01*
X494518Y211062D01*
X494448Y210971D01*
X491908Y211833D01*
Y251008D01*
X493364Y252125D01*
X494499Y253605D01*
X495213Y255327D01*
X495456Y257175D01*
X495213Y259023D01*
X494499Y260746D01*
X493364Y262225D01*
X491885Y263359D01*
X490163Y264073D01*
X488315Y264316D01*
X486467Y264073D01*
X484744Y263359D01*
X483265Y262225D01*
X482131Y260746D01*
X481417Y259023D01*
X481174Y257175D01*
X481417Y255327D01*
X482131Y253605D01*
X483265Y252125D01*
X484722Y251008D01*
Y213236D01*
X482182Y211983D01*
X481293Y212665D01*
X478861Y213673D01*
X476250Y214016D01*
X473639Y213673D01*
X471207Y212665D01*
X469633Y211457D01*
X467872Y212006D01*
X467093Y212596D01*
Y247230D01*
X468975Y248969D01*
X470535Y248764D01*
X472383Y249007D01*
X474105Y249721D01*
X475584Y250856D01*
X476719Y252334D01*
X477433Y254057D01*
X477676Y255905D01*
X477433Y257753D01*
X476719Y259475D01*
X475584Y260954D01*
X474105Y262089D01*
X472383Y262803D01*
X470535Y263046D01*
X468687Y262803D01*
X466964Y262089D01*
X465485Y260954D01*
X464351Y259475D01*
X463637Y257753D01*
X463394Y255905D01*
X463633Y254085D01*
X460959Y251411D01*
X460181Y250245D01*
X459907Y248870D01*
Y183750D01*
X460181Y182375D01*
X460959Y181209D01*
X471910Y170259D01*
X471894Y169917D01*
X471100Y167719D01*
X383130D01*
X382239Y168880D01*
X380760Y170014D01*
X379038Y170728D01*
X377190Y170971D01*
X375342Y170728D01*
X373619Y170014D01*
X372141Y168880D01*
X371250Y167719D01*
X307095D01*
X288051Y186763D01*
Y192883D01*
X290591Y193745D01*
X291318Y192798D01*
X293407Y191195D01*
X295840Y190187D01*
X298450Y189844D01*
X301061Y190187D01*
X303493Y191195D01*
X305582Y192798D01*
X307185Y194887D01*
X308193Y197320D01*
X308536Y199930D01*
Y203930D01*
X308193Y206541D01*
X307185Y208973D01*
X305582Y211062D01*
X303493Y212665D01*
X302561Y213051D01*
Y216497D01*
X313703Y227639D01*
X344652D01*
X346225Y227952D01*
X347559Y228843D01*
X427183Y308468D01*
X428075Y309802D01*
X428388Y311375D01*
X428323Y311700D01*
Y318728D01*
X428388Y319053D01*
Y500283D01*
X428075Y501857D01*
X427183Y503190D01*
X426382Y503992D01*
X426646Y506000D01*
Y510000D01*
X426303Y512611D01*
X425295Y515043D01*
X423692Y517132D01*
X421603Y518735D01*
X419170Y519743D01*
X416560Y520086D01*
X413950Y519743D01*
X411517Y518735D01*
X409428Y517132D01*
X407825Y515043D01*
X406817Y512611D01*
X406474Y510000D01*
Y506000D01*
X406817Y503390D01*
X407825Y500957D01*
X408537Y500029D01*
X406623Y498350D01*
X400982Y503992D01*
X401246Y506000D01*
Y510000D01*
X400903Y512611D01*
X399895Y515043D01*
X398292Y517132D01*
X396203Y518735D01*
X393770Y519743D01*
X391160Y520086D01*
X388549Y519743D01*
X386117Y518735D01*
X384028Y517132D01*
X382425Y515043D01*
X381417Y512611D01*
X381074Y510000D01*
Y506000D01*
X381417Y503390D01*
X382425Y500957D01*
X383137Y500029D01*
X381223Y498350D01*
X375582Y503992D01*
X375846Y506000D01*
Y510000D01*
X375503Y512611D01*
X374495Y515043D01*
X372892Y517132D01*
X370803Y518735D01*
X368371Y519743D01*
X365760Y520086D01*
X363149Y519743D01*
X360717Y518735D01*
X358628Y517132D01*
X357025Y515043D01*
X356017Y512611D01*
X355674Y510000D01*
Y506000D01*
X356017Y503390D01*
X357025Y500957D01*
X357737Y500029D01*
X355824Y498350D01*
X350182Y503992D01*
X350446Y506000D01*
Y510000D01*
X350103Y512611D01*
X349095Y515043D01*
X347492Y517132D01*
X345403Y518735D01*
X342971Y519743D01*
X340360Y520086D01*
X337749Y519743D01*
X335317Y518735D01*
X333228Y517132D01*
X331625Y515043D01*
X330617Y512611D01*
X330274Y510000D01*
Y506000D01*
X330617Y503390D01*
X331625Y500957D01*
X332337Y500029D01*
X330424Y498350D01*
X324782Y503992D01*
X325046Y506000D01*
Y510000D01*
X324703Y512611D01*
X323695Y515043D01*
X322092Y517132D01*
X320003Y518735D01*
X317570Y519743D01*
X314960Y520086D01*
X312349Y519743D01*
X309917Y518735D01*
X307828Y517132D01*
X306225Y515043D01*
X305217Y512611D01*
X304874Y510000D01*
Y506000D01*
X305217Y503390D01*
X306225Y500957D01*
X306937Y500029D01*
X305023Y498350D01*
X299382Y503992D01*
X299646Y506000D01*
Y510000D01*
X299303Y512611D01*
X298295Y515043D01*
X296692Y517132D01*
X294603Y518735D01*
X292171Y519743D01*
X289560Y520086D01*
X286950Y519743D01*
X284517Y518735D01*
X282428Y517132D01*
X280825Y515043D01*
X279817Y512611D01*
X279474Y510000D01*
Y506000D01*
X279817Y503390D01*
X280825Y500957D01*
X282428Y498868D01*
X284517Y497265D01*
X286950Y496257D01*
X289560Y495914D01*
X292171Y496257D01*
X294517Y497229D01*
X309153Y482593D01*
X310487Y481702D01*
X312060Y481389D01*
X324889D01*
X325033Y481174D01*
X323675Y478634D01*
X260282D01*
X259562Y479573D01*
X258083Y480708D01*
X256361Y481421D01*
X254512Y481664D01*
X252664Y481421D01*
X250942Y480708D01*
X249887Y479898D01*
X249463Y479573D01*
X246525Y479916D01*
X223088Y503354D01*
X223103Y503390D01*
X223446Y506000D01*
Y510000D01*
X223103Y512611D01*
X222095Y515043D01*
X220492Y517132D01*
X218403Y518735D01*
X215970Y519743D01*
X213360Y520086D01*
X210749Y519743D01*
X208317Y518735D01*
X206228Y517132D01*
X204625Y515043D01*
X203617Y512611D01*
X203274Y510000D01*
Y506000D01*
X203617Y503390D01*
X204608Y500998D01*
X204624Y500953D01*
X204221Y498785D01*
X203619Y498095D01*
X202872Y498170D01*
X197688Y503354D01*
X197703Y503390D01*
X198046Y506000D01*
Y510000D01*
X197703Y512611D01*
X196695Y515043D01*
X195092Y517132D01*
X193003Y518735D01*
X190571Y519743D01*
X187960Y520086D01*
X185350Y519743D01*
X182917Y518735D01*
X180828Y517132D01*
X179225Y515043D01*
X178217Y512611D01*
X177874Y510000D01*
Y506000D01*
X178217Y503390D01*
X179225Y500957D01*
X180828Y498868D01*
X182917Y497265D01*
X185350Y496257D01*
X187960Y495914D01*
X190571Y496257D01*
X193003Y497265D01*
X193349Y497530D01*
X197427Y493452D01*
X196455Y491105D01*
X177689D01*
X176314Y490832D01*
X175148Y490053D01*
X167907Y482812D01*
X167761Y482708D01*
X165126Y482482D01*
X164839Y482568D01*
X162775Y484152D01*
X160221Y485210D01*
X157480Y485571D01*
X154739Y485210D01*
X152185Y484152D01*
X149991Y482469D01*
X148673Y480751D01*
X146805Y480274D01*
X145558Y480273D01*
X136041Y489791D01*
X134875Y490569D01*
X133500Y490843D01*
X99539D01*
X98164Y490569D01*
X96999Y489791D01*
X90720Y483512D01*
X88900Y483752D01*
X87052Y483508D01*
X85330Y482795D01*
X83850Y481660D01*
X82716Y480181D01*
X82002Y478459D01*
X81759Y476611D01*
X82002Y474762D01*
X82716Y473040D01*
X83850Y471561D01*
X85330Y470426D01*
X87052Y469713D01*
X88900Y469470D01*
X90748Y469713D01*
X92471Y470426D01*
X93949Y471561D01*
X95084Y473040D01*
X95798Y474762D01*
X96041Y476611D01*
X95801Y478431D01*
X101028Y483657D01*
X132012D01*
X141355Y474314D01*
Y469789D01*
X141629Y468414D01*
X142407Y467248D01*
X149748Y459907D01*
X150914Y459128D01*
X152289Y458855D01*
X164698D01*
X166073Y459128D01*
X167239Y459907D01*
X172889Y465557D01*
X173254Y466104D01*
X173631Y466349D01*
X175439Y466784D01*
X176275Y466813D01*
X177585Y465808D01*
X180139Y464750D01*
X182880Y464389D01*
X185621Y464750D01*
X188175Y465808D01*
X190369Y467491D01*
X192052Y469685D01*
X193110Y472239D01*
X193471Y474980D01*
X193110Y477721D01*
X192052Y480275D01*
X191205Y481379D01*
X192458Y483919D01*
X198703D01*
X199955Y481379D01*
X199108Y480275D01*
X198050Y477721D01*
X197689Y474980D01*
X198050Y472239D01*
X198809Y470407D01*
X193131Y464729D01*
X192380Y463605D01*
X192117Y462280D01*
Y458769D01*
X192054Y458709D01*
X189576Y457677D01*
X188175Y458752D01*
X185621Y459810D01*
X182880Y460171D01*
X180139Y459810D01*
X177585Y458752D01*
X175391Y457069D01*
X173708Y454875D01*
X172650Y452321D01*
X172289Y449580D01*
X172650Y446839D01*
X173708Y444285D01*
X175391Y442091D01*
X177585Y440408D01*
X180139Y439350D01*
X182880Y438989D01*
X185621Y439350D01*
X188175Y440408D01*
X189791Y441648D01*
X190676Y441649D01*
X191933Y441419D01*
X192777Y441057D01*
X193131Y440527D01*
X198973Y434685D01*
X199816Y434122D01*
X200215Y433118D01*
X200483Y431267D01*
X199108Y429475D01*
X198050Y426921D01*
X197689Y424180D01*
X198050Y421439D01*
X199108Y418885D01*
X200791Y416691D01*
X202985Y415008D01*
X205539Y413950D01*
X208280Y413589D01*
X211021Y413950D01*
X213575Y415008D01*
X215769Y416691D01*
X217452Y418885D01*
X218510Y421439D01*
X218533Y421612D01*
X221073Y421445D01*
Y417201D01*
X220965Y417156D01*
X219487Y416021D01*
X218352Y414543D01*
X217638Y412820D01*
X217395Y410972D01*
X217638Y409124D01*
X218352Y407402D01*
X219487Y405923D01*
X220965Y404788D01*
X222688Y404074D01*
X224536Y403831D01*
X226384Y404074D01*
X228106Y404788D01*
X229585Y405923D01*
X230720Y407402D01*
X231434Y409124D01*
X231558Y410071D01*
X233835Y411071D01*
X234137Y411085D01*
X240866Y404355D01*
X230361Y393849D01*
X229245Y392180D01*
X228853Y390210D01*
Y291780D01*
X229245Y289810D01*
X230361Y288141D01*
X241800Y276701D01*
X242022Y275012D01*
X242736Y273290D01*
X242853Y273136D01*
Y217632D01*
X237868Y212647D01*
X235793D01*
X233824Y212255D01*
X233724Y212189D01*
X229077D01*
X215376Y225889D01*
X213706Y227005D01*
X211737Y227397D01*
X177750D01*
X175780Y227005D01*
X174111Y225889D01*
X166618Y218397D01*
X146382D01*
X130889Y233889D01*
X129220Y235005D01*
X127250Y235397D01*
X109989D01*
Y295750D01*
X120809Y306570D01*
X122498Y306792D01*
X124221Y307506D01*
X125700Y308640D01*
X126834Y310119D01*
X127548Y311842D01*
X127791Y313690D01*
X127548Y315538D01*
X126834Y317260D01*
X125700Y318739D01*
X124221Y319874D01*
X122498Y320588D01*
X120650Y320831D01*
X118802Y320588D01*
X117079Y319874D01*
X116840Y319691D01*
X114300Y320943D01*
Y396399D01*
X114522D01*
Y416401D01*
X114300D01*
Y463550D01*
X6350D01*
Y527050D01*
X143316D01*
X143652Y526614D01*
X142954Y523361D01*
X142351Y523039D01*
X139611Y520789D01*
X137361Y518049D01*
X135690Y514922D01*
X134661Y511529D01*
X134313Y508000D01*
X134661Y504471D01*
X135690Y501078D01*
X137361Y497951D01*
X139611Y495210D01*
X142351Y492961D01*
X145478Y491290D01*
X148871Y490261D01*
X152400Y489913D01*
X155929Y490261D01*
X159322Y491290D01*
X162449Y492961D01*
X165189Y495210D01*
X167439Y497951D01*
X169110Y501078D01*
X170140Y504471D01*
X170487Y508000D01*
X170140Y511529D01*
X169110Y514922D01*
X167439Y518049D01*
X165189Y520789D01*
X162449Y523039D01*
X161847Y523361D01*
X161148Y526614D01*
X161484Y527050D01*
X643946D01*
X654177Y516819D01*
D02*
G37*
G36*
X386117Y497265D02*
X388549Y496257D01*
X391160Y495914D01*
X393770Y496257D01*
X396117Y497229D01*
X408298Y485048D01*
Y474868D01*
X405758Y473816D01*
X383510Y496063D01*
X385189Y497977D01*
X386117Y497265D01*
D02*
G37*
G36*
X335317D02*
X337749Y496257D01*
X340360Y495914D01*
X342971Y496257D01*
X345317Y497229D01*
X381969Y460577D01*
Y450397D01*
X379429Y449345D01*
X332710Y496063D01*
X334389Y497977D01*
X335317Y497265D01*
D02*
G37*
G36*
X361649Y438225D02*
Y432209D01*
X359109Y431438D01*
X359041Y431541D01*
X325541Y465041D01*
X324375Y465820D01*
X323000Y466093D01*
X259156D01*
X258640Y467173D01*
X258466Y468633D01*
X259562Y469474D01*
X260282Y470412D01*
X329462D01*
X361649Y438225D01*
D02*
G37*
G36*
X255201Y420466D02*
Y414463D01*
X252661Y413040D01*
X252038Y413298D01*
X250190Y413541D01*
X248342Y413298D01*
X247026Y412753D01*
X237897Y421882D01*
Y434178D01*
X240437Y435230D01*
X255201Y420466D01*
D02*
G37*
G36*
X233919Y460530D02*
X250487Y443961D01*
X251653Y443182D01*
X253028Y442909D01*
X300010D01*
X328907Y414012D01*
Y353738D01*
X306989Y331821D01*
X306210Y330655D01*
X305937Y329280D01*
Y312542D01*
X299719Y306325D01*
X298941Y305159D01*
X298667Y303784D01*
Y299537D01*
X297211Y298419D01*
X296076Y296940D01*
X295362Y295218D01*
X295119Y293370D01*
X295362Y291522D01*
X296076Y289799D01*
X297211Y288321D01*
X298689Y287186D01*
X300412Y286472D01*
X302260Y286229D01*
X304108Y286472D01*
X305830Y287186D01*
X307309Y288321D01*
X308444Y289799D01*
X309158Y291522D01*
X309401Y293370D01*
X309158Y295218D01*
X308444Y296940D01*
X307309Y298419D01*
X305853Y299537D01*
Y302296D01*
X311644Y308087D01*
X313345Y307790D01*
X314286Y307257D01*
X314362Y306532D01*
X313720Y306040D01*
X312586Y304561D01*
X311872Y302838D01*
X311629Y300990D01*
X311872Y299142D01*
X312586Y297419D01*
X313720Y295940D01*
X315200Y294806D01*
X315812Y294552D01*
X316598Y291746D01*
X279916Y255063D01*
X279400D01*
X277827Y254750D01*
X276493Y253859D01*
X274883Y252249D01*
X272987Y252760D01*
X272343Y253213D01*
Y342762D01*
X294641Y365059D01*
X295420Y366225D01*
X295693Y367600D01*
Y393482D01*
X306790Y404579D01*
X308610Y404339D01*
X310458Y404582D01*
X312181Y405296D01*
X313659Y406431D01*
X314794Y407910D01*
X315508Y409632D01*
X315751Y411480D01*
X315508Y413328D01*
X314794Y415051D01*
X313659Y416530D01*
X312181Y417664D01*
X310458Y418378D01*
X308610Y418621D01*
X306762Y418378D01*
X305040Y417664D01*
X303561Y416530D01*
X302426Y415051D01*
X301712Y413328D01*
X301469Y411480D01*
X301709Y409660D01*
X289559Y397511D01*
X288780Y396345D01*
X288507Y394970D01*
Y369088D01*
X266209Y346791D01*
X265431Y345625D01*
X265157Y344250D01*
Y305913D01*
X262651Y304634D01*
X260928Y305348D01*
X259080Y305591D01*
X257907Y305437D01*
X255571Y307773D01*
Y370150D01*
X256509Y370871D01*
X257644Y372350D01*
X258358Y374072D01*
X258601Y375920D01*
X258358Y377768D01*
X257644Y379491D01*
X256509Y380970D01*
X255030Y382104D01*
X253308Y382818D01*
X251460Y383061D01*
X249612Y382818D01*
X249532Y382785D01*
X247288Y383705D01*
X246840Y384084D01*
X246913Y385871D01*
X261336Y400294D01*
X262115Y401460D01*
X262389Y402836D01*
Y421955D01*
X262115Y423330D01*
X261336Y424496D01*
X229654Y456179D01*
Y459258D01*
X231782Y460918D01*
X233919Y460530D01*
D02*
G37*
G36*
X352907Y427512D02*
Y341478D01*
X330750Y319321D01*
X328930Y319561D01*
X327082Y319318D01*
X325359Y318604D01*
X324903Y318254D01*
X322363Y319507D01*
Y322782D01*
X344291Y344709D01*
X345070Y345875D01*
X345343Y347250D01*
Y419500D01*
X345070Y420875D01*
X344291Y422041D01*
X309771Y456560D01*
X310743Y458907D01*
X321512D01*
X352907Y427512D01*
D02*
G37*
G36*
X411517Y497265D02*
X413950Y496257D01*
X416560Y495914D01*
X417626Y496054D01*
X420166Y494122D01*
Y319313D01*
X420101Y318988D01*
Y313863D01*
X419060Y313062D01*
X416520Y314313D01*
Y486751D01*
X416207Y488324D01*
X415316Y489658D01*
X408910Y496063D01*
X410589Y497977D01*
X411517Y497265D01*
D02*
G37*
G36*
X360717D02*
X363149Y496257D01*
X365760Y495914D01*
X368371Y496257D01*
X370717Y497229D01*
X399980Y467966D01*
Y310044D01*
X372866Y282929D01*
X372073Y283018D01*
X370267Y283923D01*
X370118Y285058D01*
X369483Y286590D01*
X388987Y306093D01*
X389878Y307427D01*
X390191Y309000D01*
Y462280D01*
X389878Y463853D01*
X388987Y465187D01*
X358110Y496063D01*
X359789Y497977D01*
X360717Y497265D01*
D02*
G37*
G36*
X381969Y320313D02*
Y310703D01*
X361374Y290108D01*
X361372Y290108D01*
X359650Y289394D01*
X358171Y288260D01*
X357036Y286780D01*
X356322Y285058D01*
X356079Y283210D01*
X356322Y281362D01*
X357036Y279639D01*
X358171Y278160D01*
X359650Y277026D01*
X361372Y276312D01*
X362507Y276163D01*
X363412Y274357D01*
X363501Y273564D01*
X354397Y264461D01*
X341050D01*
X340330Y265399D01*
X338851Y266534D01*
X337128Y267248D01*
X335280Y267491D01*
X333432Y267248D01*
X331710Y266534D01*
X330230Y265399D01*
X329096Y263920D01*
X328382Y262198D01*
X328139Y260350D01*
X328382Y258502D01*
X328636Y257889D01*
X327207Y255349D01*
X326830D01*
X325698Y255818D01*
X323850Y256061D01*
X322002Y255818D01*
X320280Y255104D01*
X318801Y253969D01*
X317666Y252491D01*
X316952Y250768D01*
X316709Y248920D01*
X316952Y247072D01*
X317666Y245350D01*
X318801Y243871D01*
X320280Y242736D01*
X322002Y242022D01*
X323850Y241779D01*
X325698Y242022D01*
X327421Y242736D01*
X328899Y243871D01*
X330034Y245350D01*
X330748Y247072D01*
X330755Y247127D01*
X350896D01*
X351868Y244780D01*
X342949Y235861D01*
X312000D01*
X310427Y235548D01*
X309093Y234657D01*
X295543Y221107D01*
X294652Y219773D01*
X294339Y218200D01*
Y213051D01*
X293407Y212665D01*
X291318Y211062D01*
X290591Y210115D01*
X288051Y210977D01*
Y229987D01*
X379429Y321365D01*
X381969Y320313D01*
D02*
G37*
G36*
X471207Y191195D02*
X473639Y190187D01*
X476250Y189844D01*
X478861Y190187D01*
X481293Y191195D01*
X482182Y191877D01*
X483991Y191206D01*
X484776Y190666D01*
X484995Y189560D01*
X485774Y188394D01*
X493829Y180339D01*
X494995Y179561D01*
X496370Y179287D01*
X584638D01*
X584908Y178853D01*
X583496Y176313D01*
X476018D01*
X467093Y185238D01*
Y191264D01*
X467872Y191854D01*
X469633Y192403D01*
X471207Y191195D01*
D02*
G37*
G36*
X372382Y158087D02*
X371543Y155547D01*
X310803D01*
X309442Y157213D01*
X310427Y159497D01*
X371168D01*
X372382Y158087D01*
D02*
G37*
G36*
X640808Y157213D02*
X639447Y155547D01*
X419186D01*
X417613Y155234D01*
X416279Y154343D01*
X402000Y140064D01*
X387721Y154343D01*
X386387Y155234D01*
X384814Y155547D01*
X382837D01*
X381998Y158087D01*
X383212Y159497D01*
X639823D01*
X640808Y157213D01*
D02*
G37*
G36*
X464225Y144978D02*
X461311Y142065D01*
X460420Y140731D01*
X460107Y139158D01*
Y136265D01*
X459098Y135599D01*
X457567Y135181D01*
X455893Y136465D01*
X453461Y137473D01*
X450850Y137816D01*
X448240Y137473D01*
X445807Y136465D01*
X443718Y134862D01*
X442115Y132773D01*
X441107Y130340D01*
X440764Y127730D01*
Y123730D01*
X441107Y121119D01*
X442115Y118687D01*
X443718Y116598D01*
X443769Y115826D01*
X437209Y109267D01*
X395911D01*
X392824Y112354D01*
X392987Y113343D01*
X393628Y113868D01*
X395781Y114674D01*
X397439Y113987D01*
X400050Y113644D01*
X402660Y113987D01*
X405093Y114995D01*
X407182Y116598D01*
X408785Y118687D01*
X409793Y121119D01*
X410136Y123730D01*
Y127730D01*
X409793Y130340D01*
X408785Y132773D01*
X407722Y134158D01*
X420889Y147325D01*
X463253D01*
X464225Y144978D01*
D02*
G37*
G36*
X107950Y213360D02*
X127000Y194310D01*
Y161290D01*
X92710Y127000D01*
X8890D01*
Y297180D01*
X107950D01*
Y213360D01*
D02*
G37*
%LPC*%
G36*
X264160Y520086D02*
X261549Y519743D01*
X259117Y518735D01*
X257028Y517132D01*
X255425Y515043D01*
X254417Y512611D01*
X254074Y510000D01*
Y506000D01*
X254417Y503390D01*
X255425Y500957D01*
X257028Y498868D01*
X259117Y497265D01*
X261549Y496257D01*
X264160Y495914D01*
X266770Y496257D01*
X269203Y497265D01*
X271292Y498868D01*
X272895Y500957D01*
X273903Y503390D01*
X274246Y506000D01*
Y510000D01*
X273903Y512611D01*
X272895Y515043D01*
X271292Y517132D01*
X269203Y518735D01*
X266770Y519743D01*
X264160Y520086D01*
D02*
G37*
G36*
X238760D02*
X236150Y519743D01*
X233717Y518735D01*
X231628Y517132D01*
X230025Y515043D01*
X229017Y512611D01*
X228674Y510000D01*
Y506000D01*
X229017Y503390D01*
X230025Y500957D01*
X231628Y498868D01*
X233717Y497265D01*
X236150Y496257D01*
X238760Y495914D01*
X241371Y496257D01*
X243803Y497265D01*
X245892Y498868D01*
X247495Y500957D01*
X248503Y503390D01*
X248846Y506000D01*
Y510000D01*
X248503Y512611D01*
X247495Y515043D01*
X245892Y517132D01*
X243803Y518735D01*
X241371Y519743D01*
X238760Y520086D01*
D02*
G37*
G36*
X635000D02*
X632389Y519743D01*
X629957Y518735D01*
X627868Y517132D01*
X626265Y515043D01*
X625257Y512611D01*
X624914Y510000D01*
Y506000D01*
X625257Y503390D01*
X626265Y500957D01*
X627868Y498868D01*
X629957Y497265D01*
X630889Y496879D01*
Y485573D01*
X619835Y474519D01*
X600202D01*
X598629Y474206D01*
X597295Y473315D01*
X572878Y448898D01*
X570531Y449869D01*
Y458799D01*
X589205Y477473D01*
X601980D01*
X603553Y477786D01*
X604887Y478677D01*
X612507Y486297D01*
X613398Y487631D01*
X613711Y489204D01*
Y496879D01*
X614643Y497265D01*
X616732Y498868D01*
X618335Y500957D01*
X619343Y503390D01*
X619686Y506000D01*
Y510000D01*
X619343Y512611D01*
X618335Y515043D01*
X616732Y517132D01*
X614643Y518735D01*
X612211Y519743D01*
X609600Y520086D01*
X606990Y519743D01*
X604557Y518735D01*
X602468Y517132D01*
X600865Y515043D01*
X599857Y512611D01*
X599514Y510000D01*
Y506000D01*
X599857Y503390D01*
X600865Y500957D01*
X602468Y498868D01*
X604557Y497265D01*
X605489Y496879D01*
Y490907D01*
X600277Y485695D01*
X587502D01*
X585929Y485382D01*
X584595Y484491D01*
X565081Y464977D01*
X562268Y465756D01*
X562128Y466314D01*
X587107Y491293D01*
X587998Y492627D01*
X588311Y494200D01*
Y496879D01*
X589243Y497265D01*
X591332Y498868D01*
X592935Y500957D01*
X593943Y503390D01*
X594286Y506000D01*
Y510000D01*
X593943Y512611D01*
X592935Y515043D01*
X591332Y517132D01*
X589243Y518735D01*
X586810Y519743D01*
X584200Y520086D01*
X581590Y519743D01*
X579157Y518735D01*
X577068Y517132D01*
X575465Y515043D01*
X574457Y512611D01*
X574114Y510000D01*
Y506000D01*
X574457Y503390D01*
X575465Y500957D01*
X577068Y498868D01*
X578487Y497779D01*
X578935Y495461D01*
X578835Y494649D01*
X565182Y480995D01*
X562841Y482247D01*
X562911Y482600D01*
Y496879D01*
X563843Y497265D01*
X565932Y498868D01*
X567535Y500957D01*
X568543Y503390D01*
X568886Y506000D01*
Y510000D01*
X568543Y512611D01*
X567535Y515043D01*
X565932Y517132D01*
X563843Y518735D01*
X561410Y519743D01*
X558800Y520086D01*
X556189Y519743D01*
X553757Y518735D01*
X551668Y517132D01*
X550065Y515043D01*
X549057Y512611D01*
X548714Y510000D01*
Y506000D01*
X549057Y503390D01*
X550065Y500957D01*
X551668Y498868D01*
X553757Y497265D01*
X554689Y496879D01*
Y484303D01*
X544463Y474077D01*
X543572Y472743D01*
X543259Y471170D01*
Y260783D01*
X524143Y241667D01*
X523252Y240333D01*
X522939Y238760D01*
Y213051D01*
X522007Y212665D01*
X519918Y211062D01*
X518315Y208973D01*
X517307Y206541D01*
X516964Y203930D01*
Y199930D01*
X517307Y197320D01*
X518315Y194887D01*
X519918Y192798D01*
X522007Y191195D01*
X524440Y190187D01*
X527050Y189844D01*
X529660Y190187D01*
X532093Y191195D01*
X534182Y192798D01*
X535785Y194887D01*
X536793Y197320D01*
X537136Y199930D01*
Y203930D01*
X536793Y206541D01*
X535785Y208973D01*
X534182Y211062D01*
X532093Y212665D01*
X531161Y213051D01*
Y237057D01*
X550117Y256013D01*
X550796Y255953D01*
X552657Y255163D01*
Y248591D01*
X549543Y245477D01*
X548652Y244143D01*
X548339Y242570D01*
Y213051D01*
X547407Y212665D01*
X545318Y211062D01*
X543715Y208973D01*
X542707Y206541D01*
X542364Y203930D01*
Y199930D01*
X542707Y197320D01*
X543715Y194887D01*
X545318Y192798D01*
X547407Y191195D01*
X549840Y190187D01*
X552450Y189844D01*
X555061Y190187D01*
X557493Y191195D01*
X559582Y192798D01*
X561185Y194887D01*
X562193Y197320D01*
X562536Y199930D01*
Y203930D01*
X562193Y206541D01*
X561185Y208973D01*
X559582Y211062D01*
X557493Y212665D01*
X556561Y213051D01*
Y240867D01*
X559675Y243981D01*
X559769Y244122D01*
X562309Y243351D01*
Y232156D01*
X562622Y230583D01*
X563513Y229249D01*
X573739Y219023D01*
Y213051D01*
X572807Y212665D01*
X570718Y211062D01*
X569115Y208973D01*
X568107Y206541D01*
X567764Y203930D01*
Y199930D01*
X568107Y197320D01*
X569115Y194887D01*
X570718Y192798D01*
X572807Y191195D01*
X575239Y190187D01*
X577850Y189844D01*
X580461Y190187D01*
X582893Y191195D01*
X584982Y192798D01*
X586585Y194887D01*
X587593Y197320D01*
X587936Y199930D01*
Y203930D01*
X587593Y206541D01*
X586585Y208973D01*
X584982Y211062D01*
X582893Y212665D01*
X581961Y213051D01*
Y220726D01*
X581648Y222299D01*
X580757Y223633D01*
X570531Y233859D01*
Y303856D01*
X571469Y304576D01*
X572604Y306056D01*
X573318Y307778D01*
X573561Y309626D01*
X573318Y311474D01*
X572604Y313197D01*
X571469Y314676D01*
X570531Y315396D01*
Y343627D01*
X572878Y344599D01*
X579261Y338215D01*
X580595Y337324D01*
X582168Y337011D01*
X589609D01*
X599311Y327309D01*
X599157Y326136D01*
X599400Y324288D01*
X600114Y322565D01*
X601249Y321087D01*
X602187Y320366D01*
Y314885D01*
X597483Y310181D01*
X593090D01*
X591517Y309868D01*
X590183Y308977D01*
X574689Y293483D01*
X573798Y292149D01*
X573485Y290576D01*
Y237236D01*
X573798Y235663D01*
X574689Y234329D01*
X596231Y212787D01*
X596118Y211062D01*
X594515Y208973D01*
X593507Y206541D01*
X593164Y203930D01*
Y199930D01*
X593507Y197320D01*
X594515Y194887D01*
X596118Y192798D01*
X598207Y191195D01*
X600639Y190187D01*
X603250Y189844D01*
X605860Y190187D01*
X608293Y191195D01*
X610382Y192798D01*
X611985Y194887D01*
X612993Y197320D01*
X613336Y199930D01*
Y203930D01*
X612993Y206541D01*
X611985Y208973D01*
X610382Y211062D01*
X608293Y212665D01*
X607024Y213190D01*
X606157Y214489D01*
X581707Y238939D01*
Y288873D01*
X594793Y301959D01*
X599186D01*
X600759Y302272D01*
X602093Y303163D01*
X609205Y310275D01*
X610096Y311609D01*
X610409Y313182D01*
Y320366D01*
X611348Y321087D01*
X612482Y322565D01*
X613196Y324288D01*
X613439Y326136D01*
X613196Y327984D01*
X612482Y329706D01*
X611348Y331185D01*
X609869Y332320D01*
X608146Y333034D01*
X606298Y333277D01*
X605125Y333123D01*
X594219Y344029D01*
X592885Y344920D01*
X591312Y345233D01*
X583871D01*
X576595Y352509D01*
Y440987D01*
X601905Y466297D01*
X621538D01*
X623111Y466610D01*
X624445Y467501D01*
X637907Y480963D01*
X638798Y482297D01*
X639111Y483870D01*
Y496879D01*
X640043Y497265D01*
X642132Y498868D01*
X643735Y500957D01*
X644743Y503390D01*
X645086Y506000D01*
Y510000D01*
X644743Y512611D01*
X643735Y515043D01*
X642132Y517132D01*
X640043Y518735D01*
X637611Y519743D01*
X635000Y520086D01*
D02*
G37*
G36*
X182880Y434771D02*
X180139Y434410D01*
X177585Y433352D01*
X175391Y431669D01*
X173708Y429475D01*
X172650Y426921D01*
X172289Y424180D01*
X172650Y421439D01*
X173708Y418885D01*
X175391Y416691D01*
X177585Y415008D01*
X180139Y413950D01*
X182880Y413589D01*
X185621Y413950D01*
X188175Y415008D01*
X190369Y416691D01*
X192052Y418885D01*
X193110Y421439D01*
X193471Y424180D01*
X193110Y426921D01*
X192052Y429475D01*
X190369Y431669D01*
X188175Y433352D01*
X185621Y434410D01*
X182880Y434771D01*
D02*
G37*
G36*
X208280Y409371D02*
X205539Y409010D01*
X202985Y407952D01*
X200791Y406269D01*
X199108Y404075D01*
X198050Y401521D01*
X197689Y398780D01*
X198050Y396039D01*
X199108Y393485D01*
X200791Y391291D01*
X202985Y389608D01*
X205539Y388550D01*
X208280Y388189D01*
X211021Y388550D01*
X213575Y389608D01*
X215769Y391291D01*
X217452Y393485D01*
X218510Y396039D01*
X218871Y398780D01*
X218510Y401521D01*
X217452Y404075D01*
X215769Y406269D01*
X213575Y407952D01*
X211021Y409010D01*
X208280Y409371D01*
D02*
G37*
G36*
X182880D02*
X180139Y409010D01*
X177585Y407952D01*
X175391Y406269D01*
X173708Y404075D01*
X172650Y401521D01*
X172289Y398780D01*
X172650Y396039D01*
X173708Y393485D01*
X175391Y391291D01*
X177585Y389608D01*
X180139Y388550D01*
X182880Y388189D01*
X185621Y388550D01*
X188175Y389608D01*
X190369Y391291D01*
X192052Y393485D01*
X193110Y396039D01*
X193471Y398780D01*
X193110Y401521D01*
X192052Y404075D01*
X190369Y406269D01*
X188175Y407952D01*
X185621Y409010D01*
X182880Y409371D01*
D02*
G37*
G36*
X508000Y520086D02*
X505390Y519743D01*
X502957Y518735D01*
X500868Y517132D01*
X499265Y515043D01*
X498257Y512611D01*
X497914Y510000D01*
Y506000D01*
X498257Y503390D01*
X499265Y500957D01*
X500868Y498868D01*
X502957Y497265D01*
X503889Y496879D01*
Y354703D01*
X489251Y340065D01*
X486711Y341117D01*
Y496879D01*
X487643Y497265D01*
X489732Y498868D01*
X491335Y500957D01*
X492343Y503390D01*
X492686Y506000D01*
Y510000D01*
X492343Y512611D01*
X491335Y515043D01*
X489732Y517132D01*
X487643Y518735D01*
X485210Y519743D01*
X482600Y520086D01*
X479990Y519743D01*
X477557Y518735D01*
X475468Y517132D01*
X473865Y515043D01*
X472857Y512611D01*
X472514Y510000D01*
Y506000D01*
X472857Y503390D01*
X473865Y500957D01*
X475468Y498868D01*
X477557Y497265D01*
X478489Y496879D01*
Y339303D01*
X465121Y325935D01*
X462581Y326987D01*
Y497524D01*
X464332Y498868D01*
X465935Y500957D01*
X466943Y503390D01*
X467286Y506000D01*
Y510000D01*
X466943Y512611D01*
X465935Y515043D01*
X464332Y517132D01*
X462243Y518735D01*
X459810Y519743D01*
X457200Y520086D01*
X454590Y519743D01*
X452157Y518735D01*
X450068Y517132D01*
X448465Y515043D01*
X447457Y512611D01*
X447114Y510000D01*
Y506000D01*
X447457Y503390D01*
X448465Y500957D01*
X450068Y498868D01*
X452157Y497265D01*
X454359Y496353D01*
Y325173D01*
X349259Y220073D01*
X344266D01*
X342693Y219760D01*
X341359Y218869D01*
X334311Y211821D01*
X333981Y211326D01*
X331460Y210949D01*
X330982Y211062D01*
X328893Y212665D01*
X326460Y213673D01*
X323850Y214016D01*
X321240Y213673D01*
X318807Y212665D01*
X316718Y211062D01*
X315115Y208973D01*
X314107Y206541D01*
X313764Y203930D01*
Y199930D01*
X314107Y197320D01*
X315115Y194887D01*
X316718Y192798D01*
X318807Y191195D01*
X321240Y190187D01*
X323850Y189844D01*
X326460Y190187D01*
X328893Y191195D01*
X330982Y192798D01*
X332585Y194887D01*
X333593Y197320D01*
X333678Y197969D01*
X334500Y198132D01*
X335833Y199023D01*
X336732Y199922D01*
X339300Y198897D01*
X339507Y197320D01*
X340515Y194887D01*
X342118Y192798D01*
X344207Y191195D01*
X346640Y190187D01*
X349250Y189844D01*
X351861Y190187D01*
X354293Y191195D01*
X356382Y192798D01*
X357985Y194887D01*
X358993Y197320D01*
X359336Y199930D01*
Y203930D01*
X358993Y206541D01*
X358513Y207699D01*
X367999Y217185D01*
X370539Y216133D01*
Y213051D01*
X369607Y212665D01*
X367518Y211062D01*
X365915Y208973D01*
X364907Y206541D01*
X364564Y203930D01*
Y199930D01*
X364907Y197320D01*
X365915Y194887D01*
X367518Y192798D01*
X369607Y191195D01*
X372039Y190187D01*
X374650Y189844D01*
X377261Y190187D01*
X379693Y191195D01*
X381782Y192798D01*
X383385Y194887D01*
X384393Y197320D01*
X384736Y199930D01*
Y203930D01*
X384393Y206541D01*
X383385Y208973D01*
X381782Y211062D01*
X379693Y212665D01*
X378761Y213051D01*
Y217947D01*
X510907Y350093D01*
X511798Y351427D01*
X512111Y353000D01*
Y496879D01*
X513043Y497265D01*
X515132Y498868D01*
X516735Y500957D01*
X517743Y503390D01*
X518086Y506000D01*
Y510000D01*
X517743Y512611D01*
X516735Y515043D01*
X515132Y517132D01*
X513043Y518735D01*
X510611Y519743D01*
X508000Y520086D01*
D02*
G37*
G36*
X661670Y315391D02*
X658929Y315030D01*
X656375Y313972D01*
X654181Y312289D01*
X652498Y310095D01*
X651440Y307541D01*
X651079Y304800D01*
X651440Y302059D01*
X652498Y299505D01*
X654181Y297311D01*
X656375Y295628D01*
X658929Y294570D01*
X661670Y294209D01*
X664411Y294570D01*
X666965Y295628D01*
X669159Y297311D01*
X670842Y299505D01*
X671900Y302059D01*
X672261Y304800D01*
X671900Y307541D01*
X670842Y310095D01*
X669159Y312289D01*
X666965Y313972D01*
X664411Y315030D01*
X661670Y315391D01*
D02*
G37*
G36*
X213630Y273885D02*
X210456Y273467D01*
X207498Y272242D01*
X204957Y270293D01*
X203008Y267752D01*
X201783Y264794D01*
X201365Y261620D01*
X201783Y258446D01*
X203008Y255487D01*
X204957Y252947D01*
X207498Y250998D01*
X210456Y249773D01*
X213630Y249355D01*
X216804Y249773D01*
X219762Y250998D01*
X222303Y252947D01*
X224252Y255487D01*
X225477Y258446D01*
X225895Y261620D01*
X225477Y264794D01*
X224252Y267752D01*
X222303Y270293D01*
X219762Y272242D01*
X216804Y273467D01*
X213630Y273885D01*
D02*
G37*
G36*
X164830D02*
X161656Y273467D01*
X158698Y272242D01*
X156157Y270293D01*
X154208Y267752D01*
X152983Y264794D01*
X152565Y261620D01*
X152983Y258446D01*
X154208Y255487D01*
X156157Y252947D01*
X158698Y250998D01*
X161656Y249773D01*
X164830Y249355D01*
X168004Y249773D01*
X170963Y250998D01*
X173503Y252947D01*
X175452Y255487D01*
X176677Y258446D01*
X177095Y261620D01*
X176677Y264794D01*
X175452Y267752D01*
X173503Y270293D01*
X170963Y272242D01*
X168004Y273467D01*
X164830Y273885D01*
D02*
G37*
G36*
X594360Y255299D02*
X592512Y255056D01*
X590789Y254342D01*
X589310Y253207D01*
X588176Y251728D01*
X587462Y250006D01*
X587219Y248158D01*
X587462Y246310D01*
X588176Y244587D01*
X589310Y243109D01*
X590789Y241974D01*
X592512Y241260D01*
X594360Y241017D01*
X595084Y241112D01*
X619920Y216277D01*
X618947Y213930D01*
X618650D01*
Y189930D01*
X638650D01*
Y213930D01*
X632648D01*
X632448Y214933D01*
X631557Y216267D01*
X601288Y246536D01*
X601501Y248158D01*
X601258Y250006D01*
X600544Y251728D01*
X599409Y253207D01*
X597930Y254342D01*
X596208Y255056D01*
X594360Y255299D01*
D02*
G37*
G36*
X425450Y214016D02*
X422840Y213673D01*
X420407Y212665D01*
X418318Y211062D01*
X416715Y208973D01*
X415707Y206541D01*
X415364Y203930D01*
Y199930D01*
X415707Y197320D01*
X416715Y194887D01*
X418318Y192798D01*
X420407Y191195D01*
X422840Y190187D01*
X425450Y189844D01*
X428060Y190187D01*
X430493Y191195D01*
X432582Y192798D01*
X434185Y194887D01*
X435193Y197320D01*
X435536Y199930D01*
Y203930D01*
X435193Y206541D01*
X434185Y208973D01*
X432582Y211062D01*
X430493Y212665D01*
X428060Y213673D01*
X425450Y214016D01*
D02*
G37*
G36*
X400050D02*
X397439Y213673D01*
X395007Y212665D01*
X392918Y211062D01*
X391315Y208973D01*
X390307Y206541D01*
X389964Y203930D01*
Y199930D01*
X390307Y197320D01*
X391315Y194887D01*
X392918Y192798D01*
X395007Y191195D01*
X397439Y190187D01*
X400050Y189844D01*
X402660Y190187D01*
X405093Y191195D01*
X407182Y192798D01*
X408785Y194887D01*
X409793Y197320D01*
X410136Y199930D01*
Y203930D01*
X409793Y206541D01*
X408785Y208973D01*
X407182Y211062D01*
X405093Y212665D01*
X402660Y213673D01*
X400050Y214016D01*
D02*
G37*
G36*
X628650Y137816D02*
X626040Y137473D01*
X623607Y136465D01*
X621518Y134862D01*
X619915Y132773D01*
X618907Y130340D01*
X618564Y127730D01*
Y123730D01*
X618907Y121119D01*
X619915Y118687D01*
X621518Y116598D01*
X623607Y114995D01*
X626040Y113987D01*
X628650Y113644D01*
X631260Y113987D01*
X633693Y114995D01*
X635782Y116598D01*
X637385Y118687D01*
X638393Y121119D01*
X638736Y123730D01*
Y127730D01*
X638393Y130340D01*
X637385Y132773D01*
X635782Y134862D01*
X633693Y136465D01*
X631260Y137473D01*
X628650Y137816D01*
D02*
G37*
G36*
X603250D02*
X600639Y137473D01*
X598207Y136465D01*
X596118Y134862D01*
X594515Y132773D01*
X593507Y130340D01*
X593164Y127730D01*
Y123730D01*
X593507Y121119D01*
X594515Y118687D01*
X596118Y116598D01*
X598207Y114995D01*
X600639Y113987D01*
X603250Y113644D01*
X605860Y113987D01*
X608293Y114995D01*
X610382Y116598D01*
X611985Y118687D01*
X612993Y121119D01*
X613336Y123730D01*
Y127730D01*
X612993Y130340D01*
X611985Y132773D01*
X610382Y134862D01*
X608293Y136465D01*
X605860Y137473D01*
X603250Y137816D01*
D02*
G37*
G36*
X577850D02*
X575239Y137473D01*
X572807Y136465D01*
X570718Y134862D01*
X569115Y132773D01*
X568107Y130340D01*
X567764Y127730D01*
Y123730D01*
X568107Y121119D01*
X569115Y118687D01*
X570718Y116598D01*
X572807Y114995D01*
X575239Y113987D01*
X577850Y113644D01*
X580461Y113987D01*
X582893Y114995D01*
X584982Y116598D01*
X586585Y118687D01*
X587593Y121119D01*
X587936Y123730D01*
Y127730D01*
X587593Y130340D01*
X586585Y132773D01*
X584982Y134862D01*
X582893Y136465D01*
X580461Y137473D01*
X577850Y137816D01*
D02*
G37*
G36*
X552450D02*
X549840Y137473D01*
X547407Y136465D01*
X545318Y134862D01*
X543715Y132773D01*
X542707Y130340D01*
X542364Y127730D01*
Y123730D01*
X542707Y121119D01*
X543715Y118687D01*
X545318Y116598D01*
X547407Y114995D01*
X549840Y113987D01*
X552450Y113644D01*
X555061Y113987D01*
X557493Y114995D01*
X559582Y116598D01*
X561185Y118687D01*
X562193Y121119D01*
X562536Y123730D01*
Y127730D01*
X562193Y130340D01*
X561185Y132773D01*
X559582Y134862D01*
X557493Y136465D01*
X555061Y137473D01*
X552450Y137816D01*
D02*
G37*
G36*
X527050D02*
X524440Y137473D01*
X522007Y136465D01*
X519918Y134862D01*
X518315Y132773D01*
X517307Y130340D01*
X516964Y127730D01*
Y123730D01*
X517307Y121119D01*
X518315Y118687D01*
X519918Y116598D01*
X522007Y114995D01*
X524440Y113987D01*
X527050Y113644D01*
X529660Y113987D01*
X532093Y114995D01*
X534182Y116598D01*
X535785Y118687D01*
X536793Y121119D01*
X537136Y123730D01*
Y127730D01*
X536793Y130340D01*
X535785Y132773D01*
X534182Y134862D01*
X532093Y136465D01*
X529660Y137473D01*
X527050Y137816D01*
D02*
G37*
G36*
X501650D02*
X499039Y137473D01*
X496607Y136465D01*
X494518Y134862D01*
X492915Y132773D01*
X491907Y130340D01*
X491564Y127730D01*
Y123730D01*
X491907Y121119D01*
X492915Y118687D01*
X494518Y116598D01*
X496607Y114995D01*
X499039Y113987D01*
X501650Y113644D01*
X504260Y113987D01*
X506693Y114995D01*
X508782Y116598D01*
X510385Y118687D01*
X511393Y121119D01*
X511736Y123730D01*
Y127730D01*
X511393Y130340D01*
X510385Y132773D01*
X508782Y134862D01*
X506693Y136465D01*
X504260Y137473D01*
X501650Y137816D01*
D02*
G37*
G36*
X323850D02*
X321240Y137473D01*
X318807Y136465D01*
X316718Y134862D01*
X315115Y132773D01*
X314107Y130340D01*
X313764Y127730D01*
Y123730D01*
X314107Y121119D01*
X315115Y118687D01*
X316718Y116598D01*
X318807Y114995D01*
X321240Y113987D01*
X323850Y113644D01*
X326460Y113987D01*
X328893Y114995D01*
X330982Y116598D01*
X332585Y118687D01*
X333593Y121119D01*
X333936Y123730D01*
Y127730D01*
X333593Y130340D01*
X332585Y132773D01*
X330982Y134862D01*
X328893Y136465D01*
X326460Y137473D01*
X323850Y137816D01*
D02*
G37*
G36*
X128150Y105820D02*
X106150D01*
X103744Y103414D01*
X103650D01*
X99827Y103038D01*
X96152Y101923D01*
X92764Y100112D01*
X89795Y97675D01*
X87358Y94706D01*
X85547Y91318D01*
X84432Y87643D01*
X84056Y83820D01*
X84432Y79997D01*
X85547Y76322D01*
X87358Y72934D01*
X89795Y69965D01*
X92764Y67528D01*
X96152Y65717D01*
X99827Y64602D01*
X103650Y64226D01*
X103744D01*
X106150Y61820D01*
X128150D01*
X130556Y64226D01*
X130650D01*
X134473Y64602D01*
X138148Y65717D01*
X141536Y67528D01*
X144505Y69965D01*
X146942Y72934D01*
X148753Y76322D01*
X149868Y79997D01*
X150244Y83820D01*
X149868Y87643D01*
X148753Y91318D01*
X146942Y94706D01*
X144505Y97675D01*
X141536Y100112D01*
X138148Y101923D01*
X134473Y103038D01*
X130650Y103414D01*
X130556D01*
X128150Y105820D01*
D02*
G37*
G36*
X635000Y37486D02*
X632389Y37143D01*
X629957Y36135D01*
X627868Y34532D01*
X626265Y32443D01*
X625257Y30010D01*
X624914Y27400D01*
Y23400D01*
X625257Y20789D01*
X626265Y18357D01*
X627868Y16268D01*
X629957Y14665D01*
X632389Y13657D01*
X635000Y13314D01*
X637611Y13657D01*
X640043Y14665D01*
X642132Y16268D01*
X643735Y18357D01*
X644743Y20789D01*
X645086Y23400D01*
Y27400D01*
X644743Y30010D01*
X643735Y32443D01*
X642132Y34532D01*
X640043Y36135D01*
X637611Y37143D01*
X635000Y37486D01*
D02*
G37*
G36*
X609600D02*
X606990Y37143D01*
X604557Y36135D01*
X602468Y34532D01*
X600865Y32443D01*
X599857Y30010D01*
X599514Y27400D01*
Y23400D01*
X599857Y20789D01*
X600865Y18357D01*
X602468Y16268D01*
X604557Y14665D01*
X606990Y13657D01*
X609600Y13314D01*
X612211Y13657D01*
X614643Y14665D01*
X616732Y16268D01*
X618335Y18357D01*
X619343Y20789D01*
X619686Y23400D01*
Y27400D01*
X619343Y30010D01*
X618335Y32443D01*
X616732Y34532D01*
X614643Y36135D01*
X612211Y37143D01*
X609600Y37486D01*
D02*
G37*
G36*
X584200D02*
X581590Y37143D01*
X579157Y36135D01*
X577068Y34532D01*
X575465Y32443D01*
X574457Y30010D01*
X574114Y27400D01*
Y23400D01*
X574457Y20789D01*
X575465Y18357D01*
X577068Y16268D01*
X579157Y14665D01*
X581590Y13657D01*
X584200Y13314D01*
X586810Y13657D01*
X589243Y14665D01*
X591332Y16268D01*
X592935Y18357D01*
X593943Y20789D01*
X594286Y23400D01*
Y27400D01*
X593943Y30010D01*
X592935Y32443D01*
X591332Y34532D01*
X589243Y36135D01*
X586810Y37143D01*
X584200Y37486D01*
D02*
G37*
G36*
X558800D02*
X556189Y37143D01*
X553757Y36135D01*
X551668Y34532D01*
X550065Y32443D01*
X549057Y30010D01*
X548714Y27400D01*
Y23400D01*
X549057Y20789D01*
X550065Y18357D01*
X551668Y16268D01*
X553757Y14665D01*
X556189Y13657D01*
X558800Y13314D01*
X561410Y13657D01*
X563843Y14665D01*
X565932Y16268D01*
X567535Y18357D01*
X568543Y20789D01*
X568886Y23400D01*
Y27400D01*
X568543Y30010D01*
X567535Y32443D01*
X565932Y34532D01*
X563843Y36135D01*
X561410Y37143D01*
X558800Y37486D01*
D02*
G37*
G36*
X533400D02*
X530789Y37143D01*
X528357Y36135D01*
X526268Y34532D01*
X524665Y32443D01*
X523657Y30010D01*
X523314Y27400D01*
Y23400D01*
X523657Y20789D01*
X524665Y18357D01*
X526268Y16268D01*
X528357Y14665D01*
X530789Y13657D01*
X533400Y13314D01*
X536011Y13657D01*
X538443Y14665D01*
X540532Y16268D01*
X542135Y18357D01*
X543143Y20789D01*
X543486Y23400D01*
Y27400D01*
X543143Y30010D01*
X542135Y32443D01*
X540532Y34532D01*
X538443Y36135D01*
X536011Y37143D01*
X533400Y37486D01*
D02*
G37*
G36*
X508000D02*
X505390Y37143D01*
X502957Y36135D01*
X500868Y34532D01*
X499265Y32443D01*
X498257Y30010D01*
X497914Y27400D01*
Y23400D01*
X498257Y20789D01*
X499265Y18357D01*
X500868Y16268D01*
X502957Y14665D01*
X505390Y13657D01*
X508000Y13314D01*
X510611Y13657D01*
X513043Y14665D01*
X515132Y16268D01*
X516735Y18357D01*
X517743Y20789D01*
X518086Y23400D01*
Y27400D01*
X517743Y30010D01*
X516735Y32443D01*
X515132Y34532D01*
X513043Y36135D01*
X510611Y37143D01*
X508000Y37486D01*
D02*
G37*
G36*
X457200D02*
X454590Y37143D01*
X452157Y36135D01*
X450068Y34532D01*
X448465Y32443D01*
X447457Y30010D01*
X447114Y27400D01*
Y23400D01*
X447457Y20789D01*
X448465Y18357D01*
X450068Y16268D01*
X452157Y14665D01*
X454590Y13657D01*
X457200Y13314D01*
X459810Y13657D01*
X462243Y14665D01*
X464332Y16268D01*
X465935Y18357D01*
X466943Y20789D01*
X467286Y23400D01*
Y27400D01*
X466943Y30010D01*
X465935Y32443D01*
X464332Y34532D01*
X462243Y36135D01*
X459810Y37143D01*
X457200Y37486D01*
D02*
G37*
G36*
X355600D02*
X352990Y37143D01*
X350557Y36135D01*
X348468Y34532D01*
X346865Y32443D01*
X345857Y30010D01*
X345514Y27400D01*
Y23400D01*
X345857Y20789D01*
X346865Y18357D01*
X348468Y16268D01*
X350557Y14665D01*
X352990Y13657D01*
X355600Y13314D01*
X358210Y13657D01*
X360643Y14665D01*
X362732Y16268D01*
X364335Y18357D01*
X365343Y20789D01*
X365686Y23400D01*
Y27400D01*
X365343Y30010D01*
X364335Y32443D01*
X362732Y34532D01*
X360643Y36135D01*
X358210Y37143D01*
X355600Y37486D01*
D02*
G37*
G36*
X330200D02*
X327589Y37143D01*
X325157Y36135D01*
X323068Y34532D01*
X321465Y32443D01*
X320457Y30010D01*
X320114Y27400D01*
Y23400D01*
X320457Y20789D01*
X321465Y18357D01*
X323068Y16268D01*
X325157Y14665D01*
X327589Y13657D01*
X330200Y13314D01*
X332811Y13657D01*
X335243Y14665D01*
X337332Y16268D01*
X338935Y18357D01*
X339943Y20789D01*
X340286Y23400D01*
Y27400D01*
X339943Y30010D01*
X338935Y32443D01*
X337332Y34532D01*
X335243Y36135D01*
X332811Y37143D01*
X330200Y37486D01*
D02*
G37*
G36*
X279400D02*
X276789Y37143D01*
X274357Y36135D01*
X272268Y34532D01*
X270665Y32443D01*
X269657Y30010D01*
X269314Y27400D01*
Y23400D01*
X269657Y20789D01*
X270665Y18357D01*
X272268Y16268D01*
X274357Y14665D01*
X276789Y13657D01*
X279400Y13314D01*
X282010Y13657D01*
X284443Y14665D01*
X286532Y16268D01*
X288135Y18357D01*
X289143Y20789D01*
X289486Y23400D01*
Y27400D01*
X289143Y30010D01*
X288135Y32443D01*
X286532Y34532D01*
X284443Y36135D01*
X282010Y37143D01*
X279400Y37486D01*
D02*
G37*
G36*
X425450Y137816D02*
X422840Y137473D01*
X420407Y136465D01*
X418318Y134862D01*
X416715Y132773D01*
X415707Y130340D01*
X415364Y127730D01*
Y123730D01*
X415707Y121119D01*
X416715Y118687D01*
X418318Y116598D01*
X420407Y114995D01*
X422840Y113987D01*
X425450Y113644D01*
X428060Y113987D01*
X430493Y114995D01*
X432582Y116598D01*
X434185Y118687D01*
X435193Y121119D01*
X435536Y123730D01*
Y127730D01*
X435193Y130340D01*
X434185Y132773D01*
X432582Y134862D01*
X430493Y136465D01*
X428060Y137473D01*
X425450Y137816D01*
D02*
G37*
%LPD*%
D15*
X106680Y406400D02*
D03*
X121920D02*
D03*
D59*
X208280Y398780D02*
D03*
Y424180D02*
D03*
X182880Y398780D02*
D03*
Y424180D02*
D03*
X636270Y304800D02*
D03*
Y279400D02*
D03*
Y254000D02*
D03*
X661670Y304800D02*
D03*
Y279400D02*
D03*
Y254000D02*
D03*
X157480Y449580D02*
D03*
X182880D02*
D03*
X208280D02*
D03*
X157480Y474980D02*
D03*
X182880D02*
D03*
X208280D02*
D03*
D67*
X301498Y446502D02*
X332500Y415500D01*
X253028Y446502D02*
X301498D01*
X332500Y352250D02*
Y415500D01*
X292100Y394970D02*
X308610Y411480D01*
X292100Y367600D02*
Y394970D01*
X268750Y344250D02*
X292100Y367600D01*
X235172Y464358D02*
X253028Y446502D01*
X309530Y329280D02*
X332500Y352250D01*
X309530Y311054D02*
Y329280D01*
X302260Y303784D02*
X309530Y311054D01*
X302260Y293370D02*
Y303784D01*
X88900Y476611D02*
X99539Y487250D01*
X133500D01*
X144948Y475802D01*
Y469789D02*
Y475802D01*
Y469789D02*
X152289Y462448D01*
X164698D01*
X170348Y468098D01*
Y480171D01*
X177689Y487512D01*
X217524D01*
X235172Y469864D01*
Y464358D02*
Y469864D01*
X213360Y508000D02*
X245776Y475584D01*
X202892Y493068D02*
X219826D01*
X240728Y472166D01*
X245776Y468750D02*
Y475584D01*
X187960Y508000D02*
X202892Y493068D01*
X245776Y468750D02*
X252026Y462500D01*
X240728Y466659D02*
Y472166D01*
Y466659D02*
X250637Y456750D01*
X318770Y300990D02*
Y324270D01*
X268750Y242500D02*
Y344250D01*
X254572Y228322D02*
X268750Y242500D01*
X254572Y212778D02*
Y228322D01*
X242264Y200470D02*
X254572Y212778D01*
X224223Y200470D02*
X242264D01*
X213873Y210820D02*
X224223Y200470D01*
X189230Y210820D02*
X213873D01*
X323000Y462500D02*
X356500Y429000D01*
Y339990D02*
Y429000D01*
X328930Y312420D02*
X356500Y339990D01*
X250637Y456750D02*
X304500D01*
X341750Y419500D01*
Y347250D02*
Y419500D01*
X318770Y324270D02*
X341750Y347250D01*
X252026Y462500D02*
X323000D01*
X474530Y172720D02*
X618490D01*
X463500Y183750D02*
X474530Y172720D01*
X463500Y183750D02*
Y248870D01*
X470535Y255905D01*
X488315Y190935D02*
X496370Y182880D01*
X488315Y190935D02*
Y257175D01*
X496370Y182880D02*
X593090D01*
D68*
X344652Y231750D02*
X424277Y311375D01*
X424212Y311440D02*
X424277Y311375D01*
X424212Y311440D02*
Y318988D01*
X424277Y319053D02*
Y500283D01*
X424212Y318988D02*
X424277Y319053D01*
X344266Y215962D02*
X350962D01*
X337218Y208914D02*
X344266Y215962D01*
X416560Y508000D02*
X424277Y500283D01*
X391160Y508000D02*
X412409Y486751D01*
Y308083D02*
Y486751D01*
X355564Y251238D02*
X412409Y308083D01*
X365760Y508000D02*
X404091Y469669D01*
Y308341D02*
Y469669D01*
X356100Y260350D02*
X404091Y308341D01*
X458470Y323470D02*
Y506730D01*
X350962Y215962D02*
X458470Y323470D01*
X337218Y206222D02*
Y208914D01*
X332926Y201930D02*
X337218Y206222D01*
X323850Y201930D02*
X332926D01*
X482600Y337600D02*
Y508000D01*
X349250Y204250D02*
X482600Y337600D01*
X349250Y201930D02*
Y204250D01*
X508000Y353000D02*
Y508000D01*
X374650Y219650D02*
X508000Y353000D01*
X374650Y201930D02*
Y219650D01*
X558800Y482600D02*
Y508000D01*
X547370Y471170D02*
X558800Y482600D01*
X584200Y494200D02*
Y508000D01*
X556768Y466768D02*
X584200Y494200D01*
X556768Y246888D02*
Y466768D01*
X547370Y259080D02*
Y471170D01*
X211670Y196000D02*
X223520Y184150D01*
X139280Y196000D02*
X211670D01*
X118745Y216535D02*
X139280Y196000D01*
X331165Y474523D02*
X365760Y439928D01*
X254512Y474523D02*
X331165D01*
X371824Y329141D02*
Y442440D01*
X260128Y226021D02*
X277306Y243199D01*
X260128Y206872D02*
Y226021D01*
X277876Y235193D02*
X371824Y329141D01*
X277306Y243199D02*
Y248858D01*
X279400Y250952D01*
X277876Y223266D02*
Y235193D01*
X251460Y306070D02*
Y375920D01*
Y306070D02*
X259080Y298450D01*
X306476Y145372D02*
X380662D01*
X264382Y187467D02*
X306476Y145372D01*
X264382Y187467D02*
Y202618D01*
X260128Y206872D02*
X264382Y202618D01*
X269240Y214630D02*
X270446Y213424D01*
Y189978D02*
Y213424D01*
Y189978D02*
X308988Y151436D01*
X305392Y163608D02*
X644858D01*
X647000Y165750D01*
X283940Y185060D02*
X305392Y163608D01*
X289560Y508000D02*
X312060Y485500D01*
X328764D01*
X371824Y442440D01*
X314960Y508000D02*
X377888Y445072D01*
X283940Y231690D02*
X377888Y325638D01*
Y445072D01*
X281618Y250952D02*
X365760Y335094D01*
Y439928D01*
X269240Y214630D02*
X277876Y223266D01*
X279400Y250952D02*
X281618D01*
X400050Y132300D02*
Y136200D01*
Y125730D02*
Y132300D01*
X308988Y151436D02*
X384814D01*
X380662Y145372D02*
X387350Y138684D01*
X384814Y151436D02*
X400050Y136200D01*
X283940Y185060D02*
Y231690D01*
X501650Y231140D02*
X533400Y262890D01*
X501650Y201930D02*
Y231140D01*
X527050Y238760D02*
X547370Y259080D01*
X527050Y201930D02*
Y238760D01*
X623738Y266868D02*
X636270Y279400D01*
X623738Y248809D02*
Y266868D01*
Y248809D02*
X631079Y241468D01*
X636608D01*
X653064Y225012D01*
X617674Y287674D02*
X634800Y304800D01*
X617674Y246297D02*
Y287674D01*
Y246297D02*
X628567Y235404D01*
X634096D01*
X647000Y222500D01*
X649138Y266164D02*
X661670Y278696D01*
X649138Y241894D02*
Y266164D01*
Y241894D02*
X661564Y229468D01*
X653064Y163238D02*
Y225012D01*
X641262Y151436D02*
X653064Y163238D01*
X419186Y151436D02*
X641262D01*
X400050Y132300D02*
X419186Y151436D01*
X661564Y163162D02*
Y229468D01*
X643773Y145372D02*
X661564Y163162D01*
X470432Y145372D02*
X643773D01*
X464218Y139158D02*
X470432Y145372D01*
X634800Y304800D02*
X636270D01*
X647000Y165750D02*
Y222500D01*
X628650Y201930D02*
Y213360D01*
X594360Y247650D02*
X628650Y213360D01*
X326168Y251238D02*
X355564D01*
X312000Y231750D02*
X344652D01*
X335280Y260350D02*
X356100D01*
X323850Y248920D02*
X326168Y251238D01*
X386080Y309000D02*
Y462280D01*
X363220Y286140D02*
X386080Y309000D01*
X340360Y508000D02*
X386080Y462280D01*
X363220Y283210D02*
Y286140D01*
X298450Y218200D02*
X312000Y231750D01*
X298450Y201930D02*
Y218200D01*
X661670Y278696D02*
Y279400D01*
X464218Y106332D02*
Y139158D01*
X450342Y92456D02*
X464218Y106332D01*
X366522Y92456D02*
X450342D01*
X349250Y109728D02*
X366522Y92456D01*
X349250Y109728D02*
Y125730D01*
X635000Y483870D02*
Y508000D01*
X621538Y470408D02*
X635000Y483870D01*
X600202Y470408D02*
X621538D01*
X572484Y442690D02*
X600202Y470408D01*
X572484Y350806D02*
Y442690D01*
Y350806D02*
X582168Y341122D01*
X591312D01*
X606298Y326136D01*
Y313182D02*
Y326136D01*
X599186Y306070D02*
X606298Y313182D01*
X593090Y306070D02*
X599186D01*
X577596Y290576D02*
X593090Y306070D01*
X577596Y237236D02*
Y290576D01*
Y237236D02*
X603250Y211582D01*
Y201930D02*
Y211582D01*
X566420Y309626D02*
Y460502D01*
Y232156D02*
Y309626D01*
X609600Y489204D02*
Y508000D01*
X601980Y481584D02*
X609600Y489204D01*
X587502Y481584D02*
X601980D01*
X566420Y460502D02*
X587502Y481584D01*
X566420Y232156D02*
X577850Y220726D01*
Y201930D02*
Y220726D01*
X552450Y242570D02*
X556768Y246888D01*
X594360Y247650D02*
Y248158D01*
X387350Y112014D02*
Y138684D01*
Y112014D02*
X394208Y105156D01*
X438912D01*
X450850Y117094D01*
Y125730D01*
X552450Y201930D02*
Y242570D01*
X533400Y262890D02*
Y508000D01*
X457200D02*
X458470Y506730D01*
D69*
X216662Y437134D02*
X224536Y429260D01*
Y410972D02*
Y429260D01*
X201422Y437134D02*
X216662D01*
X195580Y442976D02*
X201422Y437134D01*
X195580Y442976D02*
Y462280D01*
X208280Y474980D01*
D70*
X51260Y427990D02*
X90170D01*
X38050Y441200D02*
X51260Y427990D01*
X285402Y114802D02*
X285750Y112250D01*
X285402Y112598D02*
Y114802D01*
X280500Y150750D02*
X285402Y145848D01*
Y112598D02*
X285750Y112250D01*
X292590Y105410D01*
X311150D01*
X69850Y288290D02*
X95250D01*
X120650Y313690D01*
X248000Y275940D02*
X248920Y276860D01*
X248000Y215500D02*
Y275940D01*
X240000Y207500D02*
X248000Y215500D01*
X235793Y207500D02*
X240000D01*
X235335Y207042D02*
X235793Y207500D01*
X226945Y207042D02*
X235335D01*
X211737Y222250D02*
X226945Y207042D01*
X177750Y222250D02*
X211737D01*
X168750Y213250D02*
X177750Y222250D01*
X144250Y213250D02*
X168750D01*
X127250Y230250D02*
X144250Y213250D01*
X95500Y230250D02*
X127250D01*
X88900Y223650D02*
X95500Y230250D01*
X88900Y215900D02*
Y223650D01*
X219920Y449580D02*
X232750Y436750D01*
X208280Y449580D02*
X219920D01*
X232750Y419750D02*
Y436750D01*
Y419750D02*
X246100Y406400D01*
X250190D01*
X234000Y291780D02*
X248920Y276860D01*
X234000Y291780D02*
Y390210D01*
X250190Y406400D01*
X255270Y175980D02*
Y193040D01*
Y175980D02*
X280500Y150750D01*
D71*
X372500Y50000D02*
X381000Y41500D01*
X304800Y50000D02*
X372500D01*
X304800Y25400D02*
Y50000D01*
X235750D02*
X304800D01*
X168910Y116840D02*
X235750Y50000D01*
X115000Y170000D02*
X115750D01*
X110000D02*
X115000D01*
X115750D02*
X168910Y116840D01*
X115000Y170000D02*
X120000Y165000D01*
X88900Y201100D02*
Y215900D01*
X45000Y368500D02*
X65150D01*
X37000Y376500D02*
X45000Y368500D01*
X37000Y376500D02*
Y400000D01*
X52250Y415250D01*
X93250D01*
X102100Y406400D01*
X106680D01*
X480060Y80010D02*
X482600Y82550D01*
X278130Y80010D02*
X480060D01*
X381000Y25400D02*
Y41500D01*
X16256Y419406D02*
X38050Y441200D01*
X16256Y342594D02*
Y419406D01*
Y342594D02*
X38050Y320800D01*
D72*
X226060Y454690D02*
Y466090D01*
X258795Y402836D02*
Y421955D01*
X226060Y454690D02*
X258795Y421955D01*
X242250Y386291D02*
X258795Y402836D01*
X242250Y300500D02*
Y386291D01*
Y300500D02*
X258318Y284432D01*
Y245364D02*
Y284432D01*
D75*
X660400Y355600D02*
D03*
Y76200D02*
D03*
X139700Y25400D02*
D03*
X152400Y508000D02*
D03*
D76*
X38050Y320800D02*
D03*
Y441200D02*
D03*
D77*
X65150Y393500D02*
D03*
X85150Y368500D02*
D03*
X65150D02*
D03*
X85150Y393500D02*
D03*
D78*
X298450Y125730D02*
D03*
X323850D02*
D03*
X349250D02*
D03*
X374650D02*
D03*
X400050D02*
D03*
X425450D02*
D03*
X450850D02*
D03*
X476250D02*
D03*
X501650D02*
D03*
X527050D02*
D03*
X552450D02*
D03*
X577850D02*
D03*
X603250D02*
D03*
X628650D02*
D03*
X298450Y201930D02*
D03*
X323850D02*
D03*
X349250D02*
D03*
X374650D02*
D03*
X400050D02*
D03*
X425450D02*
D03*
X450850D02*
D03*
X476250D02*
D03*
X501650D02*
D03*
X527050D02*
D03*
X552450D02*
D03*
X577850D02*
D03*
X603250D02*
D03*
X279400Y25400D02*
D03*
X304800D02*
D03*
X330200D02*
D03*
X355600D02*
D03*
X381000D02*
D03*
X406400D02*
D03*
X457200D02*
D03*
X431800D02*
D03*
X482600Y508000D02*
D03*
X457200D02*
D03*
X508000D02*
D03*
X533400D02*
D03*
X558800D02*
D03*
X584200D02*
D03*
X609600D02*
D03*
X635000D02*
D03*
Y25400D02*
D03*
X609600D02*
D03*
X584200D02*
D03*
X558800D02*
D03*
X533400D02*
D03*
X508000D02*
D03*
X187960Y508000D02*
D03*
X213360D02*
D03*
X264160D02*
D03*
X238760D02*
D03*
X289560D02*
D03*
X314960D02*
D03*
X340360D02*
D03*
X365760D02*
D03*
X391160D02*
D03*
X416560D02*
D03*
D79*
X628650Y201930D02*
D03*
D80*
X57150Y83820D02*
D03*
X117150D02*
D03*
D81*
X91150Y35820D02*
D03*
D82*
X164830Y261620D02*
D03*
X213630D02*
D03*
D83*
X90170Y427990D02*
D03*
X140970Y171450D02*
D03*
X303530Y376174D02*
D03*
X299720Y314960D02*
D03*
X306324Y342900D02*
D03*
X433324Y315214D02*
D03*
X471424Y292354D02*
D03*
X514350Y215900D02*
D03*
X411734Y179324D02*
D03*
X482600Y25400D02*
D03*
X271780Y142240D02*
D03*
X214884Y28194D02*
D03*
X292100Y62230D02*
D03*
X219710Y115570D02*
D03*
X166624Y68834D02*
D03*
X189230Y261620D02*
D03*
X120650Y247650D02*
D03*
X69850Y241300D02*
D03*
X114300Y127000D02*
D03*
X88900Y133350D02*
D03*
X76200Y152400D02*
D03*
Y196850D02*
D03*
X50800Y203200D02*
D03*
Y146050D02*
D03*
X25400Y215900D02*
D03*
Y173990D02*
D03*
Y133350D02*
D03*
X104140Y499110D02*
D03*
X436880Y508000D02*
D03*
X546100Y491490D02*
D03*
X646684Y405384D02*
D03*
Y473964D02*
D03*
X672084Y106934D02*
D03*
X672338Y177038D02*
D03*
X69850Y288290D02*
D03*
X88900Y476611D02*
D03*
X254512Y474523D02*
D03*
X226060Y466090D02*
D03*
X318770Y300990D02*
D03*
X302260Y293370D02*
D03*
X118745Y216535D02*
D03*
X88900Y215900D02*
D03*
X231140Y217170D02*
D03*
X248920Y276860D02*
D03*
X187452Y336042D02*
D03*
X120650Y313690D02*
D03*
X251460Y375920D02*
D03*
X259080Y298450D02*
D03*
X223520Y184150D02*
D03*
X482600Y82550D02*
D03*
X278130Y80010D02*
D03*
X311150Y105410D02*
D03*
X189230Y210820D02*
D03*
X255270Y193040D02*
D03*
X308610Y411480D02*
D03*
X250190Y406400D02*
D03*
X258318Y245364D02*
D03*
X168910Y116840D02*
D03*
X377190Y163830D02*
D03*
X269240Y214630D02*
D03*
X328930Y312420D02*
D03*
X488315Y257175D02*
D03*
X470535Y255905D02*
D03*
X618490Y172720D02*
D03*
X593090Y182880D02*
D03*
X323850Y248920D02*
D03*
X335280Y260350D02*
D03*
X363220Y283210D02*
D03*
X606298Y326136D02*
D03*
X566420Y309626D02*
D03*
X594360Y248158D02*
D03*
X224536Y410972D02*
D03*
D84*
X285402Y114802D02*
Y145848D01*
M02*
