G04*
G04 #@! TF.GenerationSoftware,Altium Limited,Altium Designer,18.0.12 (696)*
G04*
G04 Layer_Color=8421504*
%FSLAX44Y44*%
%MOMM*%
G71*
G01*
G75*
%ADD13R,1.4500X0.4500*%
%ADD14R,0.7112X2.0320*%
%ADD15R,1.1684X1.6002*%
%ADD16R,0.7000X0.3000*%
%ADD17R,0.3000X0.7000*%
%ADD18R,3.4000X3.4000*%
%ADD19R,1.2000X1.0000*%
%ADD20R,1.8000X1.4000*%
%ADD21R,0.6000X0.9000*%
%ADD22R,0.8000X0.8000*%
%ADD23R,1.0000X1.0000*%
%ADD24R,0.6500X0.5000*%
%ADD25R,1.1000X1.3000*%
%ADD26R,0.8000X0.8000*%
%ADD27R,1.4000X1.0000*%
G04:AMPARAMS|DCode=28|XSize=1.1mm|YSize=0.6mm|CornerRadius=0.15mm|HoleSize=0mm|Usage=FLASHONLY|Rotation=0.000|XOffset=0mm|YOffset=0mm|HoleType=Round|Shape=RoundedRectangle|*
%AMROUNDEDRECTD28*
21,1,1.1000,0.3000,0,0,0.0*
21,1,0.8000,0.6000,0,0,0.0*
1,1,0.3000,0.4000,-0.1500*
1,1,0.3000,-0.4000,-0.1500*
1,1,0.3000,-0.4000,0.1500*
1,1,0.3000,0.4000,0.1500*
%
%ADD28ROUNDEDRECTD28*%
%ADD29R,2.2000X1.5000*%
%ADD30R,3.2000X1.5000*%
%ADD31R,1.6000X3.0000*%
%ADD32R,2.2352X1.2192*%
%ADD33R,2.2000X3.6000*%
%ADD34R,2.4000X2.4000*%
D13*
X212500Y193450D02*
D03*
Y199950D02*
D03*
Y206450D02*
D03*
Y212950D02*
D03*
X168500Y193450D02*
D03*
Y199950D02*
D03*
Y206450D02*
D03*
Y212950D02*
D03*
D14*
X422250Y248920D02*
D03*
X412750D02*
D03*
X403250D02*
D03*
D15*
X271780Y273050D02*
D03*
X287020D02*
D03*
D16*
X174890Y331750D02*
D03*
Y336750D02*
D03*
Y341750D02*
D03*
Y346750D02*
D03*
Y351750D02*
D03*
Y356750D02*
D03*
Y361750D02*
D03*
Y366750D02*
D03*
X223890D02*
D03*
Y361750D02*
D03*
Y356750D02*
D03*
Y351750D02*
D03*
Y346750D02*
D03*
Y341750D02*
D03*
Y336750D02*
D03*
Y331750D02*
D03*
D17*
X181890Y373750D02*
D03*
X186890D02*
D03*
X191890D02*
D03*
X196890D02*
D03*
X201890D02*
D03*
X206890D02*
D03*
X211890D02*
D03*
X216890D02*
D03*
Y324750D02*
D03*
X211890D02*
D03*
X206890D02*
D03*
X201890D02*
D03*
X196890D02*
D03*
X191890D02*
D03*
X186890D02*
D03*
X181890D02*
D03*
D18*
X199390Y349250D02*
D03*
D19*
X64200Y450850D02*
D03*
X88200D02*
D03*
D20*
X130810Y477280D02*
D03*
Y447280D02*
D03*
X594360Y264400D02*
D03*
Y294400D02*
D03*
D21*
X405250Y227330D02*
D03*
X420250D02*
D03*
X198000Y295910D02*
D03*
X183000D02*
D03*
D22*
X441840Y104140D02*
D03*
X426840D02*
D03*
X271900Y298450D02*
D03*
X286900D02*
D03*
X271900Y444500D02*
D03*
X286900D02*
D03*
X286900Y314960D02*
D03*
X271900D02*
D03*
X119500Y419100D02*
D03*
X134500D02*
D03*
X128150Y298450D02*
D03*
X113150D02*
D03*
X152520Y295910D02*
D03*
X167520D02*
D03*
X229750D02*
D03*
X214750D02*
D03*
D23*
X137000Y336550D02*
D03*
X117000D02*
D03*
X137000Y393700D02*
D03*
X117000D02*
D03*
D24*
X286150Y381700D02*
D03*
Y389700D02*
D03*
Y397700D02*
D03*
Y405700D02*
D03*
X272650Y381700D02*
D03*
Y389700D02*
D03*
Y397700D02*
D03*
Y405700D02*
D03*
X590950Y325820D02*
D03*
Y333820D02*
D03*
Y341820D02*
D03*
Y349820D02*
D03*
X577450Y325820D02*
D03*
Y333820D02*
D03*
Y341820D02*
D03*
Y349820D02*
D03*
X135020Y356300D02*
D03*
Y364300D02*
D03*
Y372300D02*
D03*
Y380300D02*
D03*
X121520Y356300D02*
D03*
Y364300D02*
D03*
Y372300D02*
D03*
Y380300D02*
D03*
X286150Y226760D02*
D03*
Y234760D02*
D03*
Y242760D02*
D03*
Y250760D02*
D03*
X272650Y226760D02*
D03*
Y234760D02*
D03*
Y242760D02*
D03*
Y250760D02*
D03*
D25*
X290900Y365760D02*
D03*
X267900D02*
D03*
X290900Y342900D02*
D03*
X267900D02*
D03*
Y421640D02*
D03*
X290900D02*
D03*
X572700Y365760D02*
D03*
X595700D02*
D03*
D26*
X184150Y146170D02*
D03*
Y161170D02*
D03*
X255270Y146170D02*
D03*
Y161170D02*
D03*
D27*
X92280Y255930D02*
D03*
Y274930D02*
D03*
X70280Y265430D02*
D03*
D28*
X232710Y142900D02*
D03*
Y161900D02*
D03*
X206710Y142900D02*
D03*
Y152400D02*
D03*
Y161900D02*
D03*
D29*
X105500Y471530D02*
D03*
X21500D02*
D03*
Y516530D02*
D03*
X105500D02*
D03*
X21500Y494030D02*
D03*
D30*
X40640Y286430D02*
D03*
Y244430D02*
D03*
D31*
X255270Y115440D02*
D03*
Y67440D02*
D03*
X184150D02*
D03*
Y115440D02*
D03*
D32*
X106470Y197104D02*
D03*
Y173850D02*
D03*
Y150876D02*
D03*
D33*
X47470Y173850D02*
D03*
D34*
X237900Y27940D02*
D03*
X193900D02*
D03*
M02*
