G04*
G04 #@! TF.GenerationSoftware,Altium Limited,Altium Designer,18.0.12 (696)*
G04*
G04 Layer_Color=8388736*
%FSLAX44Y44*%
%MOMM*%
G71*
G01*
G75*
%ADD23R,1.0000X1.0000*%
%ADD35R,1.5516X0.5516*%
%ADD36R,0.8312X2.1520*%
%ADD37R,1.2884X1.7202*%
%ADD38R,0.8200X0.4200*%
%ADD39R,0.4200X0.8200*%
%ADD40R,3.5200X3.5200*%
%ADD41R,1.4000X1.2000*%
%ADD42R,2.0000X1.6000*%
%ADD43R,0.8000X1.1000*%
%ADD44R,1.2000X1.2000*%
%ADD45R,0.7700X0.6200*%
%ADD46R,1.2200X1.4200*%
%ADD47R,1.0000X1.0000*%
%ADD48R,1.6000X1.2000*%
G04:AMPARAMS|DCode=49|XSize=1.22mm|YSize=0.72mm|CornerRadius=0.21mm|HoleSize=0mm|Usage=FLASHONLY|Rotation=0.000|XOffset=0mm|YOffset=0mm|HoleType=Round|Shape=RoundedRectangle|*
%AMROUNDEDRECTD49*
21,1,1.2200,0.3000,0,0,0.0*
21,1,0.8000,0.7200,0,0,0.0*
1,1,0.4200,0.4000,-0.1500*
1,1,0.4200,-0.4000,-0.1500*
1,1,0.4200,-0.4000,0.1500*
1,1,0.4200,0.4000,0.1500*
%
%ADD49ROUNDEDRECTD49*%
%ADD50R,2.4000X1.7000*%
%ADD51R,3.4000X1.7000*%
%ADD52R,1.8000X3.2000*%
%ADD53R,2.4352X1.4192*%
%ADD54R,2.4000X3.8000*%
%ADD55R,2.6000X2.6000*%
%ADD56C,3.2000*%
%ADD57C,1.9000*%
%ADD58C,3.5000*%
%ADD59C,1.7000*%
%ADD60O,1.8000X2.2000*%
%ADD61R,1.8000X2.2000*%
%ADD62P,4.5461X8X22.5*%
%ADD63P,4.5461X8X292.5*%
%ADD64C,2.2320*%
%ADD65C,0.6096*%
%ADD66C,1.1360*%
D23*
X441840Y104140D02*
D03*
X426840D02*
D03*
X271900Y298450D02*
D03*
X286900D02*
D03*
X271900Y444500D02*
D03*
X286900D02*
D03*
X286900Y314960D02*
D03*
X271900D02*
D03*
X119500Y419100D02*
D03*
X134500D02*
D03*
X128150Y298450D02*
D03*
X113150D02*
D03*
X152520Y295910D02*
D03*
X167520D02*
D03*
X229750D02*
D03*
X214750D02*
D03*
D35*
X212500Y193450D02*
D03*
Y199950D02*
D03*
Y206450D02*
D03*
Y212950D02*
D03*
X168500Y193450D02*
D03*
Y199950D02*
D03*
Y206450D02*
D03*
Y212950D02*
D03*
D36*
X422250Y248920D02*
D03*
X412750D02*
D03*
X403250D02*
D03*
D37*
X271780Y273050D02*
D03*
X287020D02*
D03*
D38*
X174890Y331750D02*
D03*
Y336750D02*
D03*
Y341750D02*
D03*
Y346750D02*
D03*
Y351750D02*
D03*
Y356750D02*
D03*
Y361750D02*
D03*
Y366750D02*
D03*
X223890D02*
D03*
Y361750D02*
D03*
Y356750D02*
D03*
Y351750D02*
D03*
Y346750D02*
D03*
Y341750D02*
D03*
Y336750D02*
D03*
Y331750D02*
D03*
D39*
X181890Y373750D02*
D03*
X186890D02*
D03*
X191890D02*
D03*
X196890D02*
D03*
X201890D02*
D03*
X206890D02*
D03*
X211890D02*
D03*
X216890D02*
D03*
Y324750D02*
D03*
X211890D02*
D03*
X206890D02*
D03*
X201890D02*
D03*
X196890D02*
D03*
X191890D02*
D03*
X186890D02*
D03*
X181890D02*
D03*
D40*
X199390Y349250D02*
D03*
D41*
X64200Y450850D02*
D03*
X88200D02*
D03*
D42*
X130810Y477280D02*
D03*
Y447280D02*
D03*
X594360Y264400D02*
D03*
Y294400D02*
D03*
D43*
X405250Y227330D02*
D03*
X420250D02*
D03*
X198000Y295910D02*
D03*
X183000D02*
D03*
D44*
X137000Y336550D02*
D03*
X117000D02*
D03*
X137000Y393700D02*
D03*
X117000D02*
D03*
D45*
X286150Y381700D02*
D03*
Y389700D02*
D03*
Y397700D02*
D03*
Y405700D02*
D03*
X272650Y381700D02*
D03*
Y389700D02*
D03*
Y397700D02*
D03*
Y405700D02*
D03*
X590950Y325820D02*
D03*
Y333820D02*
D03*
Y341820D02*
D03*
Y349820D02*
D03*
X577450Y325820D02*
D03*
Y333820D02*
D03*
Y341820D02*
D03*
Y349820D02*
D03*
X135020Y356300D02*
D03*
Y364300D02*
D03*
Y372300D02*
D03*
Y380300D02*
D03*
X121520Y356300D02*
D03*
Y364300D02*
D03*
Y372300D02*
D03*
Y380300D02*
D03*
X286150Y226760D02*
D03*
Y234760D02*
D03*
Y242760D02*
D03*
Y250760D02*
D03*
X272650Y226760D02*
D03*
Y234760D02*
D03*
Y242760D02*
D03*
Y250760D02*
D03*
D46*
X290900Y365760D02*
D03*
X267900D02*
D03*
X290900Y342900D02*
D03*
X267900D02*
D03*
Y421640D02*
D03*
X290900D02*
D03*
X572700Y365760D02*
D03*
X595700D02*
D03*
D47*
X184150Y146170D02*
D03*
Y161170D02*
D03*
X255270Y146170D02*
D03*
Y161170D02*
D03*
D48*
X92280Y255930D02*
D03*
Y274930D02*
D03*
X70280Y265430D02*
D03*
D49*
X232710Y142900D02*
D03*
Y161900D02*
D03*
X206710Y142900D02*
D03*
Y152400D02*
D03*
Y161900D02*
D03*
D50*
X105500Y471530D02*
D03*
X21500D02*
D03*
Y516530D02*
D03*
X105500D02*
D03*
X21500Y494030D02*
D03*
D51*
X40640Y286430D02*
D03*
Y244430D02*
D03*
D52*
X255270Y115440D02*
D03*
Y67440D02*
D03*
X184150D02*
D03*
Y115440D02*
D03*
D53*
X106470Y197104D02*
D03*
Y173850D02*
D03*
Y150876D02*
D03*
D54*
X47470Y173850D02*
D03*
D55*
X237900Y27940D02*
D03*
X193900D02*
D03*
D56*
X660400Y355600D02*
D03*
Y76200D02*
D03*
X139700Y25400D02*
D03*
X152400Y508000D02*
D03*
D57*
X208280Y398780D02*
D03*
Y424180D02*
D03*
X182880Y398780D02*
D03*
Y424180D02*
D03*
X636270Y304800D02*
D03*
Y279400D02*
D03*
Y254000D02*
D03*
X661670Y304800D02*
D03*
Y279400D02*
D03*
Y254000D02*
D03*
X157480Y449580D02*
D03*
X182880D02*
D03*
X208280D02*
D03*
X157480Y474980D02*
D03*
X182880D02*
D03*
X208280D02*
D03*
D58*
X38050Y320800D02*
D03*
Y441200D02*
D03*
D59*
X65150Y393500D02*
D03*
X85150Y368500D02*
D03*
X65150D02*
D03*
X85150Y393500D02*
D03*
D60*
X298450Y125730D02*
D03*
X323850D02*
D03*
X349250D02*
D03*
X374650D02*
D03*
X400050D02*
D03*
X425450D02*
D03*
X450850D02*
D03*
X476250D02*
D03*
X501650D02*
D03*
X527050D02*
D03*
X552450D02*
D03*
X577850D02*
D03*
X603250D02*
D03*
X628650D02*
D03*
X298450Y201930D02*
D03*
X323850D02*
D03*
X349250D02*
D03*
X374650D02*
D03*
X400050D02*
D03*
X425450D02*
D03*
X450850D02*
D03*
X476250D02*
D03*
X501650D02*
D03*
X527050D02*
D03*
X552450D02*
D03*
X577850D02*
D03*
X603250D02*
D03*
X279400Y25400D02*
D03*
X304800D02*
D03*
X330200D02*
D03*
X355600D02*
D03*
X381000D02*
D03*
X406400D02*
D03*
X457200D02*
D03*
X431800D02*
D03*
X482600Y508000D02*
D03*
X457200D02*
D03*
X508000D02*
D03*
X533400D02*
D03*
X558800D02*
D03*
X584200D02*
D03*
X609600D02*
D03*
X635000D02*
D03*
Y25400D02*
D03*
X609600D02*
D03*
X584200D02*
D03*
X558800D02*
D03*
X533400D02*
D03*
X508000D02*
D03*
X187960Y508000D02*
D03*
X213360D02*
D03*
X264160D02*
D03*
X238760D02*
D03*
X289560D02*
D03*
X314960D02*
D03*
X340360D02*
D03*
X365760D02*
D03*
X391160D02*
D03*
X416560D02*
D03*
D61*
X628650Y201930D02*
D03*
D62*
X57150Y83820D02*
D03*
X117150D02*
D03*
D63*
X91150Y35820D02*
D03*
D64*
X164830Y261620D02*
D03*
X213630D02*
D03*
D65*
X90170Y427990D02*
D03*
X140970Y171450D02*
D03*
X303530Y376174D02*
D03*
X299720Y314960D02*
D03*
X306324Y342900D02*
D03*
X433324Y315214D02*
D03*
X471424Y292354D02*
D03*
X514350Y215900D02*
D03*
X411734Y179324D02*
D03*
X482600Y25400D02*
D03*
X271780Y142240D02*
D03*
X214884Y28194D02*
D03*
X292100Y62230D02*
D03*
X219710Y115570D02*
D03*
X166624Y68834D02*
D03*
X189230Y261620D02*
D03*
X120650Y247650D02*
D03*
X69850Y241300D02*
D03*
X114300Y127000D02*
D03*
X88900Y133350D02*
D03*
X76200Y152400D02*
D03*
Y196850D02*
D03*
X50800Y203200D02*
D03*
Y146050D02*
D03*
X25400Y215900D02*
D03*
Y173990D02*
D03*
Y133350D02*
D03*
X104140Y499110D02*
D03*
X436880Y508000D02*
D03*
X546100Y491490D02*
D03*
X646684Y405384D02*
D03*
Y473964D02*
D03*
X672084Y106934D02*
D03*
X672338Y177038D02*
D03*
X69850Y288290D02*
D03*
X88900Y476611D02*
D03*
X254512Y474523D02*
D03*
X226060Y466090D02*
D03*
X318770Y300990D02*
D03*
X302260Y293370D02*
D03*
X118745Y216535D02*
D03*
X88900Y215900D02*
D03*
X231140Y217170D02*
D03*
X248920Y276860D02*
D03*
X120650Y313690D02*
D03*
X251460Y375920D02*
D03*
X259080Y298450D02*
D03*
X223520Y184150D02*
D03*
X482600Y82550D02*
D03*
X278130Y80010D02*
D03*
X311150Y105410D02*
D03*
X189230Y210820D02*
D03*
X255270Y193040D02*
D03*
X308610Y411480D02*
D03*
X250190Y406400D02*
D03*
X258318Y245364D02*
D03*
X168910Y116840D02*
D03*
X377190Y163830D02*
D03*
X269240Y214630D02*
D03*
X328930Y312420D02*
D03*
X488315Y257175D02*
D03*
X470535Y255905D02*
D03*
X618490Y172720D02*
D03*
X593090Y182880D02*
D03*
X323850Y248920D02*
D03*
X335280Y260350D02*
D03*
X363220Y283210D02*
D03*
X606298Y326136D02*
D03*
X566420Y309626D02*
D03*
X594360Y248158D02*
D03*
X224536Y410972D02*
D03*
D66*
X187452Y336042D02*
D03*
M02*
