G04*
G04 #@! TF.GenerationSoftware,Altium Limited,Altium Designer,18.0.12 (696)*
G04*
G04 Layer_Color=16711935*
%FSLAX44Y44*%
%MOMM*%
G71*
G01*
G75*
%ADD37R,1.2884X1.7202*%
%ADD56C,3.2000*%
%ADD57C,1.9000*%
%ADD58C,3.5000*%
%ADD59C,1.7000*%
%ADD60O,1.8000X2.2000*%
%ADD61R,1.8000X2.2000*%
%ADD62P,4.5461X8X22.5*%
%ADD63P,4.5461X8X292.5*%
%ADD64C,2.2320*%
%ADD65C,0.6096*%
%ADD66C,1.1360*%
D37*
X106680Y406400D02*
D03*
X121920D02*
D03*
D56*
X660400Y355600D02*
D03*
Y76200D02*
D03*
X139700Y25400D02*
D03*
X152400Y508000D02*
D03*
D57*
X208280Y398780D02*
D03*
Y424180D02*
D03*
X182880Y398780D02*
D03*
Y424180D02*
D03*
X636270Y304800D02*
D03*
Y279400D02*
D03*
Y254000D02*
D03*
X661670Y304800D02*
D03*
Y279400D02*
D03*
Y254000D02*
D03*
X157480Y449580D02*
D03*
X182880D02*
D03*
X208280D02*
D03*
X157480Y474980D02*
D03*
X182880D02*
D03*
X208280D02*
D03*
D58*
X38050Y320800D02*
D03*
Y441200D02*
D03*
D59*
X65150Y393500D02*
D03*
X85150Y368500D02*
D03*
X65150D02*
D03*
X85150Y393500D02*
D03*
D60*
X298450Y125730D02*
D03*
X323850D02*
D03*
X349250D02*
D03*
X374650D02*
D03*
X400050D02*
D03*
X425450D02*
D03*
X450850D02*
D03*
X476250D02*
D03*
X501650D02*
D03*
X527050D02*
D03*
X552450D02*
D03*
X577850D02*
D03*
X603250D02*
D03*
X628650D02*
D03*
X298450Y201930D02*
D03*
X323850D02*
D03*
X349250D02*
D03*
X374650D02*
D03*
X400050D02*
D03*
X425450D02*
D03*
X450850D02*
D03*
X476250D02*
D03*
X501650D02*
D03*
X527050D02*
D03*
X552450D02*
D03*
X577850D02*
D03*
X603250D02*
D03*
X279400Y25400D02*
D03*
X304800D02*
D03*
X330200D02*
D03*
X355600D02*
D03*
X381000D02*
D03*
X406400D02*
D03*
X457200D02*
D03*
X431800D02*
D03*
X482600Y508000D02*
D03*
X457200D02*
D03*
X508000D02*
D03*
X533400D02*
D03*
X558800D02*
D03*
X584200D02*
D03*
X609600D02*
D03*
X635000D02*
D03*
Y25400D02*
D03*
X609600D02*
D03*
X584200D02*
D03*
X558800D02*
D03*
X533400D02*
D03*
X508000D02*
D03*
X187960Y508000D02*
D03*
X213360D02*
D03*
X264160D02*
D03*
X238760D02*
D03*
X289560D02*
D03*
X314960D02*
D03*
X340360D02*
D03*
X365760D02*
D03*
X391160D02*
D03*
X416560D02*
D03*
D61*
X628650Y201930D02*
D03*
D62*
X57150Y83820D02*
D03*
X117150D02*
D03*
D63*
X91150Y35820D02*
D03*
D64*
X164830Y261620D02*
D03*
X213630D02*
D03*
D65*
X90170Y427990D02*
D03*
X140970Y171450D02*
D03*
X303530Y376174D02*
D03*
X299720Y314960D02*
D03*
X306324Y342900D02*
D03*
X433324Y315214D02*
D03*
X471424Y292354D02*
D03*
X514350Y215900D02*
D03*
X411734Y179324D02*
D03*
X482600Y25400D02*
D03*
X271780Y142240D02*
D03*
X214884Y28194D02*
D03*
X292100Y62230D02*
D03*
X219710Y115570D02*
D03*
X166624Y68834D02*
D03*
X189230Y261620D02*
D03*
X120650Y247650D02*
D03*
X69850Y241300D02*
D03*
X114300Y127000D02*
D03*
X88900Y133350D02*
D03*
X76200Y152400D02*
D03*
Y196850D02*
D03*
X50800Y203200D02*
D03*
Y146050D02*
D03*
X25400Y215900D02*
D03*
Y173990D02*
D03*
Y133350D02*
D03*
X104140Y499110D02*
D03*
X436880Y508000D02*
D03*
X546100Y491490D02*
D03*
X646684Y405384D02*
D03*
Y473964D02*
D03*
X672084Y106934D02*
D03*
X672338Y177038D02*
D03*
X69850Y288290D02*
D03*
X88900Y476611D02*
D03*
X254512Y474523D02*
D03*
X226060Y466090D02*
D03*
X318770Y300990D02*
D03*
X302260Y293370D02*
D03*
X118745Y216535D02*
D03*
X88900Y215900D02*
D03*
X231140Y217170D02*
D03*
X248920Y276860D02*
D03*
X120650Y313690D02*
D03*
X251460Y375920D02*
D03*
X259080Y298450D02*
D03*
X223520Y184150D02*
D03*
X482600Y82550D02*
D03*
X278130Y80010D02*
D03*
X311150Y105410D02*
D03*
X189230Y210820D02*
D03*
X255270Y193040D02*
D03*
X308610Y411480D02*
D03*
X250190Y406400D02*
D03*
X258318Y245364D02*
D03*
X168910Y116840D02*
D03*
X377190Y163830D02*
D03*
X269240Y214630D02*
D03*
X328930Y312420D02*
D03*
X488315Y257175D02*
D03*
X470535Y255905D02*
D03*
X618490Y172720D02*
D03*
X593090Y182880D02*
D03*
X323850Y248920D02*
D03*
X335280Y260350D02*
D03*
X363220Y283210D02*
D03*
X606298Y326136D02*
D03*
X566420Y309626D02*
D03*
X594360Y248158D02*
D03*
X224536Y410972D02*
D03*
D66*
X187452Y336042D02*
D03*
M02*
