G04*
G04 #@! TF.GenerationSoftware,Altium Limited,Altium Designer,18.0.12 (696)*
G04*
G04 Layer_Physical_Order=1*
G04 Layer_Color=255*
%FSLAX44Y44*%
%MOMM*%
G71*
G01*
G75*
%ADD11C,0.2540*%
%ADD13R,1.4500X0.4500*%
%ADD14R,0.7112X2.0320*%
%ADD15R,1.1684X1.6002*%
%ADD16R,0.7000X0.3000*%
%ADD17R,0.3000X0.7000*%
%ADD18R,3.4000X3.4000*%
%ADD19R,1.2000X1.0000*%
%ADD20R,1.8000X1.4000*%
%ADD21R,0.6000X0.9000*%
%ADD22R,0.8000X0.8000*%
%ADD23R,1.0000X1.0000*%
%ADD24R,0.6500X0.5000*%
%ADD25R,1.1000X1.3000*%
%ADD26R,0.8000X0.8000*%
%ADD27R,1.4000X1.0000*%
G04:AMPARAMS|DCode=28|XSize=1.1mm|YSize=0.6mm|CornerRadius=0.15mm|HoleSize=0mm|Usage=FLASHONLY|Rotation=0.000|XOffset=0mm|YOffset=0mm|HoleType=Round|Shape=RoundedRectangle|*
%AMROUNDEDRECTD28*
21,1,1.1000,0.3000,0,0,0.0*
21,1,0.8000,0.6000,0,0,0.0*
1,1,0.3000,0.4000,-0.1500*
1,1,0.3000,-0.4000,-0.1500*
1,1,0.3000,-0.4000,0.1500*
1,1,0.3000,0.4000,0.1500*
%
%ADD28ROUNDEDRECTD28*%
%ADD29R,2.2000X1.5000*%
%ADD30R,3.2000X1.5000*%
%ADD31R,1.6000X3.0000*%
%ADD32R,2.2352X1.2192*%
%ADD33R,2.2000X3.6000*%
%ADD34R,2.4000X2.4000*%
%ADD59C,1.7000*%
%ADD67C,0.3048*%
%ADD68C,0.4064*%
%ADD69C,0.2794*%
%ADD70C,0.6096*%
%ADD71C,0.8128*%
%ADD72C,0.3050*%
%ADD73C,1.0160*%
%ADD74R,0.3250X0.0500*%
%ADD75C,3.0000*%
%ADD76C,3.3000*%
%ADD77C,1.5000*%
%ADD78O,1.6000X2.0000*%
%ADD79R,1.6000X2.0000*%
%ADD80P,4.3296X8X22.5*%
%ADD81P,4.3296X8X292.5*%
%ADD82C,2.0320*%
%ADD83C,1.0160*%
G36*
X143652Y526614D02*
X142954Y523361D01*
X142351Y523039D01*
X139611Y520789D01*
X137361Y518049D01*
X135690Y514922D01*
X134661Y511529D01*
X134313Y508000D01*
X134661Y504471D01*
X135690Y501078D01*
X137361Y497951D01*
X139611Y495210D01*
X142351Y492961D01*
X145478Y491290D01*
X148871Y490261D01*
X152400Y489913D01*
X153135Y489985D01*
X153137Y489984D01*
X154452Y487563D01*
X154280Y487305D01*
X154017Y485980D01*
Y484911D01*
X152185Y484152D01*
X149991Y482469D01*
X148308Y480275D01*
X147549Y478443D01*
X141810D01*
Y486280D01*
X119810D01*
Y483027D01*
X118500Y481030D01*
X94433D01*
X93949Y481660D01*
X92471Y482795D01*
X90748Y483508D01*
X88900Y483752D01*
X87052Y483508D01*
X85330Y482795D01*
X83850Y481660D01*
X82716Y480181D01*
X82002Y478459D01*
X81759Y476611D01*
X80908Y475641D01*
X34500D01*
Y481030D01*
X10059D01*
X7670Y483226D01*
X7670Y484166D01*
X8500Y484530D01*
X8890Y484530D01*
X34500D01*
Y503530D01*
X8890D01*
X8500Y503530D01*
X6350Y504471D01*
Y527050D01*
X143316D01*
X143652Y526614D01*
D02*
G37*
G36*
X178417Y484496D02*
X177585Y484152D01*
X175391Y482469D01*
X173708Y480275D01*
X172650Y477721D01*
X172289Y474980D01*
X172650Y472239D01*
X173708Y469685D01*
X174879Y468159D01*
X174072Y465975D01*
X173763Y465619D01*
X166597D01*
X166288Y465975D01*
X165481Y468159D01*
X166652Y469685D01*
X167710Y472239D01*
X168071Y474980D01*
X167710Y477721D01*
X166652Y480275D01*
X164969Y482469D01*
X164764Y482626D01*
X164373Y485767D01*
X165427Y487037D01*
X177912D01*
X178417Y484496D01*
D02*
G37*
G36*
X88900Y469470D02*
X89960Y469609D01*
X91883Y468402D01*
X92500Y467689D01*
Y463550D01*
X34500D01*
Y467419D01*
X83819D01*
X85393Y467732D01*
X86726Y468623D01*
X87727Y469624D01*
X88900Y469470D01*
D02*
G37*
G36*
X148308Y469685D02*
X149479Y468159D01*
X148672Y465975D01*
X148363Y465619D01*
X147574D01*
X146199Y465345D01*
X145033Y464567D01*
X136747Y456280D01*
X128248D01*
X127469Y458738D01*
X127468Y458820D01*
X133259Y464611D01*
X134010Y465735D01*
X134274Y467060D01*
Y468280D01*
X141810D01*
Y471516D01*
X147549D01*
X148308Y469685D01*
D02*
G37*
G36*
X230725Y425793D02*
Y418349D01*
X228185Y417097D01*
X228106Y417156D01*
X226384Y417870D01*
X224536Y418113D01*
X222688Y417870D01*
X220965Y417156D01*
X219487Y416021D01*
X218352Y414543D01*
X217638Y412820D01*
X217395Y410972D01*
X217638Y409124D01*
X218352Y407402D01*
X219487Y405923D01*
X220965Y404788D01*
X221073Y404743D01*
Y401515D01*
X218533Y401348D01*
X218510Y401521D01*
X217452Y404075D01*
X215769Y406269D01*
X213575Y407952D01*
X211021Y409010D01*
X208280Y409371D01*
X205539Y409010D01*
X202985Y407952D01*
X201838Y407071D01*
X199298Y408324D01*
Y412503D01*
X202316Y415522D01*
X202985Y415008D01*
X205539Y413950D01*
X208280Y413589D01*
X211021Y413950D01*
X213575Y415008D01*
X215769Y416691D01*
X217452Y418885D01*
X218510Y421439D01*
X218871Y424180D01*
X218510Y426921D01*
X217452Y429475D01*
X215987Y431385D01*
X216245Y432541D01*
X217001Y433924D01*
X222593D01*
X230725Y425793D01*
D02*
G37*
G36*
X174489Y455893D02*
X173708Y454875D01*
X172650Y452321D01*
X172289Y449580D01*
X172650Y446839D01*
X173708Y444285D01*
X175391Y442091D01*
X177585Y440408D01*
X180139Y439350D01*
X182880Y438989D01*
X185621Y439350D01*
X187453Y440109D01*
X192623Y434939D01*
X193747Y434188D01*
X195072Y433924D01*
X199559D01*
X200315Y432541D01*
X200573Y431385D01*
X199108Y429475D01*
X198050Y426921D01*
X197689Y424180D01*
X198050Y421439D01*
X198164Y421166D01*
X193385Y416387D01*
X192634Y415263D01*
X192370Y413938D01*
Y407823D01*
X191652Y407265D01*
X189830Y406682D01*
X188175Y407952D01*
X185621Y409010D01*
X182880Y409371D01*
X180139Y409010D01*
X177585Y407952D01*
X175751Y406545D01*
X173377Y407445D01*
X173130Y409532D01*
X178307Y414709D01*
X180139Y413950D01*
X182880Y413589D01*
X185621Y413950D01*
X188175Y415008D01*
X190369Y416691D01*
X192052Y418885D01*
X193110Y421439D01*
X193471Y424180D01*
X193110Y426921D01*
X192052Y429475D01*
X190369Y431669D01*
X188175Y433352D01*
X185621Y434410D01*
X182880Y434771D01*
X180139Y434410D01*
X177585Y433352D01*
X175391Y431669D01*
X173708Y429475D01*
X172650Y426921D01*
X172289Y424180D01*
X172650Y421439D01*
X173409Y419607D01*
X166969Y413167D01*
X166218Y412043D01*
X163534Y411571D01*
X163449Y411699D01*
X139408Y435740D01*
X140460Y438280D01*
X141810D01*
Y451181D01*
X149062Y458433D01*
X173237D01*
X174489Y455893D01*
D02*
G37*
G36*
X654304Y516636D02*
Y402844D01*
X654558Y401828D01*
X679450Y377063D01*
Y364683D01*
X679014Y364348D01*
X675761Y365046D01*
X675439Y365649D01*
X673189Y368390D01*
X670449Y370639D01*
X667322Y372310D01*
X663929Y373340D01*
X660400Y373687D01*
X656871Y373340D01*
X653478Y372310D01*
X650351Y370639D01*
X647610Y368390D01*
X645361Y365649D01*
X643690Y362522D01*
X642661Y359129D01*
X642313Y355600D01*
X642661Y352071D01*
X643690Y348678D01*
X645361Y345551D01*
X647610Y342811D01*
X650351Y340561D01*
X653478Y338890D01*
X656871Y337860D01*
X660400Y337513D01*
X663929Y337860D01*
X667322Y338890D01*
X670449Y340561D01*
X673189Y342811D01*
X675439Y345551D01*
X675761Y346154D01*
X679014Y346852D01*
X679450Y346516D01*
X679450Y85284D01*
X679014Y84948D01*
X675761Y85646D01*
X675439Y86249D01*
X673189Y88989D01*
X670449Y91239D01*
X667322Y92910D01*
X663929Y93940D01*
X660400Y94287D01*
X656871Y93940D01*
X653478Y92910D01*
X650351Y91239D01*
X647610Y88989D01*
X645361Y86249D01*
X643690Y83122D01*
X642661Y79729D01*
X642313Y76200D01*
X642661Y72671D01*
X643690Y69278D01*
X645361Y66151D01*
X647610Y63411D01*
X650351Y61161D01*
X653478Y59490D01*
X656871Y58460D01*
X660400Y58113D01*
X663929Y58460D01*
X667322Y59490D01*
X670449Y61161D01*
X673189Y63411D01*
X675439Y66151D01*
X675761Y66754D01*
X679014Y67452D01*
X679450Y67116D01*
Y52324D01*
X654558Y27432D01*
X653923Y26162D01*
Y6350D01*
X148784D01*
X148448Y6786D01*
X149146Y10039D01*
X149749Y10361D01*
X152490Y12610D01*
X154739Y15351D01*
X156410Y18478D01*
X157439Y21871D01*
X157787Y25400D01*
X157439Y28929D01*
X156410Y32322D01*
X158585Y33641D01*
X168658Y23568D01*
X170664Y22228D01*
X173030Y21757D01*
X179900D01*
Y13940D01*
X207900D01*
Y41940D01*
X179900D01*
Y34123D01*
X175591D01*
X143230Y66484D01*
X143355Y69021D01*
X144505Y69965D01*
X146942Y72934D01*
X148753Y76322D01*
X149868Y79997D01*
X150244Y83820D01*
X149868Y87643D01*
X148753Y91318D01*
X146942Y94706D01*
X144505Y97675D01*
X141536Y100112D01*
X138148Y101923D01*
X134473Y103038D01*
X130650Y103414D01*
X130556D01*
X128150Y105820D01*
X106150D01*
X103744Y103414D01*
X103650D01*
X99827Y103038D01*
X96152Y101923D01*
X92764Y100112D01*
X89795Y97675D01*
X87358Y94706D01*
X85547Y91318D01*
X84432Y87643D01*
X84056Y83820D01*
X84432Y79997D01*
X85547Y76322D01*
X87358Y72934D01*
X89795Y69965D01*
X92764Y67528D01*
X96152Y65717D01*
X99827Y64602D01*
X103650Y64226D01*
X103744D01*
X106150Y61820D01*
X128150D01*
X129278Y62948D01*
X147941Y44285D01*
X146622Y42110D01*
X143229Y43140D01*
X139700Y43487D01*
X136171Y43140D01*
X132778Y42110D01*
X129651Y40439D01*
X126910Y38189D01*
X124661Y35449D01*
X122990Y32322D01*
X121960Y28929D01*
X121613Y25400D01*
X121960Y21871D01*
X122990Y18478D01*
X124661Y15351D01*
X126910Y12610D01*
X129651Y10361D01*
X130253Y10039D01*
X130952Y6786D01*
X130616Y6350D01*
X6350D01*
Y288146D01*
X8890Y289198D01*
X11772Y286317D01*
X11258Y283511D01*
X10816Y282850D01*
X10661Y282069D01*
Y127000D01*
X10816Y126220D01*
X11258Y125558D01*
X11920Y125116D01*
X12700Y124961D01*
X101600D01*
X102380Y125116D01*
X103042Y125558D01*
X103484Y126220D01*
X103639Y127000D01*
Y135423D01*
X103619Y135523D01*
X103629Y135623D01*
X103542Y135910D01*
X103484Y136204D01*
X103428Y136288D01*
X103398Y136385D01*
X103208Y136616D01*
X103053Y136849D01*
X103134Y136970D01*
X103289Y137750D01*
Y138250D01*
X103134Y139030D01*
X102692Y139692D01*
X102030Y140134D01*
X101250Y140289D01*
X99919D01*
X99782Y140440D01*
X99532Y142980D01*
X99445Y143266D01*
X99387Y143560D01*
X99330Y143644D01*
X99301Y143741D01*
X99111Y143973D01*
X98945Y144222D01*
X98860Y144278D01*
X98796Y144356D01*
X98532Y144497D01*
X98283Y144664D01*
X98184Y144684D01*
X98095Y144731D01*
X97796Y144761D01*
X97503Y144819D01*
X95333D01*
Y156933D01*
X101600D01*
X102380Y157088D01*
X103042Y157530D01*
X103484Y158192D01*
X103639Y158972D01*
Y165754D01*
X119646D01*
Y181946D01*
X103639D01*
Y189008D01*
X119646D01*
Y191957D01*
X137314D01*
X139511Y189761D01*
X153095Y176176D01*
Y99060D01*
X153487Y97090D01*
X154603Y95421D01*
X162985Y87039D01*
X164654Y85923D01*
X166624Y85531D01*
X231717D01*
Y41940D01*
X223900D01*
Y13940D01*
X251900D01*
Y41940D01*
X244083D01*
Y90678D01*
Y96392D01*
X245270Y98440D01*
X263526D01*
X271947Y90019D01*
Y83583D01*
X271946Y83581D01*
X271232Y81858D01*
X270989Y80010D01*
X271232Y78162D01*
X271946Y76439D01*
X273081Y74960D01*
X274559Y73826D01*
X276282Y73112D01*
X278130Y72869D01*
X279978Y73112D01*
X281700Y73826D01*
X283179Y74960D01*
X284314Y76439D01*
X285028Y78162D01*
X285271Y80010D01*
X285028Y81858D01*
X284314Y83581D01*
X284313Y83583D01*
Y92580D01*
X283842Y94946D01*
X282502Y96952D01*
X265270Y114184D01*
Y132440D01*
X245270D01*
Y116724D01*
X233528Y104982D01*
X232188Y102976D01*
X231717Y100610D01*
Y95825D01*
X168756D01*
X163389Y101192D01*
Y108951D01*
X164169Y109633D01*
X165929Y110412D01*
X167062Y109942D01*
X168910Y109699D01*
X170758Y109942D01*
X171610Y110295D01*
X173728Y109221D01*
X174150Y108735D01*
Y98440D01*
X194150D01*
Y123061D01*
X208920Y137831D01*
X210710D01*
X212076Y138103D01*
X213233Y138877D01*
X214007Y140034D01*
X214279Y141400D01*
Y144400D01*
X214007Y145766D01*
X213233Y146923D01*
X212076Y147697D01*
X210710Y147969D01*
X207104D01*
X206710Y148047D01*
X199111D01*
Y155541D01*
X200977Y156846D01*
X201651Y157042D01*
X202710Y156831D01*
X210710D01*
X212076Y157103D01*
X213233Y157877D01*
X214007Y159034D01*
X214279Y160400D01*
Y163400D01*
X214007Y164766D01*
X213233Y165923D01*
X212076Y166697D01*
X210710Y166969D01*
X202710D01*
X201344Y166697D01*
X200318Y166011D01*
X197600D01*
X196027Y165698D01*
X194693Y164807D01*
X192093Y162207D01*
X191202Y160873D01*
X190889Y159300D01*
Y154404D01*
X190150Y152170D01*
X178150D01*
Y150869D01*
X175610Y150221D01*
X172093Y153738D01*
Y189200D01*
X177750D01*
Y195700D01*
Y202857D01*
X184860D01*
X186235Y203130D01*
X187401Y203909D01*
X187410Y203918D01*
X189230Y203679D01*
X191078Y203922D01*
X192801Y204636D01*
X194279Y205770D01*
X195414Y207250D01*
X196128Y208972D01*
X196371Y210820D01*
X196128Y212668D01*
X195414Y214391D01*
X194279Y215870D01*
X192801Y217004D01*
X191078Y217718D01*
X189230Y217961D01*
X187382Y217718D01*
X185660Y217004D01*
X184181Y215870D01*
X183046Y214391D01*
X182332Y212668D01*
X182089Y210820D01*
X181408Y210043D01*
X177750D01*
Y217200D01*
X172093D01*
Y222012D01*
X173238Y223157D01*
X240262D01*
X250836Y212583D01*
X250303Y210646D01*
X249874Y210043D01*
X221750D01*
Y210700D01*
X203250D01*
Y202200D01*
Y195700D01*
Y189200D01*
X212656D01*
X216533Y185323D01*
X216379Y184150D01*
X216622Y182302D01*
X217336Y180579D01*
X218470Y179100D01*
X219949Y177966D01*
X221672Y177252D01*
X223520Y177009D01*
X225368Y177252D01*
X227090Y177966D01*
X228570Y179100D01*
X229704Y180579D01*
X230418Y182302D01*
X230661Y184150D01*
X230418Y185998D01*
X229704Y187721D01*
X228570Y189200D01*
X227090Y190334D01*
X225368Y191048D01*
X223520Y191291D01*
X221750Y193502D01*
Y196357D01*
X232322D01*
X232741Y195731D01*
X239071Y189401D01*
X240740Y188285D01*
X242710Y187893D01*
X250123D01*
Y167170D01*
X249270D01*
Y167047D01*
X232710D01*
X232316Y166969D01*
X228710D01*
X227344Y166697D01*
X226187Y165923D01*
X225413Y164766D01*
X225141Y163400D01*
Y160400D01*
X225413Y159034D01*
X226187Y157877D01*
X227344Y157103D01*
X228710Y156831D01*
X232316D01*
X232710Y156753D01*
X249270D01*
Y155170D01*
X261270D01*
Y167170D01*
X260417D01*
Y188117D01*
X261454Y189470D01*
X262168Y191192D01*
X262411Y193040D01*
X262168Y194888D01*
X261493Y196518D01*
X262045Y197871D01*
X262894Y198907D01*
X272250D01*
X273625Y199181D01*
X274791Y199959D01*
X279960Y205129D01*
X282307Y204157D01*
Y105082D01*
X282620Y103509D01*
X283511Y102175D01*
X326089Y59597D01*
Y36521D01*
X325157Y36135D01*
X323068Y34532D01*
X321465Y32443D01*
X320457Y30010D01*
X320114Y27400D01*
Y23400D01*
X320457Y20789D01*
X321465Y18357D01*
X323068Y16268D01*
X325157Y14665D01*
X327589Y13657D01*
X330200Y13314D01*
X332811Y13657D01*
X335243Y14665D01*
X337332Y16268D01*
X338935Y18357D01*
X339943Y20789D01*
X340286Y23400D01*
Y27400D01*
X339943Y30010D01*
X338935Y32443D01*
X337332Y34532D01*
X335243Y36135D01*
X334311Y36521D01*
Y61300D01*
X333998Y62873D01*
X333107Y64207D01*
X290529Y106785D01*
Y114002D01*
X293069Y115254D01*
X293407Y114995D01*
X295840Y113987D01*
X298450Y113644D01*
X301061Y113987D01*
X303493Y114995D01*
X305582Y116598D01*
X307185Y118687D01*
X308193Y121119D01*
X308536Y123730D01*
Y127730D01*
X308193Y130340D01*
X307185Y132773D01*
X305582Y134862D01*
X303493Y136465D01*
X302561Y136851D01*
Y164247D01*
X314407Y176093D01*
X315298Y177427D01*
X315611Y179000D01*
Y190446D01*
X318151Y191698D01*
X318807Y191195D01*
X321240Y190187D01*
X323850Y189844D01*
X326460Y190187D01*
X328893Y191195D01*
X330153Y192162D01*
X332693Y191068D01*
Y188139D01*
X320943Y176389D01*
X320052Y175055D01*
X319739Y173482D01*
Y136851D01*
X318807Y136465D01*
X316718Y134862D01*
X315115Y132773D01*
X314107Y130340D01*
X313764Y127730D01*
Y123730D01*
X314107Y121119D01*
X315115Y118687D01*
X316718Y116598D01*
X318807Y114995D01*
X321240Y113987D01*
X323850Y113644D01*
X326460Y113987D01*
X328893Y114995D01*
X330982Y116598D01*
X332585Y118687D01*
X333593Y121119D01*
X333936Y123730D01*
Y127730D01*
X333593Y130340D01*
X332585Y132773D01*
X330982Y134862D01*
X328893Y136465D01*
X327961Y136851D01*
Y171779D01*
X339711Y183529D01*
X340602Y184863D01*
X340915Y186436D01*
Y190519D01*
X343455Y191772D01*
X344207Y191195D01*
X346640Y190187D01*
X349250Y189844D01*
X351861Y190187D01*
X354293Y191195D01*
X355099Y191813D01*
X357639Y190561D01*
Y180319D01*
X346343Y169023D01*
X345452Y167689D01*
X345139Y166116D01*
Y136851D01*
X344207Y136465D01*
X342118Y134862D01*
X340515Y132773D01*
X339507Y130340D01*
X339164Y127730D01*
Y123730D01*
X339507Y121119D01*
X340515Y118687D01*
X342118Y116598D01*
X344207Y114995D01*
X346640Y113987D01*
X349250Y113644D01*
X351861Y113987D01*
X354293Y114995D01*
X356382Y116598D01*
X357985Y118687D01*
X358993Y121119D01*
X359336Y123730D01*
Y127730D01*
X358993Y130340D01*
X357985Y132773D01*
X356382Y134862D01*
X354293Y136465D01*
X353361Y136851D01*
Y164413D01*
X364657Y175709D01*
X365548Y177043D01*
X365861Y178616D01*
Y190975D01*
X368401Y192120D01*
X369607Y191195D01*
X372039Y190187D01*
X374650Y189844D01*
X377261Y190187D01*
X379693Y191195D01*
X381782Y192798D01*
X383385Y194887D01*
X384393Y197320D01*
X384736Y199930D01*
Y203930D01*
X384393Y206541D01*
X383385Y208973D01*
X381782Y211062D01*
X379693Y212665D01*
X377261Y213673D01*
X374650Y214016D01*
X372039Y213673D01*
X369607Y212665D01*
X368401Y211740D01*
X365861Y212885D01*
Y276641D01*
X366791Y277026D01*
X368270Y278160D01*
X369404Y279639D01*
X370118Y281362D01*
X370361Y283210D01*
X370118Y285058D01*
X369404Y286780D01*
X368270Y288260D01*
X366791Y289394D01*
X365068Y290108D01*
X363220Y290351D01*
X361372Y290108D01*
X359650Y289394D01*
X358171Y288260D01*
X357036Y286780D01*
X356322Y285058D01*
X356079Y283210D01*
X356322Y281362D01*
X357036Y279639D01*
X357639Y278853D01*
Y213299D01*
X355099Y212047D01*
X354293Y212665D01*
X351861Y213673D01*
X349250Y214016D01*
X346640Y213673D01*
X344207Y212665D01*
X343455Y212088D01*
X340915Y213341D01*
Y256063D01*
X341464Y256779D01*
X342178Y258502D01*
X342421Y260350D01*
X342178Y262198D01*
X341464Y263920D01*
X340330Y265399D01*
X338851Y266534D01*
X337128Y267248D01*
X335280Y267491D01*
X333432Y267248D01*
X331710Y266534D01*
X330230Y265399D01*
X329096Y263920D01*
X328382Y262198D01*
X328139Y260350D01*
X328382Y258502D01*
X328953Y257123D01*
X328209Y255991D01*
X327077Y255247D01*
X325698Y255818D01*
X323850Y256061D01*
X322002Y255818D01*
X320280Y255104D01*
X318801Y253969D01*
X317666Y252491D01*
X317463Y252000D01*
X314675Y251296D01*
X314562Y251322D01*
X299291Y266592D01*
X300264Y268939D01*
X328422D01*
X329995Y269252D01*
X331329Y270143D01*
X354763Y293577D01*
X407859D01*
X462093Y239343D01*
X463427Y238452D01*
X465000Y238139D01*
X479295D01*
X480347Y235599D01*
X471878Y227130D01*
X470538Y225124D01*
X470067Y222758D01*
Y211791D01*
X469118Y211062D01*
X467515Y208973D01*
X466507Y206541D01*
X466164Y203930D01*
Y199930D01*
X466507Y197320D01*
X467515Y194887D01*
X469118Y192798D01*
X470067Y192069D01*
Y179599D01*
X458449Y167981D01*
X439928D01*
X437562Y167510D01*
X435556Y166170D01*
X421078Y151692D01*
X419738Y149686D01*
X419267Y147320D01*
Y135590D01*
X418318Y134862D01*
X416715Y132773D01*
X415707Y130340D01*
X415364Y127730D01*
Y123730D01*
X415707Y121119D01*
X416715Y118687D01*
X418318Y116598D01*
X420407Y114995D01*
X420657Y114891D01*
Y104140D01*
Y75579D01*
X415269Y70191D01*
X392176D01*
X389810Y69720D01*
X387804Y68380D01*
X376628Y57204D01*
X375288Y55198D01*
X374817Y52832D01*
Y35261D01*
X373868Y34532D01*
X372265Y32443D01*
X371257Y30010D01*
X370914Y27400D01*
Y23400D01*
X371257Y20789D01*
X372265Y18357D01*
X373868Y16268D01*
X375957Y14665D01*
X378390Y13657D01*
X381000Y13314D01*
X383610Y13657D01*
X386043Y14665D01*
X388132Y16268D01*
X389735Y18357D01*
X390743Y20789D01*
X391086Y23400D01*
Y27400D01*
X390743Y30010D01*
X389735Y32443D01*
X388132Y34532D01*
X387183Y35261D01*
Y50271D01*
X394737Y57825D01*
X417830D01*
X420196Y58296D01*
X422202Y59636D01*
X431212Y68646D01*
X431212Y68646D01*
X432552Y70652D01*
X433023Y73018D01*
Y104140D01*
Y117172D01*
X434185Y118687D01*
X435193Y121119D01*
X435536Y123730D01*
Y127730D01*
X435193Y130340D01*
X434185Y132773D01*
X432582Y134862D01*
X431633Y135590D01*
Y144759D01*
X442489Y155615D01*
X461010D01*
X463376Y156086D01*
X465382Y157426D01*
X480622Y172666D01*
X481962Y174672D01*
X482433Y177038D01*
Y192069D01*
X483382Y192798D01*
X484985Y194887D01*
X485993Y197320D01*
X486336Y199930D01*
Y203930D01*
X485993Y206541D01*
X484985Y208973D01*
X483382Y211062D01*
X482433Y211791D01*
Y220197D01*
X488303Y226067D01*
X598772D01*
X601138Y226538D01*
X603144Y227878D01*
X624132Y248866D01*
X624225Y249005D01*
X627091Y248723D01*
X627098Y248705D01*
X628781Y246511D01*
X630975Y244828D01*
X632159Y244338D01*
Y228525D01*
X625743Y222109D01*
X624852Y220775D01*
X624539Y219202D01*
Y213930D01*
X618650D01*
Y189930D01*
X638650D01*
Y213930D01*
X632761D01*
Y217499D01*
X639177Y223915D01*
X640068Y225249D01*
X640381Y226822D01*
Y244338D01*
X641565Y244828D01*
X643759Y246511D01*
X645442Y248705D01*
X646500Y251259D01*
X646861Y254000D01*
X646500Y256741D01*
X645442Y259295D01*
X643759Y261489D01*
X641565Y263172D01*
X639011Y264230D01*
X636270Y264591D01*
X633529Y264230D01*
X630975Y263172D01*
X628781Y261489D01*
X628483Y261100D01*
X625943Y261962D01*
Y271438D01*
X628483Y272300D01*
X628781Y271911D01*
X630975Y270228D01*
X633529Y269170D01*
X636270Y268809D01*
X639011Y269170D01*
X641565Y270228D01*
X643759Y271911D01*
X645442Y274105D01*
X646500Y276659D01*
X646861Y279400D01*
X646500Y282141D01*
X645442Y284695D01*
X643759Y286889D01*
X641565Y288572D01*
X639011Y289630D01*
X636270Y289991D01*
X633529Y289630D01*
X630975Y288572D01*
X628781Y286889D01*
X628483Y286500D01*
X625943Y287362D01*
Y296838D01*
X628483Y297700D01*
X628781Y297311D01*
X630975Y295628D01*
X633529Y294570D01*
X636270Y294209D01*
X639011Y294570D01*
X641565Y295628D01*
X643759Y297311D01*
X645442Y299505D01*
X646500Y302059D01*
X646861Y304800D01*
X646500Y307541D01*
X645442Y310095D01*
X643759Y312289D01*
X641565Y313972D01*
X639011Y315030D01*
X636270Y315391D01*
X633529Y315030D01*
X630975Y313972D01*
X628781Y312289D01*
X628483Y311900D01*
X625943Y312762D01*
Y315937D01*
X631483Y321477D01*
X651235D01*
X655487Y317225D01*
Y313291D01*
X654181Y312289D01*
X652498Y310095D01*
X651440Y307541D01*
X651079Y304800D01*
X651440Y302059D01*
X652498Y299505D01*
X654181Y297311D01*
X656375Y295628D01*
X658929Y294570D01*
X661670Y294209D01*
X664411Y294570D01*
X666965Y295628D01*
X669159Y297311D01*
X670842Y299505D01*
X671900Y302059D01*
X672261Y304800D01*
X671900Y307541D01*
X670842Y310095D01*
X669159Y312289D01*
X667853Y313291D01*
Y319786D01*
X667382Y322152D01*
X666042Y324158D01*
X658168Y332032D01*
X656162Y333372D01*
X653796Y333843D01*
X632515D01*
Y337548D01*
X632242Y338923D01*
X631463Y340089D01*
X627191Y344361D01*
X626025Y345140D01*
X624650Y345413D01*
X604303D01*
Y346964D01*
X604030Y348339D01*
X603251Y349505D01*
X600395Y352361D01*
X599229Y353139D01*
X597854Y353413D01*
X596200D01*
Y354320D01*
X585700D01*
Y345320D01*
Y337320D01*
Y329320D01*
Y321320D01*
X586839D01*
Y316301D01*
X584275Y313737D01*
X572190D01*
X571469Y314676D01*
X569991Y315810D01*
X568268Y316524D01*
X566420Y316767D01*
X564572Y316524D01*
X562850Y315810D01*
X561371Y314676D01*
X560236Y313197D01*
X559522Y311474D01*
X559279Y309626D01*
X559522Y307778D01*
X560236Y306056D01*
X561371Y304576D01*
X562850Y303442D01*
X564572Y302728D01*
X566420Y302485D01*
X568268Y302728D01*
X569991Y303442D01*
X571469Y304576D01*
X572190Y305515D01*
X582334D01*
X583360Y303400D01*
Y285400D01*
X605360D01*
Y288217D01*
X613577D01*
Y255799D01*
X603779Y246001D01*
X601373Y247187D01*
X601501Y248158D01*
X601258Y250006D01*
X600544Y251728D01*
X599676Y252860D01*
X600010Y254209D01*
X600725Y255400D01*
X605360D01*
Y273400D01*
X583360D01*
Y255400D01*
X587995D01*
X588710Y254209D01*
X589044Y252860D01*
X588176Y251728D01*
X587462Y250006D01*
X587219Y248158D01*
X585024Y246361D01*
X471743D01*
X471576Y248901D01*
X472383Y249007D01*
X474105Y249721D01*
X475584Y250856D01*
X476719Y252334D01*
X477433Y254057D01*
X477676Y255905D01*
X477433Y257753D01*
X476719Y259475D01*
X475584Y260954D01*
X474105Y262089D01*
X472383Y262803D01*
X470535Y263046D01*
X468687Y262803D01*
X466964Y262089D01*
X465485Y260954D01*
X465409Y260949D01*
X461943Y264415D01*
X462995Y266955D01*
X482059D01*
X483845Y265105D01*
X483678Y262541D01*
X483265Y262225D01*
X482131Y260746D01*
X481417Y259023D01*
X481174Y257175D01*
X481417Y255327D01*
X482131Y253605D01*
X483265Y252125D01*
X484744Y250991D01*
X486467Y250277D01*
X488315Y250034D01*
X490163Y250277D01*
X491885Y250991D01*
X493364Y252125D01*
X494499Y253605D01*
X495213Y255327D01*
X495456Y257175D01*
X495213Y259023D01*
X494499Y260746D01*
X493364Y262225D01*
X491908Y263342D01*
Y266349D01*
X491634Y267724D01*
X490856Y268890D01*
X486657Y273089D01*
X485491Y273867D01*
X484116Y274141D01*
X462544D01*
X421724Y314961D01*
X420558Y315739D01*
X419183Y316013D01*
X335097D01*
X333979Y317470D01*
X332500Y318604D01*
X330778Y319318D01*
X328930Y319561D01*
X327082Y319318D01*
X325359Y318604D01*
X323881Y317470D01*
X322746Y315991D01*
X322032Y314268D01*
X321789Y312420D01*
X322032Y310572D01*
X322292Y309944D01*
X321092Y308470D01*
X320382Y307919D01*
X318770Y308131D01*
X316922Y307888D01*
X315200Y307174D01*
X313720Y306040D01*
X312586Y304561D01*
X311872Y302838D01*
X311629Y300990D01*
X311872Y299142D01*
X312586Y297419D01*
X313720Y295940D01*
X315200Y294806D01*
X316922Y294092D01*
X318770Y293849D01*
X320618Y294092D01*
X322341Y294806D01*
X323820Y295940D01*
X324937Y297397D01*
X343637D01*
X344608Y295050D01*
X326719Y277161D01*
X294862D01*
Y280158D01*
X301087Y286383D01*
X302260Y286229D01*
X304108Y286472D01*
X305830Y287186D01*
X307309Y288321D01*
X308444Y289799D01*
X309158Y291522D01*
X309401Y293370D01*
X309158Y295218D01*
X308444Y296940D01*
X307309Y298419D01*
X305830Y299554D01*
X304108Y300268D01*
X302260Y300511D01*
X300412Y300268D01*
X298689Y299554D01*
X297211Y298419D01*
X296076Y296940D01*
X295362Y295218D01*
X292900Y295647D01*
Y304450D01*
X280900D01*
Y299357D01*
X280440Y299049D01*
X277900Y300407D01*
Y304450D01*
X265900D01*
X265900Y304450D01*
X263360Y304090D01*
X262651Y304634D01*
X260928Y305348D01*
X259080Y305591D01*
X257232Y305348D01*
X255509Y304634D01*
X253031Y305934D01*
Y310127D01*
X253753Y310849D01*
X265900D01*
Y308960D01*
X277900D01*
Y320960D01*
X279915Y322227D01*
X572200D01*
Y321320D01*
X582700D01*
Y329320D01*
Y337320D01*
Y345320D01*
Y354320D01*
X572200D01*
Y353154D01*
X568475D01*
X567542Y355338D01*
X569102Y357260D01*
X580200D01*
Y374260D01*
X565200D01*
Y362975D01*
X560252Y358027D01*
X559530Y356946D01*
X559276Y355670D01*
Y344170D01*
X559530Y342894D01*
X560252Y341813D01*
X562112Y339953D01*
X561586Y338029D01*
X561150Y337413D01*
X536320D01*
X534945Y337140D01*
X533779Y336361D01*
X532632Y335214D01*
X298400D01*
Y345319D01*
X303748Y350667D01*
X310318D01*
X311693Y350941D01*
X312859Y351719D01*
X322327Y361187D01*
X323106Y362353D01*
X323379Y363728D01*
Y385826D01*
X323106Y387201D01*
X322327Y388367D01*
X310453Y400241D01*
X309287Y401020D01*
X309184Y401040D01*
X308090Y403658D01*
X308098Y403756D01*
X308565Y404345D01*
X308610Y404339D01*
X310458Y404582D01*
X312181Y405296D01*
X313659Y406431D01*
X314794Y407910D01*
X315508Y409632D01*
X315751Y411480D01*
X315508Y413328D01*
X314794Y415051D01*
X313659Y416530D01*
X312181Y417664D01*
X310458Y418378D01*
X308610Y418621D01*
X306762Y418378D01*
X305040Y417664D01*
X303561Y416530D01*
X302426Y415051D01*
X301712Y413328D01*
X301469Y411480D01*
X299211Y409293D01*
X291400D01*
Y410200D01*
X280900D01*
Y401200D01*
Y393200D01*
Y385200D01*
X291400D01*
Y386107D01*
X305534D01*
X309589Y382052D01*
Y372836D01*
X306106Y369353D01*
X298400D01*
Y374260D01*
X283400D01*
Y357260D01*
X296587D01*
X297639Y354720D01*
X294319Y351400D01*
X283400D01*
Y335214D01*
X275400D01*
Y351400D01*
X260400D01*
Y346363D01*
X247650D01*
X246325Y346100D01*
X245201Y345349D01*
X241764Y341912D01*
X241703Y341925D01*
X240867Y344681D01*
X257860Y361674D01*
X260400Y360793D01*
Y357260D01*
X275400D01*
Y374260D01*
X260944D01*
X260695Y374437D01*
X260557Y375796D01*
X262770Y378237D01*
X267400D01*
Y377200D01*
X277900D01*
Y385200D01*
Y393200D01*
Y401200D01*
Y410200D01*
X267400D01*
X267037Y411007D01*
X268416Y413140D01*
X275400D01*
Y430140D01*
X260400D01*
Y430067D01*
X258053Y429095D01*
X257199Y429949D01*
X256075Y430700D01*
X254750Y430964D01*
X253425Y430700D01*
X252301Y429949D01*
X251550Y428825D01*
X251287Y427500D01*
Y416250D01*
X251346Y415951D01*
X250877Y414973D01*
X249921Y413761D01*
X249482Y413448D01*
X248342Y413298D01*
X246619Y412584D01*
X245140Y411450D01*
X245018Y411289D01*
X242477Y412151D01*
Y439986D01*
X242214Y441311D01*
X241463Y442435D01*
X227342Y456556D01*
X227713Y458282D01*
X228184Y459306D01*
X229631Y459906D01*
X231110Y461040D01*
X232244Y462519D01*
X232958Y464242D01*
X233201Y466090D01*
X232958Y467938D01*
X232244Y469660D01*
X231110Y471139D01*
X229631Y472274D01*
X229524Y472319D01*
Y483690D01*
X229260Y485015D01*
X228509Y486139D01*
X221699Y492949D01*
X220575Y493700D01*
X219250Y493964D01*
X217070D01*
X216565Y496504D01*
X218403Y497265D01*
X220492Y498868D01*
X222095Y500957D01*
X223103Y503390D01*
X223446Y506000D01*
Y510000D01*
X223103Y512611D01*
X222095Y515043D01*
X220492Y517132D01*
X218403Y518735D01*
X215970Y519743D01*
X213360Y520086D01*
X210749Y519743D01*
X208317Y518735D01*
X206228Y517132D01*
X204625Y515043D01*
X203617Y512611D01*
X203274Y510000D01*
Y506000D01*
X203617Y503390D01*
X204625Y500957D01*
X206228Y498868D01*
X208317Y497265D01*
X210155Y496504D01*
X209650Y493964D01*
X191670D01*
X191165Y496504D01*
X193003Y497265D01*
X195092Y498868D01*
X196695Y500957D01*
X197703Y503390D01*
X198046Y506000D01*
Y510000D01*
X197703Y512611D01*
X196695Y515043D01*
X195092Y517132D01*
X193003Y518735D01*
X190571Y519743D01*
X187960Y520086D01*
X185350Y519743D01*
X182917Y518735D01*
X180828Y517132D01*
X179225Y515043D01*
X178217Y512611D01*
X177874Y510000D01*
Y506000D01*
X178217Y503390D01*
X179225Y500957D01*
X180828Y498868D01*
X182917Y497265D01*
X184755Y496504D01*
X184250Y493964D01*
X167452D01*
X166251Y496504D01*
X167439Y497951D01*
X169110Y501078D01*
X170140Y504471D01*
X170487Y508000D01*
X170140Y511529D01*
X169110Y514922D01*
X167439Y518049D01*
X165189Y520789D01*
X162449Y523039D01*
X161847Y523361D01*
X161148Y526614D01*
X161484Y527050D01*
X643890Y527050D01*
X654304Y516636D01*
D02*
G37*
G36*
X245140Y401351D02*
X246619Y400216D01*
X248342Y399502D01*
X250190Y399259D01*
X252038Y399502D01*
X253761Y400216D01*
X254860Y401059D01*
X256657Y399262D01*
Y393250D01*
X256931Y391875D01*
X257709Y390709D01*
X260715Y387704D01*
X260065Y385559D01*
X259771Y385163D01*
X256950D01*
X255625Y384900D01*
X254501Y384149D01*
X253186Y382834D01*
X251460Y383061D01*
X249612Y382818D01*
X247889Y382104D01*
X246411Y380970D01*
X245276Y379491D01*
X245018Y378867D01*
X242477Y379373D01*
Y400648D01*
X245018Y401511D01*
X245140Y401351D01*
D02*
G37*
G36*
X230725Y400810D02*
Y372783D01*
X228192Y370250D01*
X220390D01*
Y379250D01*
X222135Y381067D01*
X226985Y385917D01*
X227736Y387041D01*
X227999Y388366D01*
Y402107D01*
X228185Y402221D01*
X230725Y400810D01*
D02*
G37*
G36*
X218390Y363250D02*
Y358250D01*
Y353250D01*
Y348250D01*
Y343250D01*
Y338250D01*
Y333250D01*
Y330250D01*
X195354D01*
Y340315D01*
X201839Y346801D01*
X202590Y347925D01*
X202854Y349250D01*
X202590Y350575D01*
X201839Y351699D01*
X200715Y352450D01*
X199390Y352714D01*
X198065Y352450D01*
X196941Y351699D01*
X189441Y344199D01*
X188690Y343075D01*
X188426Y341750D01*
Y330250D01*
X180390D01*
Y333250D01*
Y338250D01*
Y343250D01*
Y348250D01*
Y353250D01*
Y358250D01*
Y363250D01*
Y368250D01*
X218390D01*
Y363250D01*
D02*
G37*
G36*
X130000Y342006D02*
Y329550D01*
X128549Y327611D01*
X125451D01*
X124000Y329550D01*
Y343550D01*
X114300D01*
Y350424D01*
X116270Y351800D01*
X120206D01*
X130000Y342006D01*
D02*
G37*
G36*
X625329Y336060D02*
Y332552D01*
X624550Y332032D01*
X615388Y322870D01*
X615308Y322750D01*
X613057Y323954D01*
X613196Y324288D01*
X613439Y326136D01*
X613196Y327984D01*
X612482Y329706D01*
X611348Y331185D01*
X609869Y332320D01*
X608146Y333034D01*
X606298Y333277D01*
X605125Y333123D01*
X602561Y335687D01*
X603613Y338227D01*
X623162D01*
X625329Y336060D01*
D02*
G37*
G36*
X97389Y300489D02*
X58688D01*
X58317Y300415D01*
X57944Y300348D01*
X57927Y300338D01*
X57908Y300334D01*
X57593Y300124D01*
X57274Y299919D01*
X57263Y299903D01*
X57246Y299892D01*
X57036Y299577D01*
X56820Y299266D01*
X56815Y299247D01*
X56804Y299230D01*
X56730Y298859D01*
X56649Y298489D01*
X56601Y295969D01*
X54190Y295930D01*
X22640D01*
Y295930D01*
X20523Y295053D01*
X17359Y298217D01*
Y304800D01*
X28739D01*
X30936Y303626D01*
X34423Y302568D01*
X38050Y302211D01*
X41677Y302568D01*
X45164Y303626D01*
X47361Y304800D01*
X97389D01*
Y300489D01*
D02*
G37*
G36*
X599261Y325347D02*
X599400Y324288D01*
X600114Y322565D01*
X601249Y321087D01*
X602728Y319952D01*
X604450Y319238D01*
X606298Y318995D01*
X608146Y319238D01*
X609869Y319952D01*
X611348Y321087D01*
X611557Y321359D01*
X613932Y320282D01*
X613577Y318498D01*
Y300583D01*
X605360D01*
Y303400D01*
X589171D01*
X587694Y305755D01*
X587719Y305940D01*
X588885Y306719D01*
X593857Y311691D01*
X594748Y313025D01*
X595061Y314598D01*
Y321320D01*
X596200D01*
Y324523D01*
X596220Y324556D01*
X598740Y325765D01*
X599261Y325347D01*
D02*
G37*
G36*
X177300Y327895D02*
X178180Y325710D01*
X177990Y324750D01*
Y310545D01*
X178253Y309219D01*
X179004Y308096D01*
X179536Y307563D01*
Y302410D01*
X178000D01*
Y300021D01*
X173520D01*
Y301910D01*
X161520D01*
Y289910D01*
X163409D01*
Y278443D01*
X161923Y276957D01*
X161032Y275623D01*
X160719Y274050D01*
Y273079D01*
X158698Y272242D01*
X156157Y270293D01*
X154208Y267752D01*
X152983Y264794D01*
X152565Y261620D01*
X152983Y258446D01*
X154208Y255487D01*
X156157Y252947D01*
X158698Y250998D01*
X161656Y249773D01*
X164830Y249355D01*
X168004Y249773D01*
X170963Y250998D01*
X173503Y252947D01*
X175452Y255487D01*
X176677Y258446D01*
X177095Y261620D01*
X176677Y264794D01*
X175452Y267752D01*
X173503Y270293D01*
X171791Y271606D01*
X171007Y272885D01*
X171149Y274914D01*
X171318Y275167D01*
X171631Y276740D01*
Y289910D01*
X173520D01*
Y291799D01*
X178000D01*
Y289410D01*
X188000D01*
Y297693D01*
X190347Y298665D01*
X193000Y296012D01*
Y289410D01*
X203000D01*
Y291799D01*
X208750D01*
Y289910D01*
X209519D01*
Y273079D01*
X207498Y272242D01*
X204957Y270293D01*
X203008Y267752D01*
X201783Y264794D01*
X201365Y261620D01*
X201783Y258446D01*
X203008Y255487D01*
X204957Y252947D01*
X207498Y250998D01*
X210456Y249773D01*
X213630Y249355D01*
X216804Y249773D01*
X219762Y250998D01*
X222303Y252947D01*
X224252Y255487D01*
X225477Y258446D01*
X225895Y261620D01*
X225477Y264794D01*
X224252Y267752D01*
X222303Y270293D01*
X219762Y272242D01*
X217741Y273079D01*
Y289910D01*
X220750D01*
Y301910D01*
X220750D01*
X220908Y304384D01*
X226149D01*
X226286Y304247D01*
Y295910D01*
X226550Y294585D01*
X227301Y293461D01*
X228424Y292710D01*
X229750Y292446D01*
X231075Y292710D01*
X232199Y293461D01*
X232950Y294585D01*
X233214Y295910D01*
Y305682D01*
X232950Y307008D01*
X232199Y308131D01*
X231713Y308617D01*
X232765Y311157D01*
X244120D01*
X244427Y310952D01*
X244809Y310876D01*
Y282630D01*
X243871Y281910D01*
X242736Y280431D01*
X242022Y278708D01*
X241779Y276860D01*
X242022Y275012D01*
X242736Y273290D01*
X243871Y271810D01*
X244809Y271090D01*
Y268080D01*
X245122Y266507D01*
X246013Y265173D01*
X256375Y254811D01*
X256402Y254091D01*
X255665Y251929D01*
X254748Y251548D01*
X253269Y250413D01*
X252134Y248934D01*
X251420Y247212D01*
X251177Y245364D01*
X251420Y243516D01*
X252134Y241793D01*
X253269Y240315D01*
X254748Y239180D01*
X256470Y238466D01*
X258318Y238223D01*
X260166Y238466D01*
X261856Y239166D01*
X267400D01*
Y238260D01*
X277900D01*
Y238260D01*
X280440Y239403D01*
X280900Y239095D01*
Y230260D01*
Y222260D01*
X282557D01*
Y218710D01*
X278889Y215042D01*
X276207Y215952D01*
X276138Y216478D01*
X275424Y218200D01*
X274289Y219680D01*
X274237Y219720D01*
X275099Y222260D01*
X277900D01*
Y231260D01*
X267400D01*
Y230353D01*
X253228D01*
X247541Y236041D01*
X246375Y236819D01*
X245000Y237093D01*
X164000D01*
X162625Y236819D01*
X161459Y236041D01*
X146959Y221541D01*
X146180Y220375D01*
X145907Y219000D01*
Y201514D01*
X143916Y199913D01*
X143085Y200743D01*
X141416Y201859D01*
X139446Y202251D01*
X119646D01*
Y205200D01*
X103639D01*
Y223571D01*
X106179Y223821D01*
X106202Y223707D01*
X107093Y222373D01*
X111758Y217708D01*
X111604Y216535D01*
X111847Y214687D01*
X112561Y212964D01*
X113695Y211486D01*
X115175Y210351D01*
X116897Y209637D01*
X118745Y209394D01*
X120593Y209637D01*
X122316Y210351D01*
X123794Y211486D01*
X124929Y212964D01*
X125643Y214687D01*
X125886Y216535D01*
X125643Y218383D01*
X124929Y220105D01*
X123794Y221584D01*
X122316Y222719D01*
X120593Y223433D01*
X118745Y223676D01*
X117572Y223522D01*
X114111Y226983D01*
Y245000D01*
X113798Y246573D01*
X112907Y247907D01*
X102035Y258779D01*
X102072Y259935D01*
X102676Y261418D01*
X103753Y261632D01*
X105087Y262523D01*
X111657Y269093D01*
X112548Y270427D01*
X112861Y272000D01*
Y284500D01*
X112548Y286073D01*
X111657Y287407D01*
X109154Y289910D01*
X110206Y292450D01*
X119150D01*
Y302144D01*
X121479Y304588D01*
X122021Y304551D01*
X122150Y304184D01*
X122150Y302461D01*
Y292450D01*
X134150D01*
Y304450D01*
X124580D01*
X124515Y304450D01*
X124514Y304450D01*
X124466D01*
X123467Y304519D01*
X122976Y306990D01*
X124221Y307506D01*
X125573Y308543D01*
X140690D01*
X142660Y308935D01*
X144329Y310051D01*
X145445Y311720D01*
X145671Y312857D01*
X150453Y317639D01*
X157500D01*
X159073Y317952D01*
X160407Y318843D01*
X161298Y320177D01*
X161416Y320767D01*
X167450Y326802D01*
X169390Y328250D01*
X177114D01*
X177300Y327895D01*
D02*
G37*
G36*
X265900Y292450D02*
Y292450D01*
X272500D01*
X273472Y290103D01*
X269239Y285871D01*
X268461Y284705D01*
X268187Y283330D01*
Y283051D01*
X263938D01*
Y263049D01*
X282039D01*
Y255310D01*
X281982Y255260D01*
X280900D01*
Y255260D01*
X278360Y254869D01*
X277900Y255176D01*
Y255260D01*
X267554D01*
X253916Y268898D01*
X253969Y271810D01*
X255104Y273290D01*
X255818Y275012D01*
X256061Y276860D01*
X255818Y278708D01*
X255104Y280431D01*
X253969Y281910D01*
X253031Y282630D01*
Y290966D01*
X255509Y292266D01*
X257232Y291552D01*
X259080Y291309D01*
X260928Y291552D01*
X262651Y292266D01*
X263360Y292810D01*
X265900Y292450D01*
D02*
G37*
G36*
X97389Y291750D02*
X97702Y290177D01*
X98593Y288843D01*
X101600Y285836D01*
Y270664D01*
X100477Y269541D01*
X97573D01*
X97486Y269633D01*
X96448Y272081D01*
X97035Y272960D01*
X97427Y274930D01*
X97035Y276900D01*
X95919Y278569D01*
X82559Y291929D01*
X80890Y293045D01*
X78920Y293437D01*
X69850D01*
X67880Y293045D01*
X66211Y291929D01*
X65095Y290260D01*
X64703Y288290D01*
X65095Y286320D01*
X66211Y284651D01*
X67880Y283535D01*
X69850Y283143D01*
X76788D01*
X87850Y272081D01*
X86798Y269541D01*
X79280D01*
Y272430D01*
X61280D01*
Y265174D01*
X50036Y253930D01*
X22640D01*
Y234930D01*
X58640D01*
Y245046D01*
X72024Y258430D01*
X79280D01*
Y261319D01*
X83280D01*
Y248930D01*
X100256D01*
X101600Y247586D01*
Y205200D01*
X93294D01*
Y189008D01*
X101600D01*
Y180991D01*
X47470D01*
X45622Y180748D01*
X43899Y180034D01*
X42421Y178899D01*
X41286Y177421D01*
X40572Y175698D01*
X40329Y173850D01*
X40572Y172002D01*
X41286Y170280D01*
X42421Y168801D01*
X43899Y167666D01*
X45622Y166952D01*
X47470Y166709D01*
X101600D01*
Y158972D01*
X93294D01*
Y142780D01*
X97503D01*
X97753Y140240D01*
X97220Y140134D01*
X96558Y139692D01*
X96116Y139030D01*
X95961Y138250D01*
Y137750D01*
X96116Y136970D01*
X96558Y136308D01*
X97220Y135866D01*
X98000Y135711D01*
X101250D01*
X101600Y135423D01*
Y127000D01*
X12700D01*
Y282069D01*
X15047Y283041D01*
X16030Y282058D01*
X18036Y280718D01*
X20402Y280247D01*
X22640D01*
Y276930D01*
X58640D01*
Y295930D01*
X58640D01*
X58688Y298450D01*
X97389D01*
Y291750D01*
D02*
G37*
G36*
X308639Y245617D02*
Y236949D01*
X300056Y228366D01*
X299580Y228435D01*
X297593Y229495D01*
Y232000D01*
X297320Y233375D01*
X296541Y234541D01*
X293781Y237301D01*
X292615Y238079D01*
X291400Y238321D01*
Y246260D01*
Y255260D01*
X290261D01*
Y260403D01*
X292801Y261455D01*
X308639Y245617D01*
D02*
G37*
G36*
X332693Y245131D02*
Y212792D01*
X330153Y211698D01*
X328893Y212665D01*
X326460Y213673D01*
X323850Y214016D01*
X321240Y213673D01*
X318807Y212665D01*
X318151Y212162D01*
X315611Y213414D01*
Y217797D01*
X326757Y228943D01*
X327648Y230277D01*
X327961Y231850D01*
Y243150D01*
X328899Y243871D01*
X330034Y245350D01*
X330153Y245636D01*
X332693Y245131D01*
D02*
G37*
G36*
X307194Y191311D02*
X307389Y191131D01*
Y180703D01*
X295543Y168857D01*
X294652Y167523D01*
X294339Y165950D01*
Y138317D01*
X293069Y137569D01*
X290529Y139021D01*
Y190202D01*
X293069Y191454D01*
X293407Y191195D01*
X295840Y190187D01*
X298450Y189844D01*
X301061Y190187D01*
X303493Y191195D01*
X304849Y192235D01*
X307194Y191311D01*
D02*
G37*
G36*
X165959Y149709D02*
X172039Y143629D01*
X173205Y142851D01*
X174580Y142577D01*
X178150D01*
Y140170D01*
X182871D01*
X183781Y139261D01*
X185450Y138145D01*
X187420Y137753D01*
X190966D01*
X191938Y135406D01*
X188971Y132440D01*
X174150D01*
Y124945D01*
X173728Y124459D01*
X171610Y123385D01*
X170758Y123738D01*
X168910Y123981D01*
X167062Y123738D01*
X165929Y123268D01*
X164169Y124047D01*
X163389Y124729D01*
Y148984D01*
X165929Y149755D01*
X165959Y149709D01*
D02*
G37*
%LPC*%
G36*
X635000Y520086D02*
X632389Y519743D01*
X629957Y518735D01*
X627868Y517132D01*
X626265Y515043D01*
X625257Y512611D01*
X624914Y510000D01*
Y506000D01*
X625257Y503390D01*
X626265Y500957D01*
X627868Y498868D01*
X629957Y497265D01*
X632389Y496257D01*
X635000Y495914D01*
X637611Y496257D01*
X640043Y497265D01*
X642132Y498868D01*
X643735Y500957D01*
X644743Y503390D01*
X645086Y506000D01*
Y510000D01*
X644743Y512611D01*
X643735Y515043D01*
X642132Y517132D01*
X640043Y518735D01*
X637611Y519743D01*
X635000Y520086D01*
D02*
G37*
G36*
X609600D02*
X606990Y519743D01*
X604557Y518735D01*
X602468Y517132D01*
X600865Y515043D01*
X599857Y512611D01*
X599514Y510000D01*
Y506000D01*
X599857Y503390D01*
X600865Y500957D01*
X602468Y498868D01*
X604557Y497265D01*
X606990Y496257D01*
X609600Y495914D01*
X612211Y496257D01*
X614643Y497265D01*
X616732Y498868D01*
X618335Y500957D01*
X619343Y503390D01*
X619686Y506000D01*
Y510000D01*
X619343Y512611D01*
X618335Y515043D01*
X616732Y517132D01*
X614643Y518735D01*
X612211Y519743D01*
X609600Y520086D01*
D02*
G37*
G36*
X584200D02*
X581590Y519743D01*
X579157Y518735D01*
X577068Y517132D01*
X575465Y515043D01*
X574457Y512611D01*
X574114Y510000D01*
Y506000D01*
X574457Y503390D01*
X575465Y500957D01*
X577068Y498868D01*
X579157Y497265D01*
X581590Y496257D01*
X584200Y495914D01*
X586810Y496257D01*
X589243Y497265D01*
X591332Y498868D01*
X592935Y500957D01*
X593943Y503390D01*
X594286Y506000D01*
Y510000D01*
X593943Y512611D01*
X592935Y515043D01*
X591332Y517132D01*
X589243Y518735D01*
X586810Y519743D01*
X584200Y520086D01*
D02*
G37*
G36*
X558800D02*
X556189Y519743D01*
X553757Y518735D01*
X551668Y517132D01*
X550065Y515043D01*
X549057Y512611D01*
X548714Y510000D01*
Y506000D01*
X549057Y503390D01*
X550065Y500957D01*
X551668Y498868D01*
X553757Y497265D01*
X556189Y496257D01*
X558800Y495914D01*
X561410Y496257D01*
X563843Y497265D01*
X565932Y498868D01*
X567535Y500957D01*
X568543Y503390D01*
X568886Y506000D01*
Y510000D01*
X568543Y512611D01*
X567535Y515043D01*
X565932Y517132D01*
X563843Y518735D01*
X561410Y519743D01*
X558800Y520086D01*
D02*
G37*
G36*
X533400D02*
X530789Y519743D01*
X528357Y518735D01*
X526268Y517132D01*
X524665Y515043D01*
X523657Y512611D01*
X523314Y510000D01*
Y506000D01*
X523657Y503390D01*
X524665Y500957D01*
X526268Y498868D01*
X528357Y497265D01*
X530789Y496257D01*
X533400Y495914D01*
X536011Y496257D01*
X538443Y497265D01*
X540532Y498868D01*
X542135Y500957D01*
X543143Y503390D01*
X543486Y506000D01*
Y510000D01*
X543143Y512611D01*
X542135Y515043D01*
X540532Y517132D01*
X538443Y518735D01*
X536011Y519743D01*
X533400Y520086D01*
D02*
G37*
G36*
X508000D02*
X505390Y519743D01*
X502957Y518735D01*
X500868Y517132D01*
X499265Y515043D01*
X498257Y512611D01*
X497914Y510000D01*
Y506000D01*
X498257Y503390D01*
X499265Y500957D01*
X500868Y498868D01*
X502957Y497265D01*
X505390Y496257D01*
X508000Y495914D01*
X510611Y496257D01*
X513043Y497265D01*
X515132Y498868D01*
X516735Y500957D01*
X517743Y503390D01*
X518086Y506000D01*
Y510000D01*
X517743Y512611D01*
X516735Y515043D01*
X515132Y517132D01*
X513043Y518735D01*
X510611Y519743D01*
X508000Y520086D01*
D02*
G37*
G36*
X482600D02*
X479990Y519743D01*
X477557Y518735D01*
X475468Y517132D01*
X473865Y515043D01*
X472857Y512611D01*
X472514Y510000D01*
Y506000D01*
X472857Y503390D01*
X473865Y500957D01*
X475468Y498868D01*
X477557Y497265D01*
X479990Y496257D01*
X482600Y495914D01*
X485210Y496257D01*
X487643Y497265D01*
X489732Y498868D01*
X491335Y500957D01*
X492343Y503390D01*
X492686Y506000D01*
Y510000D01*
X492343Y512611D01*
X491335Y515043D01*
X489732Y517132D01*
X487643Y518735D01*
X485210Y519743D01*
X482600Y520086D01*
D02*
G37*
G36*
X457200D02*
X454590Y519743D01*
X452157Y518735D01*
X450068Y517132D01*
X448465Y515043D01*
X447457Y512611D01*
X447114Y510000D01*
Y506000D01*
X447457Y503390D01*
X448465Y500957D01*
X450068Y498868D01*
X452157Y497265D01*
X454590Y496257D01*
X457200Y495914D01*
X459810Y496257D01*
X462243Y497265D01*
X464332Y498868D01*
X465935Y500957D01*
X466943Y503390D01*
X467286Y506000D01*
Y510000D01*
X466943Y512611D01*
X465935Y515043D01*
X464332Y517132D01*
X462243Y518735D01*
X459810Y519743D01*
X457200Y520086D01*
D02*
G37*
G36*
X416560D02*
X413950Y519743D01*
X411517Y518735D01*
X409428Y517132D01*
X407825Y515043D01*
X406817Y512611D01*
X406474Y510000D01*
Y506000D01*
X406817Y503390D01*
X407825Y500957D01*
X409428Y498868D01*
X411517Y497265D01*
X413950Y496257D01*
X416560Y495914D01*
X419170Y496257D01*
X421603Y497265D01*
X423692Y498868D01*
X425295Y500957D01*
X426303Y503390D01*
X426646Y506000D01*
Y510000D01*
X426303Y512611D01*
X425295Y515043D01*
X423692Y517132D01*
X421603Y518735D01*
X419170Y519743D01*
X416560Y520086D01*
D02*
G37*
G36*
X391160D02*
X388549Y519743D01*
X386117Y518735D01*
X384028Y517132D01*
X382425Y515043D01*
X381417Y512611D01*
X381074Y510000D01*
Y506000D01*
X381417Y503390D01*
X382425Y500957D01*
X384028Y498868D01*
X386117Y497265D01*
X388549Y496257D01*
X391160Y495914D01*
X393770Y496257D01*
X396203Y497265D01*
X398292Y498868D01*
X399895Y500957D01*
X400903Y503390D01*
X401246Y506000D01*
Y510000D01*
X400903Y512611D01*
X399895Y515043D01*
X398292Y517132D01*
X396203Y518735D01*
X393770Y519743D01*
X391160Y520086D01*
D02*
G37*
G36*
X365760D02*
X363149Y519743D01*
X360717Y518735D01*
X358628Y517132D01*
X357025Y515043D01*
X356017Y512611D01*
X355674Y510000D01*
Y506000D01*
X356017Y503390D01*
X357025Y500957D01*
X358628Y498868D01*
X360717Y497265D01*
X363149Y496257D01*
X365760Y495914D01*
X368371Y496257D01*
X370803Y497265D01*
X372892Y498868D01*
X374495Y500957D01*
X375503Y503390D01*
X375846Y506000D01*
Y510000D01*
X375503Y512611D01*
X374495Y515043D01*
X372892Y517132D01*
X370803Y518735D01*
X368371Y519743D01*
X365760Y520086D01*
D02*
G37*
G36*
X340360D02*
X337749Y519743D01*
X335317Y518735D01*
X333228Y517132D01*
X331625Y515043D01*
X330617Y512611D01*
X330274Y510000D01*
Y506000D01*
X330617Y503390D01*
X331625Y500957D01*
X333228Y498868D01*
X335317Y497265D01*
X337749Y496257D01*
X340360Y495914D01*
X342971Y496257D01*
X345403Y497265D01*
X347492Y498868D01*
X349095Y500957D01*
X350103Y503390D01*
X350446Y506000D01*
Y510000D01*
X350103Y512611D01*
X349095Y515043D01*
X347492Y517132D01*
X345403Y518735D01*
X342971Y519743D01*
X340360Y520086D01*
D02*
G37*
G36*
X314960D02*
X312349Y519743D01*
X309917Y518735D01*
X307828Y517132D01*
X306225Y515043D01*
X305217Y512611D01*
X304874Y510000D01*
Y506000D01*
X305217Y503390D01*
X306225Y500957D01*
X307828Y498868D01*
X309917Y497265D01*
X312349Y496257D01*
X314960Y495914D01*
X317570Y496257D01*
X320003Y497265D01*
X322092Y498868D01*
X323695Y500957D01*
X324703Y503390D01*
X325046Y506000D01*
Y510000D01*
X324703Y512611D01*
X323695Y515043D01*
X322092Y517132D01*
X320003Y518735D01*
X317570Y519743D01*
X314960Y520086D01*
D02*
G37*
G36*
X289560D02*
X286950Y519743D01*
X284517Y518735D01*
X282428Y517132D01*
X280825Y515043D01*
X279817Y512611D01*
X279474Y510000D01*
Y506000D01*
X279817Y503390D01*
X280825Y500957D01*
X282428Y498868D01*
X284517Y497265D01*
X286950Y496257D01*
X289560Y495914D01*
X292171Y496257D01*
X294603Y497265D01*
X296692Y498868D01*
X298295Y500957D01*
X299303Y503390D01*
X299646Y506000D01*
Y510000D01*
X299303Y512611D01*
X298295Y515043D01*
X296692Y517132D01*
X294603Y518735D01*
X292171Y519743D01*
X289560Y520086D01*
D02*
G37*
G36*
X264160D02*
X261549Y519743D01*
X259117Y518735D01*
X257028Y517132D01*
X255425Y515043D01*
X254417Y512611D01*
X254074Y510000D01*
Y506000D01*
X254417Y503390D01*
X255425Y500957D01*
X257028Y498868D01*
X259117Y497265D01*
X261549Y496257D01*
X264160Y495914D01*
X266770Y496257D01*
X269203Y497265D01*
X271292Y498868D01*
X272895Y500957D01*
X273903Y503390D01*
X274246Y506000D01*
Y510000D01*
X273903Y512611D01*
X272895Y515043D01*
X271292Y517132D01*
X269203Y518735D01*
X266770Y519743D01*
X264160Y520086D01*
D02*
G37*
G36*
X238760D02*
X236150Y519743D01*
X233717Y518735D01*
X231628Y517132D01*
X230025Y515043D01*
X229017Y512611D01*
X228674Y510000D01*
Y506000D01*
X229017Y503390D01*
X230025Y500957D01*
X231628Y498868D01*
X233717Y497265D01*
X234649Y496879D01*
Y488950D01*
X234962Y487377D01*
X235853Y486043D01*
X247372Y474525D01*
X247371Y474523D01*
X247615Y472675D01*
X248328Y470953D01*
X248619Y470573D01*
Y452374D01*
X248932Y450801D01*
X249823Y449467D01*
X257697Y441593D01*
X259031Y440702D01*
X260604Y440389D01*
X265900D01*
Y438500D01*
X277900D01*
Y450500D01*
X265900D01*
Y448611D01*
X262307D01*
X256841Y454077D01*
Y467824D01*
X258083Y468339D01*
X259562Y469474D01*
X260697Y470953D01*
X261410Y472675D01*
X261653Y474523D01*
X261410Y476371D01*
X260697Y478094D01*
X259562Y479573D01*
X258083Y480708D01*
X256361Y481421D01*
X254512Y481664D01*
X252664Y481421D01*
X252267Y481256D01*
X242871Y490653D01*
Y496879D01*
X243803Y497265D01*
X245892Y498868D01*
X247495Y500957D01*
X248503Y503390D01*
X248846Y506000D01*
Y510000D01*
X248503Y512611D01*
X247495Y515043D01*
X245892Y517132D01*
X243803Y518735D01*
X241371Y519743D01*
X238760Y520086D01*
D02*
G37*
G36*
X299720Y318424D02*
X286900D01*
X285574Y318160D01*
X284451Y317409D01*
X283700Y316285D01*
X283436Y314960D01*
X283700Y313635D01*
X284451Y312511D01*
X285574Y311760D01*
X286900Y311497D01*
X299720D01*
X301045Y311760D01*
X302169Y312511D01*
X302920Y313635D01*
X303183Y314960D01*
X302920Y316285D01*
X302169Y317409D01*
X301045Y318160D01*
X299720Y318424D01*
D02*
G37*
G36*
X661670Y289991D02*
X658929Y289630D01*
X656375Y288572D01*
X654181Y286889D01*
X652498Y284695D01*
X651440Y282141D01*
X651079Y279400D01*
X651440Y276659D01*
X652498Y274105D01*
X654181Y271911D01*
X656375Y270228D01*
X658929Y269170D01*
X661670Y268809D01*
X664411Y269170D01*
X666965Y270228D01*
X669159Y271911D01*
X670842Y274105D01*
X671900Y276659D01*
X672261Y279400D01*
X671900Y282141D01*
X670842Y284695D01*
X669159Y286889D01*
X666965Y288572D01*
X664411Y289630D01*
X661670Y289991D01*
D02*
G37*
G36*
X603250Y214016D02*
X600639Y213673D01*
X598207Y212665D01*
X596118Y211062D01*
X594515Y208973D01*
X593507Y206541D01*
X593164Y203930D01*
Y199930D01*
X593507Y197320D01*
X594515Y194887D01*
X596118Y192798D01*
X598207Y191195D01*
X600639Y190187D01*
X603250Y189844D01*
X605860Y190187D01*
X608293Y191195D01*
X610382Y192798D01*
X611985Y194887D01*
X612993Y197320D01*
X613336Y199930D01*
Y203930D01*
X612993Y206541D01*
X611985Y208973D01*
X610382Y211062D01*
X608293Y212665D01*
X605860Y213673D01*
X603250Y214016D01*
D02*
G37*
G36*
X577850D02*
X575239Y213673D01*
X572807Y212665D01*
X570718Y211062D01*
X569115Y208973D01*
X568107Y206541D01*
X567764Y203930D01*
Y199930D01*
X568107Y197320D01*
X569115Y194887D01*
X570718Y192798D01*
X572807Y191195D01*
X575239Y190187D01*
X577850Y189844D01*
X580461Y190187D01*
X582893Y191195D01*
X584982Y192798D01*
X586585Y194887D01*
X587593Y197320D01*
X587936Y199930D01*
Y203930D01*
X587593Y206541D01*
X586585Y208973D01*
X584982Y211062D01*
X582893Y212665D01*
X580461Y213673D01*
X577850Y214016D01*
D02*
G37*
G36*
X552450D02*
X549840Y213673D01*
X547407Y212665D01*
X545318Y211062D01*
X543715Y208973D01*
X542707Y206541D01*
X542364Y203930D01*
Y199930D01*
X542707Y197320D01*
X543715Y194887D01*
X545318Y192798D01*
X547407Y191195D01*
X549840Y190187D01*
X552450Y189844D01*
X555061Y190187D01*
X557493Y191195D01*
X559582Y192798D01*
X561185Y194887D01*
X562193Y197320D01*
X562536Y199930D01*
Y203930D01*
X562193Y206541D01*
X561185Y208973D01*
X559582Y211062D01*
X557493Y212665D01*
X555061Y213673D01*
X552450Y214016D01*
D02*
G37*
G36*
X527050D02*
X524440Y213673D01*
X522007Y212665D01*
X519918Y211062D01*
X518315Y208973D01*
X517307Y206541D01*
X516964Y203930D01*
Y199930D01*
X517307Y197320D01*
X518315Y194887D01*
X519918Y192798D01*
X522007Y191195D01*
X524440Y190187D01*
X527050Y189844D01*
X529660Y190187D01*
X532093Y191195D01*
X534182Y192798D01*
X535785Y194887D01*
X536793Y197320D01*
X537136Y199930D01*
Y203930D01*
X536793Y206541D01*
X535785Y208973D01*
X534182Y211062D01*
X532093Y212665D01*
X529660Y213673D01*
X527050Y214016D01*
D02*
G37*
G36*
X501650D02*
X499039Y213673D01*
X496607Y212665D01*
X494518Y211062D01*
X492915Y208973D01*
X491907Y206541D01*
X491564Y203930D01*
Y199930D01*
X491907Y197320D01*
X492915Y194887D01*
X494518Y192798D01*
X496607Y191195D01*
X499039Y190187D01*
X501650Y189844D01*
X504260Y190187D01*
X506693Y191195D01*
X508782Y192798D01*
X510385Y194887D01*
X511393Y197320D01*
X511736Y199930D01*
Y203930D01*
X511393Y206541D01*
X510385Y208973D01*
X508782Y211062D01*
X506693Y212665D01*
X504260Y213673D01*
X501650Y214016D01*
D02*
G37*
G36*
X427806Y261080D02*
X416694D01*
Y236760D01*
X416694Y236760D01*
X416302Y234382D01*
X416193Y233830D01*
X415250D01*
Y220830D01*
X420936D01*
X421339Y220427D01*
Y213051D01*
X420407Y212665D01*
X418318Y211062D01*
X416715Y208973D01*
X415707Y206541D01*
X415364Y203930D01*
Y199930D01*
X415707Y197320D01*
X416715Y194887D01*
X418318Y192798D01*
X420407Y191195D01*
X422840Y190187D01*
X425450Y189844D01*
X428060Y190187D01*
X430493Y191195D01*
X432582Y192798D01*
X434185Y194887D01*
X435193Y197320D01*
X435536Y199930D01*
Y203930D01*
X435193Y206541D01*
X434185Y208973D01*
X432582Y211062D01*
X430493Y212665D01*
X429561Y213051D01*
Y222130D01*
X429248Y223703D01*
X428357Y225037D01*
X425250Y228144D01*
Y232792D01*
X426048Y233987D01*
X426361Y235560D01*
Y236760D01*
X427806D01*
Y261080D01*
D02*
G37*
G36*
X408806D02*
X397694D01*
Y236760D01*
X399139D01*
Y235560D01*
X399452Y233987D01*
X400250Y232792D01*
Y228144D01*
X397143Y225037D01*
X396252Y223703D01*
X395939Y222130D01*
Y213051D01*
X395007Y212665D01*
X392918Y211062D01*
X391315Y208973D01*
X390307Y206541D01*
X389964Y203930D01*
Y199930D01*
X390307Y197320D01*
X391315Y194887D01*
X392918Y192798D01*
X395007Y191195D01*
X397439Y190187D01*
X400050Y189844D01*
X402660Y190187D01*
X405093Y191195D01*
X407182Y192798D01*
X408785Y194887D01*
X409793Y197320D01*
X410136Y199930D01*
Y203930D01*
X409793Y206541D01*
X408785Y208973D01*
X407182Y211062D01*
X405093Y212665D01*
X404161Y213051D01*
Y220427D01*
X404564Y220830D01*
X410250D01*
Y233830D01*
X409307D01*
X409198Y234382D01*
X408806Y236760D01*
X408806Y236760D01*
X408806Y236760D01*
Y261080D01*
D02*
G37*
G36*
X236710Y147969D02*
X228710D01*
X227344Y147697D01*
X226187Y146923D01*
X225413Y145766D01*
X225141Y144400D01*
Y141400D01*
X225413Y140034D01*
X226187Y138877D01*
X227344Y138103D01*
X228710Y137831D01*
X236710D01*
X238076Y138103D01*
X239233Y138877D01*
X240007Y140034D01*
X240279Y141400D01*
Y144400D01*
X240007Y145766D01*
X239233Y146923D01*
X238076Y147697D01*
X236710Y147969D01*
D02*
G37*
G36*
X450850Y137816D02*
X448240Y137473D01*
X445807Y136465D01*
X443718Y134862D01*
X442115Y132773D01*
X441107Y130340D01*
X440764Y127730D01*
Y123730D01*
X441107Y121119D01*
X442115Y118687D01*
X443718Y116598D01*
X445807Y114995D01*
X448240Y113987D01*
X450850Y113644D01*
X453461Y113987D01*
X455893Y114995D01*
X457982Y116598D01*
X459585Y118687D01*
X460593Y121119D01*
X460936Y123730D01*
Y127730D01*
X460593Y130340D01*
X459585Y132773D01*
X457982Y134862D01*
X455893Y136465D01*
X453461Y137473D01*
X450850Y137816D01*
D02*
G37*
G36*
X400050D02*
X397439Y137473D01*
X395007Y136465D01*
X392918Y134862D01*
X391315Y132773D01*
X390307Y130340D01*
X389964Y127730D01*
Y123730D01*
X390307Y121119D01*
X391315Y118687D01*
X392918Y116598D01*
X395007Y114995D01*
X397439Y113987D01*
X400050Y113644D01*
X402660Y113987D01*
X405093Y114995D01*
X407182Y116598D01*
X408785Y118687D01*
X409793Y121119D01*
X410136Y123730D01*
Y127730D01*
X409793Y130340D01*
X408785Y132773D01*
X407182Y134862D01*
X405093Y136465D01*
X402660Y137473D01*
X400050Y137816D01*
D02*
G37*
G36*
X377190Y170971D02*
X375342Y170728D01*
X373619Y170014D01*
X372141Y168880D01*
X371006Y167400D01*
X370292Y165678D01*
X370049Y163830D01*
X370292Y161982D01*
X370552Y161355D01*
X370539Y161290D01*
Y136851D01*
X369607Y136465D01*
X367518Y134862D01*
X365915Y132773D01*
X364907Y130340D01*
X364564Y127730D01*
Y123730D01*
X364907Y121119D01*
X365915Y118687D01*
X367518Y116598D01*
X369607Y114995D01*
X372039Y113987D01*
X374650Y113644D01*
X377261Y113987D01*
X379693Y114995D01*
X381782Y116598D01*
X383385Y118687D01*
X384393Y121119D01*
X384736Y123730D01*
Y127730D01*
X384393Y130340D01*
X383385Y132773D01*
X381782Y134862D01*
X379693Y136465D01*
X378761Y136851D01*
Y156896D01*
X379038Y156932D01*
X380760Y157646D01*
X382239Y158780D01*
X383374Y160259D01*
X384088Y161982D01*
X384331Y163830D01*
X384088Y165678D01*
X383374Y167400D01*
X382239Y168880D01*
X380760Y170014D01*
X379038Y170728D01*
X377190Y170971D01*
D02*
G37*
G36*
X482600Y89691D02*
X480752Y89448D01*
X479030Y88734D01*
X479027Y88733D01*
X463050D01*
X463050Y88733D01*
X460684Y88262D01*
X458678Y86922D01*
X452828Y81072D01*
X451488Y79066D01*
X451017Y76700D01*
Y35261D01*
X450068Y34532D01*
X448465Y32443D01*
X447457Y30010D01*
X447114Y27400D01*
Y23400D01*
X447457Y20789D01*
X448465Y18357D01*
X450068Y16268D01*
X452157Y14665D01*
X454590Y13657D01*
X457200Y13314D01*
X459810Y13657D01*
X462243Y14665D01*
X464332Y16268D01*
X465935Y18357D01*
X466943Y20789D01*
X467286Y23400D01*
Y27400D01*
X466943Y30010D01*
X465935Y32443D01*
X464332Y34532D01*
X463383Y35261D01*
Y74139D01*
X465611Y76367D01*
X479027D01*
X479030Y76366D01*
X480752Y75652D01*
X482600Y75409D01*
X484448Y75652D01*
X486171Y76366D01*
X487649Y77501D01*
X488784Y78980D01*
X489498Y80702D01*
X489741Y82550D01*
X489498Y84398D01*
X488784Y86121D01*
X487649Y87599D01*
X486171Y88734D01*
X484448Y89448D01*
X482600Y89691D01*
D02*
G37*
G36*
X431800Y28993D02*
X406400D01*
X405025Y28719D01*
X403859Y27941D01*
X403080Y26775D01*
X402807Y25400D01*
X403080Y24025D01*
X403859Y22859D01*
X405025Y22081D01*
X406400Y21807D01*
X431800D01*
X433175Y22081D01*
X434341Y22859D01*
X435120Y24025D01*
X435393Y25400D01*
X435120Y26775D01*
X434341Y27941D01*
X433175Y28719D01*
X431800Y28993D01*
D02*
G37*
G36*
X618490Y179861D02*
X616642Y179618D01*
X614920Y178904D01*
X613441Y177770D01*
X612306Y176290D01*
X611592Y174568D01*
X611349Y172720D01*
X611592Y170872D01*
X612306Y169149D01*
X613441Y167670D01*
X614920Y166536D01*
X616642Y165822D01*
X618490Y165579D01*
X620310Y165819D01*
X625057Y161072D01*
Y137066D01*
X623607Y136465D01*
X621518Y134862D01*
X619915Y132773D01*
X618907Y130340D01*
X618564Y127730D01*
Y123730D01*
X618907Y121119D01*
X619915Y118687D01*
X621518Y116598D01*
X623607Y114995D01*
X625316Y114287D01*
Y113538D01*
X625570Y112262D01*
X626292Y111180D01*
X631666Y105807D01*
Y36843D01*
X629957Y36135D01*
X627868Y34532D01*
X626265Y32443D01*
X625257Y30010D01*
X624914Y27400D01*
Y23400D01*
X625257Y20789D01*
X626265Y18357D01*
X627868Y16268D01*
X629957Y14665D01*
X632389Y13657D01*
X635000Y13314D01*
X637611Y13657D01*
X640043Y14665D01*
X642132Y16268D01*
X643735Y18357D01*
X644743Y20789D01*
X645086Y23400D01*
Y27400D01*
X644743Y30010D01*
X643735Y32443D01*
X642132Y34532D01*
X640043Y36135D01*
X638334Y36843D01*
Y107188D01*
X638080Y108464D01*
X637357Y109546D01*
X634201Y112702D01*
X634716Y115780D01*
X635782Y116598D01*
X637385Y118687D01*
X638393Y121119D01*
X638736Y123730D01*
Y127730D01*
X638393Y130340D01*
X637385Y132773D01*
X635782Y134862D01*
X633693Y136465D01*
X632243Y137066D01*
Y162560D01*
X631969Y163935D01*
X631191Y165101D01*
X625392Y170900D01*
X625631Y172720D01*
X625388Y174568D01*
X624674Y176290D01*
X623540Y177770D01*
X622061Y178904D01*
X620338Y179618D01*
X618490Y179861D01*
D02*
G37*
G36*
X593090Y190021D02*
X591242Y189778D01*
X589520Y189064D01*
X588041Y187929D01*
X586906Y186451D01*
X586192Y184728D01*
X585949Y182880D01*
X586192Y181032D01*
X586906Y179310D01*
X588041Y177831D01*
X589497Y176713D01*
Y152410D01*
X589771Y151035D01*
X590549Y149869D01*
X599657Y140762D01*
Y137066D01*
X598207Y136465D01*
X596118Y134862D01*
X594515Y132773D01*
X593507Y130340D01*
X593164Y127730D01*
Y123730D01*
X593507Y121119D01*
X594515Y118687D01*
X596118Y116598D01*
X598207Y114995D01*
X599916Y114287D01*
Y113030D01*
X600170Y111754D01*
X600892Y110673D01*
X606266Y105299D01*
Y36843D01*
X604557Y36135D01*
X602468Y34532D01*
X600865Y32443D01*
X599857Y30010D01*
X599514Y27400D01*
Y23400D01*
X599857Y20789D01*
X600865Y18357D01*
X602468Y16268D01*
X604557Y14665D01*
X606990Y13657D01*
X609600Y13314D01*
X612211Y13657D01*
X614643Y14665D01*
X616732Y16268D01*
X618335Y18357D01*
X619343Y20789D01*
X619686Y23400D01*
Y27400D01*
X619343Y30010D01*
X618335Y32443D01*
X616732Y34532D01*
X614643Y36135D01*
X612934Y36843D01*
Y106680D01*
X612680Y107956D01*
X611958Y109038D01*
X608401Y112594D01*
X609028Y115559D01*
X610382Y116598D01*
X611985Y118687D01*
X612993Y121119D01*
X613336Y123730D01*
Y127730D01*
X612993Y130340D01*
X611985Y132773D01*
X610382Y134862D01*
X608293Y136465D01*
X606843Y137066D01*
Y142250D01*
X606570Y143625D01*
X605791Y144791D01*
X596683Y153898D01*
Y176713D01*
X598139Y177831D01*
X599274Y179310D01*
X599988Y181032D01*
X600231Y182880D01*
X599988Y184728D01*
X599274Y186451D01*
X598139Y187929D01*
X596660Y189064D01*
X594938Y189778D01*
X593090Y190021D01*
D02*
G37*
G36*
X577850Y137816D02*
X575239Y137473D01*
X572807Y136465D01*
X570718Y134862D01*
X569115Y132773D01*
X568107Y130340D01*
X567764Y127730D01*
Y123730D01*
X568107Y121119D01*
X569115Y118687D01*
X570718Y116598D01*
X572807Y114995D01*
X574516Y114287D01*
Y112268D01*
X574770Y110992D01*
X575493Y109910D01*
X580866Y104537D01*
Y36843D01*
X579157Y36135D01*
X577068Y34532D01*
X575465Y32443D01*
X574457Y30010D01*
X574114Y27400D01*
Y23400D01*
X574457Y20789D01*
X575465Y18357D01*
X577068Y16268D01*
X579157Y14665D01*
X581590Y13657D01*
X584200Y13314D01*
X586810Y13657D01*
X589243Y14665D01*
X591332Y16268D01*
X592935Y18357D01*
X593943Y20789D01*
X594286Y23400D01*
Y27400D01*
X593943Y30010D01*
X592935Y32443D01*
X591332Y34532D01*
X589243Y36135D01*
X587534Y36843D01*
Y105918D01*
X587280Y107194D01*
X586558Y108276D01*
X582677Y112156D01*
X582853Y114470D01*
X583197Y115228D01*
X584982Y116598D01*
X586585Y118687D01*
X587593Y121119D01*
X587936Y123730D01*
Y127730D01*
X587593Y130340D01*
X586585Y132773D01*
X584982Y134862D01*
X582893Y136465D01*
X580461Y137473D01*
X577850Y137816D01*
D02*
G37*
G36*
X552450D02*
X549840Y137473D01*
X547407Y136465D01*
X545318Y134862D01*
X543715Y132773D01*
X542707Y130340D01*
X542364Y127730D01*
Y123730D01*
X542707Y121119D01*
X543715Y118687D01*
X545318Y116598D01*
X547407Y114995D01*
X549116Y114287D01*
Y112776D01*
X549370Y111500D01*
X550093Y110419D01*
X555466Y105045D01*
Y36843D01*
X553757Y36135D01*
X551668Y34532D01*
X550065Y32443D01*
X549057Y30010D01*
X548714Y27400D01*
Y23400D01*
X549057Y20789D01*
X550065Y18357D01*
X551668Y16268D01*
X553757Y14665D01*
X556189Y13657D01*
X558800Y13314D01*
X561410Y13657D01*
X563843Y14665D01*
X565932Y16268D01*
X567535Y18357D01*
X568543Y20789D01*
X568886Y23400D01*
Y27400D01*
X568543Y30010D01*
X567535Y32443D01*
X565932Y34532D01*
X563843Y36135D01*
X562134Y36843D01*
Y106426D01*
X561880Y107702D01*
X561157Y108784D01*
X557636Y112305D01*
X557582Y113315D01*
X558084Y115449D01*
X559582Y116598D01*
X561185Y118687D01*
X562193Y121119D01*
X562536Y123730D01*
Y127730D01*
X562193Y130340D01*
X561185Y132773D01*
X559582Y134862D01*
X557493Y136465D01*
X555061Y137473D01*
X552450Y137816D01*
D02*
G37*
G36*
X527050D02*
X524440Y137473D01*
X522007Y136465D01*
X519918Y134862D01*
X518315Y132773D01*
X517307Y130340D01*
X516964Y127730D01*
Y123730D01*
X517307Y121119D01*
X518315Y118687D01*
X519918Y116598D01*
X522007Y114995D01*
X523716Y114287D01*
Y113030D01*
X523970Y111754D01*
X524692Y110673D01*
X530066Y105299D01*
Y36843D01*
X528357Y36135D01*
X526268Y34532D01*
X524665Y32443D01*
X523657Y30010D01*
X523314Y27400D01*
Y23400D01*
X523657Y20789D01*
X524665Y18357D01*
X526268Y16268D01*
X528357Y14665D01*
X530789Y13657D01*
X533400Y13314D01*
X536011Y13657D01*
X538443Y14665D01*
X540532Y16268D01*
X542135Y18357D01*
X543143Y20789D01*
X543486Y23400D01*
Y27400D01*
X543143Y30010D01*
X542135Y32443D01*
X540532Y34532D01*
X538443Y36135D01*
X536734Y36843D01*
Y106680D01*
X536480Y107956D01*
X535757Y109038D01*
X532201Y112594D01*
X532828Y115559D01*
X534182Y116598D01*
X535785Y118687D01*
X536793Y121119D01*
X537136Y123730D01*
Y127730D01*
X536793Y130340D01*
X535785Y132773D01*
X534182Y134862D01*
X532093Y136465D01*
X529660Y137473D01*
X527050Y137816D01*
D02*
G37*
G36*
X501650D02*
X499039Y137473D01*
X496607Y136465D01*
X494518Y134862D01*
X492915Y132773D01*
X491907Y130340D01*
X491564Y127730D01*
Y123730D01*
X491907Y121119D01*
X492915Y118687D01*
X494518Y116598D01*
X496607Y114995D01*
X498316Y114287D01*
Y113030D01*
X498570Y111754D01*
X499292Y110673D01*
X504666Y105299D01*
Y36843D01*
X502957Y36135D01*
X500868Y34532D01*
X499265Y32443D01*
X498257Y30010D01*
X497914Y27400D01*
Y23400D01*
X498257Y20789D01*
X499265Y18357D01*
X500868Y16268D01*
X502957Y14665D01*
X505390Y13657D01*
X508000Y13314D01*
X510611Y13657D01*
X513043Y14665D01*
X515132Y16268D01*
X516735Y18357D01*
X517743Y20789D01*
X518086Y23400D01*
Y27400D01*
X517743Y30010D01*
X516735Y32443D01*
X515132Y34532D01*
X513043Y36135D01*
X511334Y36843D01*
Y106680D01*
X511080Y107956D01*
X510358Y109038D01*
X506801Y112594D01*
X507428Y115559D01*
X508782Y116598D01*
X510385Y118687D01*
X511393Y121119D01*
X511736Y123730D01*
Y127730D01*
X511393Y130340D01*
X510385Y132773D01*
X508782Y134862D01*
X506693Y136465D01*
X504260Y137473D01*
X501650Y137816D01*
D02*
G37*
G36*
X311150Y112551D02*
X309302Y112308D01*
X307579Y111594D01*
X306101Y110459D01*
X304966Y108981D01*
X304252Y107258D01*
X304009Y105410D01*
X304252Y103562D01*
X304966Y101840D01*
X306101Y100360D01*
X307579Y99226D01*
X309302Y98512D01*
X310991Y98290D01*
X350453Y58828D01*
Y36055D01*
X348468Y34532D01*
X346865Y32443D01*
X345857Y30010D01*
X345514Y27400D01*
Y23400D01*
X345857Y20789D01*
X346865Y18357D01*
X348468Y16268D01*
X350557Y14665D01*
X352990Y13657D01*
X355600Y13314D01*
X358210Y13657D01*
X360643Y14665D01*
X362732Y16268D01*
X364335Y18357D01*
X365343Y20789D01*
X365686Y23400D01*
Y27400D01*
X365343Y30010D01*
X364335Y32443D01*
X362732Y34532D01*
X360747Y36055D01*
Y60960D01*
X360355Y62930D01*
X359239Y64599D01*
X318270Y105569D01*
X318048Y107258D01*
X317334Y108981D01*
X316199Y110459D01*
X314720Y111594D01*
X312998Y112308D01*
X311150Y112551D01*
D02*
G37*
G36*
X304800Y37486D02*
X302190Y37143D01*
X299757Y36135D01*
X297668Y34532D01*
X296065Y32443D01*
X295057Y30010D01*
X294714Y27400D01*
Y23400D01*
X295057Y20789D01*
X296065Y18357D01*
X297668Y16268D01*
X299757Y14665D01*
X302190Y13657D01*
X304800Y13314D01*
X307411Y13657D01*
X309843Y14665D01*
X311932Y16268D01*
X313535Y18357D01*
X314543Y20789D01*
X314886Y23400D01*
Y27400D01*
X314543Y30010D01*
X313535Y32443D01*
X311932Y34532D01*
X309843Y36135D01*
X307411Y37143D01*
X304800Y37486D01*
D02*
G37*
G36*
X279400D02*
X276789Y37143D01*
X274357Y36135D01*
X272268Y34532D01*
X270665Y32443D01*
X269657Y30010D01*
X269314Y27400D01*
Y23400D01*
X269657Y20789D01*
X270665Y18357D01*
X272268Y16268D01*
X274357Y14665D01*
X276789Y13657D01*
X279400Y13314D01*
X282010Y13657D01*
X284443Y14665D01*
X286532Y16268D01*
X288135Y18357D01*
X289143Y20789D01*
X289486Y23400D01*
Y27400D01*
X289143Y30010D01*
X288135Y32443D01*
X286532Y34532D01*
X284443Y36135D01*
X282010Y37143D01*
X279400Y37486D01*
D02*
G37*
%LPD*%
D11*
X196890Y317360D02*
X199500Y314750D01*
X196890Y317360D02*
Y324750D01*
X283776Y242760D02*
X286150D01*
X275776Y250760D02*
X283776Y242760D01*
X272650Y250760D02*
X275776D01*
X562610Y349920D02*
Y355670D01*
Y344170D02*
Y349920D01*
X562710Y349820D01*
X577450D01*
X562610Y355670D02*
X572700Y365760D01*
X562610Y344170D02*
X564960Y341820D01*
X577450D01*
X635000Y25400D02*
Y107188D01*
X628650Y113538D02*
X635000Y107188D01*
X628650Y113538D02*
Y125730D01*
X609600Y25400D02*
Y106680D01*
X603250Y113030D02*
X609600Y106680D01*
X603250Y113030D02*
Y125730D01*
X584200Y25400D02*
Y105918D01*
X577850Y112268D02*
X584200Y105918D01*
X577850Y112268D02*
Y125730D01*
X558800Y25400D02*
Y106426D01*
X552450Y112776D02*
X558800Y106426D01*
X552450Y112776D02*
Y125730D01*
X533400Y25400D02*
Y106680D01*
X527050Y113030D02*
X533400Y106680D01*
X527050Y113030D02*
Y125730D01*
X508000Y25400D02*
Y106680D01*
X501650Y113030D02*
X508000Y106680D01*
X501650Y113030D02*
Y125730D01*
D13*
X212500Y193450D02*
D03*
Y199950D02*
D03*
Y206450D02*
D03*
Y212950D02*
D03*
X168500Y193450D02*
D03*
Y199950D02*
D03*
Y206450D02*
D03*
Y212950D02*
D03*
D14*
X422250Y248920D02*
D03*
X412750D02*
D03*
X403250D02*
D03*
D15*
X271780Y273050D02*
D03*
X287020D02*
D03*
D16*
X174890Y331750D02*
D03*
Y336750D02*
D03*
Y341750D02*
D03*
Y346750D02*
D03*
Y351750D02*
D03*
Y356750D02*
D03*
Y361750D02*
D03*
Y366750D02*
D03*
X223890D02*
D03*
Y361750D02*
D03*
Y356750D02*
D03*
Y351750D02*
D03*
Y346750D02*
D03*
Y341750D02*
D03*
Y336750D02*
D03*
Y331750D02*
D03*
D17*
X181890Y373750D02*
D03*
X186890D02*
D03*
X191890D02*
D03*
X196890D02*
D03*
X201890D02*
D03*
X206890D02*
D03*
X211890D02*
D03*
X216890D02*
D03*
Y324750D02*
D03*
X211890D02*
D03*
X206890D02*
D03*
X201890D02*
D03*
X196890D02*
D03*
X191890D02*
D03*
X186890D02*
D03*
X181890D02*
D03*
D18*
X199390Y349250D02*
D03*
D19*
X64200Y450850D02*
D03*
X88200D02*
D03*
D20*
X130810Y477280D02*
D03*
Y447280D02*
D03*
X594360Y264400D02*
D03*
Y294400D02*
D03*
D21*
X405250Y227330D02*
D03*
X420250D02*
D03*
X198000Y295910D02*
D03*
X183000D02*
D03*
D22*
X441840Y104140D02*
D03*
X426840D02*
D03*
X271900Y298450D02*
D03*
X286900D02*
D03*
X271900Y444500D02*
D03*
X286900D02*
D03*
X286900Y314960D02*
D03*
X271900D02*
D03*
X119500Y419100D02*
D03*
X134500D02*
D03*
X128150Y298450D02*
D03*
X113150D02*
D03*
X152520Y295910D02*
D03*
X167520D02*
D03*
X229750D02*
D03*
X214750D02*
D03*
D23*
X137000Y336550D02*
D03*
X117000D02*
D03*
X137000Y393700D02*
D03*
X117000D02*
D03*
D24*
X286150Y381700D02*
D03*
Y389700D02*
D03*
Y397700D02*
D03*
Y405700D02*
D03*
X272650Y381700D02*
D03*
Y389700D02*
D03*
Y397700D02*
D03*
Y405700D02*
D03*
X590950Y325820D02*
D03*
Y333820D02*
D03*
Y341820D02*
D03*
Y349820D02*
D03*
X577450Y325820D02*
D03*
Y333820D02*
D03*
Y341820D02*
D03*
Y349820D02*
D03*
X135020Y356300D02*
D03*
Y364300D02*
D03*
Y372300D02*
D03*
Y380300D02*
D03*
X121520Y356300D02*
D03*
Y364300D02*
D03*
Y372300D02*
D03*
Y380300D02*
D03*
X286150Y226760D02*
D03*
Y234760D02*
D03*
Y242760D02*
D03*
Y250760D02*
D03*
X272650Y226760D02*
D03*
Y234760D02*
D03*
Y242760D02*
D03*
Y250760D02*
D03*
D25*
X290900Y365760D02*
D03*
X267900D02*
D03*
X290900Y342900D02*
D03*
X267900D02*
D03*
Y421640D02*
D03*
X290900D02*
D03*
X572700Y365760D02*
D03*
X595700D02*
D03*
D26*
X184150Y146170D02*
D03*
Y161170D02*
D03*
X255270Y146170D02*
D03*
Y161170D02*
D03*
D27*
X92280Y255930D02*
D03*
Y274930D02*
D03*
X70280Y265430D02*
D03*
D28*
X232710Y142900D02*
D03*
Y161900D02*
D03*
X206710Y142900D02*
D03*
Y152400D02*
D03*
Y161900D02*
D03*
D29*
X105500Y471530D02*
D03*
X21500D02*
D03*
Y516530D02*
D03*
X105500D02*
D03*
X21500Y494030D02*
D03*
D30*
X40640Y286430D02*
D03*
Y244430D02*
D03*
D31*
X255270Y115440D02*
D03*
Y67440D02*
D03*
X184150D02*
D03*
Y115440D02*
D03*
D32*
X106470Y197104D02*
D03*
Y173850D02*
D03*
Y150876D02*
D03*
D33*
X47470Y173850D02*
D03*
D34*
X237900Y27940D02*
D03*
X193900D02*
D03*
D59*
X208280Y398780D02*
D03*
Y424180D02*
D03*
X182880Y398780D02*
D03*
Y424180D02*
D03*
X636270Y304800D02*
D03*
Y279400D02*
D03*
Y254000D02*
D03*
X661670Y304800D02*
D03*
Y279400D02*
D03*
Y254000D02*
D03*
X157480Y449580D02*
D03*
X182880D02*
D03*
X208280D02*
D03*
X157480Y474980D02*
D03*
X182880D02*
D03*
X208280D02*
D03*
D67*
X285280Y273050D02*
X286150Y272180D01*
X294000Y228722D02*
Y232000D01*
X292038Y226760D02*
X294000Y228722D01*
X286150Y226760D02*
X292038D01*
X313182Y371348D02*
Y383540D01*
X307022Y389700D02*
X313182Y383540D01*
X286150Y389700D02*
X307022D01*
X307594Y365760D02*
X313182Y371348D01*
X290900Y365760D02*
X307594D01*
X307912Y397700D02*
X319786Y385826D01*
Y363728D02*
Y385826D01*
X310318Y354260D02*
X319786Y363728D01*
X461055Y270548D02*
X484116D01*
X419183Y312420D02*
X461055Y270548D01*
X328930Y312420D02*
X419183D01*
X465372Y255905D02*
X470535D01*
X418033Y303244D02*
X465372Y255905D01*
X350759Y303244D02*
X418033D01*
X484116Y270548D02*
X488315Y266349D01*
Y257175D02*
Y266349D01*
X534250Y331750D02*
X536320Y333820D01*
X216914Y324750D02*
X235750D01*
X318770Y300990D02*
X348505D01*
X271780Y273050D02*
X285280D01*
X137000Y336550D02*
Y340820D01*
X134920Y393700D02*
X137000D01*
X121520Y380300D02*
X134920Y393700D01*
X199500Y314750D02*
X246000D01*
X280354Y211426D02*
X286150Y217222D01*
Y226760D01*
X272250Y202500D02*
X280354Y210604D01*
Y211426D01*
X158300Y199950D02*
X168500D01*
X156500Y201750D02*
X158300Y199950D01*
X156500Y201750D02*
Y204750D01*
X158200Y206450D02*
X168500D01*
X156500Y204750D02*
X158200Y206450D01*
X184860D02*
X189230Y210820D01*
X168500Y206450D02*
X184860D01*
X235800Y199950D02*
X236380Y199370D01*
X212500Y199950D02*
X235800D01*
X143150Y193400D02*
X149500Y199750D01*
Y219000D01*
X164000Y233500D01*
X245000D01*
X251740Y226760D01*
X272650D01*
X302830Y405700D02*
X308610Y411480D01*
X286150Y405700D02*
X302830D01*
X260250Y397500D02*
Y400750D01*
Y393250D02*
Y397500D01*
X260450Y397700D01*
X272650D01*
X250190Y406400D02*
X254600D01*
X260250Y400750D01*
Y393250D02*
X263800Y389700D01*
X272650D01*
X235750Y324750D02*
X236820Y325820D01*
X577450D01*
X536320Y333820D02*
X577450D01*
X168500Y152250D02*
Y192652D01*
Y152250D02*
X174580Y146170D01*
X184150D01*
X291240Y234760D02*
X294000Y232000D01*
X286150Y234760D02*
X291240D01*
X262500Y202500D02*
X272250D01*
X258550Y206450D02*
X262500Y202500D01*
X212500Y206450D02*
X258550D01*
X168500Y212950D02*
Y223500D01*
X171750Y226750D01*
X241750D01*
X253870Y214630D01*
X269240D01*
X348505Y300990D02*
X350759Y303244D01*
X593090Y152410D02*
Y182880D01*
Y152410D02*
X603250Y142250D01*
Y125730D02*
Y142250D01*
X618490Y172720D02*
X628650Y162560D01*
Y125730D02*
Y162560D01*
X191516Y462026D02*
X203962Y449580D01*
X147574Y462026D02*
X191516D01*
X203962Y449580D02*
X208280D01*
X132828Y447280D02*
X147574Y462026D01*
X286150Y397700D02*
X307912D01*
X302260Y354260D02*
X310318D01*
X290900Y342900D02*
X302260Y354260D01*
X271780Y283330D02*
X286900Y298450D01*
X271780Y273050D02*
Y283330D01*
X406400Y25400D02*
X431800D01*
X130810Y447280D02*
X132828D01*
X600710Y341820D02*
Y346964D01*
X597854Y349820D02*
X600710Y346964D01*
X590950Y349820D02*
X597854D01*
X600710Y341820D02*
X624650D01*
X590950D02*
X600710D01*
X628922Y327660D02*
Y337548D01*
X624650Y341820D02*
X628922Y337548D01*
D68*
X90170Y427990D02*
X117000Y401160D01*
Y393700D02*
Y401160D01*
X110000Y225280D02*
X118745Y216535D01*
X110000Y225280D02*
Y245000D01*
X99070Y255930D02*
X110000Y245000D01*
X92280Y255930D02*
X99070D01*
X140250Y323500D02*
X153071Y336321D01*
X107750Y323500D02*
X140250D01*
X101500Y317250D02*
X107750Y323500D01*
X101500Y291750D02*
Y317250D01*
Y291750D02*
X108750Y284500D01*
Y272000D02*
Y284500D01*
X102180Y265430D02*
X108750Y272000D01*
X70280Y265430D02*
X102180D01*
X148750Y321750D02*
X157500D01*
X140690Y313690D02*
X148750Y321750D01*
X214220Y193450D02*
X223520Y184150D01*
X212500Y193450D02*
X214220D01*
X40640Y244430D02*
X49280D01*
X100419Y476611D02*
X105500Y471530D01*
X88900Y476611D02*
X100419D01*
X83819Y471530D02*
X88900Y476611D01*
X21500Y471530D02*
X83819D01*
X287020Y278130D02*
X302260Y293370D01*
X287020Y273050D02*
Y278130D01*
Y273050D02*
X312750Y247320D01*
X248920Y268080D02*
X266240Y250760D01*
X248920Y268080D02*
Y276860D01*
X266240Y250760D02*
X272650D01*
X248920Y276860D02*
Y311830D01*
X252050Y314960D01*
X112450Y380300D02*
X121520D01*
X102000Y390750D02*
X112450Y380300D01*
X102000Y390750D02*
Y403500D01*
X105000Y362750D02*
Y373500D01*
X99500Y379000D02*
X105000Y373500D01*
Y362750D02*
X111450Y356300D01*
X121520D01*
X137000Y340820D01*
X70500Y413000D02*
X92500D01*
X102000Y403500D01*
X259080Y298450D02*
X271900D01*
X252050Y314960D02*
X271900D01*
X246210D02*
X252050D01*
X246000Y314750D02*
X246210Y314960D01*
X286150Y272180D02*
X287020Y273050D01*
X286150Y250760D02*
Y272180D01*
X312750Y235246D02*
Y247320D01*
X286418Y208914D02*
X312750Y235246D01*
X286418Y105082D02*
Y208914D01*
Y105082D02*
X330200Y61300D01*
X311500Y179000D02*
Y219500D01*
X323850Y231850D01*
X330200Y25400D02*
Y61300D01*
X238760Y488950D02*
X252730Y474980D01*
Y452374D02*
Y474980D01*
X195000Y142900D02*
Y159300D01*
X197600Y161900D01*
X206710D01*
X374650Y161290D02*
X377190Y163830D01*
X374650Y125730D02*
Y161290D01*
X465000Y242250D02*
X588452D01*
X409562Y297688D02*
X465000Y242250D01*
X588452D02*
X594360Y248158D01*
X353060Y297688D02*
X409562D01*
X323850Y231850D02*
Y248920D01*
X298450Y165950D02*
X311500Y179000D01*
X298450Y125730D02*
Y165950D01*
X361750Y281740D02*
X363220Y283210D01*
X361750Y178616D02*
Y281740D01*
X349250Y166116D02*
X361750Y178616D01*
X335280Y260350D02*
X336804Y258826D01*
Y186436D02*
Y258826D01*
X323850Y173482D02*
X336804Y186436D01*
X323850Y125730D02*
Y173482D01*
X328422Y273050D02*
X353060Y297688D01*
X287020Y273050D02*
X328422D01*
X349250Y125730D02*
Y166116D01*
X598614Y333820D02*
X606298Y326136D01*
X590950Y333820D02*
X598614D01*
X566420Y309626D02*
X585978D01*
X590950Y314598D01*
Y325820D01*
X594360Y248158D02*
Y264400D01*
X238760Y488950D02*
Y508000D01*
X252730Y452374D02*
X260604Y444500D01*
X271900D01*
X636270Y226822D02*
Y254000D01*
X628650Y219202D02*
X636270Y226822D01*
X628650Y201930D02*
Y219202D01*
X167520Y276740D02*
Y295910D01*
X164830Y274050D02*
X167520Y276740D01*
X164830Y261620D02*
Y274050D01*
X213630Y294790D02*
X214750Y295910D01*
X213630Y261620D02*
Y294790D01*
X198000Y295910D02*
X214750D01*
X167520D02*
X183000D01*
X420250Y227330D02*
Y233560D01*
X422250Y235560D01*
Y248920D01*
X405250Y227330D02*
Y233560D01*
X403250Y235560D02*
X405250Y233560D01*
X403250Y235560D02*
Y248920D01*
X420250Y227330D02*
X425450Y222130D01*
Y201930D02*
Y222130D01*
X400050D02*
X405250Y227330D01*
X400050Y201930D02*
Y222130D01*
D69*
X286900Y314960D02*
X299720D01*
X223890Y331750D02*
X534250D01*
X153500Y336750D02*
X174890D01*
X153071Y336321D02*
X153500Y336750D01*
X167997Y342059D02*
X169400D01*
X167791Y342265D02*
X167997Y342059D01*
X163444Y342265D02*
X167791D01*
X169983Y346853D02*
X174787D01*
X169777Y347059D02*
X169983Y346853D01*
X161458Y347059D02*
X169777D01*
X161227Y351853D02*
X174787D01*
X149606Y363474D02*
X161227Y351853D01*
X169400Y342059D02*
X169709Y341750D01*
X174787Y346853D02*
X174890Y346750D01*
X174787Y351853D02*
X174890Y351750D01*
X161149Y346750D02*
X161458Y347059D01*
X162929Y341750D02*
X163444Y342265D01*
X157186Y346750D02*
X161149D01*
X149570Y341750D02*
X162929D01*
X169709D02*
X174890D01*
X167500Y331750D02*
X174890D01*
X157500Y321750D02*
X167500Y331750D01*
X226060Y466090D02*
Y483690D01*
X219250Y490500D02*
X226060Y483690D01*
X191890Y324750D02*
Y341750D01*
X199390Y349250D01*
X239014Y368808D02*
Y439986D01*
X216466Y462534D02*
X239014Y439986D01*
X197967Y462534D02*
X216466D01*
X162000Y490500D02*
X219250D01*
X157480Y485980D02*
X162000Y490500D01*
X157480Y474980D02*
Y485980D01*
X251460Y375920D02*
Y376210D01*
Y369824D02*
Y375920D01*
Y376210D02*
X256950Y381700D01*
X233386Y351750D02*
X251460Y369824D01*
X256950Y381700D02*
X272650D01*
X223890Y351750D02*
X233386D01*
X191890Y315348D02*
Y324750D01*
Y315348D02*
X199390Y307848D01*
X186890Y312651D02*
Y324750D01*
Y312651D02*
X188334Y311207D01*
Y305576D02*
Y311207D01*
Y305576D02*
X198000Y295910D01*
X181453Y310545D02*
Y324750D01*
Y310545D02*
X183000Y308998D01*
Y295910D02*
Y308998D01*
X199390Y307848D02*
X227584D01*
X265300Y405700D02*
X272650D01*
X254750Y416250D02*
X265300Y405700D01*
X254750Y416250D02*
Y427500D01*
X164750Y373750D02*
X181890D01*
X136000Y434250D02*
X161000Y409250D01*
Y377500D02*
Y409250D01*
Y377500D02*
X164750Y373750D01*
X130810Y467060D02*
Y477280D01*
X125000Y461250D02*
X130810Y467060D01*
X121000Y461250D02*
X125000D01*
X114500Y454750D02*
X121000Y461250D01*
X114500Y438750D02*
Y454750D01*
Y438750D02*
X119000Y434250D01*
X136000D01*
X254750Y427500D02*
X260610Y421640D01*
X267900D01*
X224536Y388366D02*
Y410972D01*
X216890Y380720D02*
X224536Y388366D01*
X234188Y371348D02*
Y427228D01*
X229590Y366750D02*
X234188Y371348D01*
X224028Y437388D02*
X234188Y427228D01*
X231956Y361750D02*
X239014Y368808D01*
X216890Y373750D02*
Y380720D01*
X169418Y410718D02*
X182880Y424180D01*
X169418Y389890D02*
Y410718D01*
Y389890D02*
X175260Y384048D01*
X191396D01*
X196787Y378657D01*
Y373853D02*
Y378657D01*
Y373853D02*
X196890Y373750D01*
X201890D02*
Y380334D01*
X183444Y398780D02*
X201890Y380334D01*
X182880Y398780D02*
X183444D01*
X206890Y373750D02*
Y382136D01*
X195834Y393192D02*
X206890Y382136D01*
X195834Y393192D02*
Y413938D01*
X206076Y424180D01*
X208280D01*
X223890Y361750D02*
X231956D01*
X208280Y398780D02*
X211890Y395170D01*
Y373750D02*
Y395170D01*
X185521Y474980D02*
X197967Y462534D01*
X182880Y474980D02*
X185521D01*
X195072Y437388D02*
X224028D01*
X182880Y449580D02*
X195072Y437388D01*
X223890Y366750D02*
X229590D01*
X134500Y419100D02*
X142748D01*
X154400Y407448D01*
Y367062D02*
Y407448D01*
Y367062D02*
X164712Y356750D01*
X174890D01*
X144780Y359156D02*
Y376174D01*
X140654Y380300D02*
X144780Y376174D01*
X135020Y380300D02*
X140654D01*
X123444Y407162D02*
X141732D01*
X119500Y411106D02*
X123444Y407162D01*
X119500Y411106D02*
Y419100D01*
X141732Y407162D02*
X149606Y399288D01*
Y363474D02*
Y399288D01*
X144780Y359156D02*
X157186Y346750D01*
X135020Y356300D02*
X149570Y341750D01*
X229750Y295910D02*
Y305682D01*
X227584Y307848D02*
X229750Y305682D01*
X257048Y365760D02*
X267900D01*
X233038Y341750D02*
X257048Y365760D01*
X223890Y341750D02*
X233038D01*
X130810Y477280D02*
X133110Y474980D01*
X157480D01*
X247650Y342900D02*
X267900D01*
X241500Y336750D02*
X247650Y342900D01*
X223890Y336750D02*
X241500D01*
D70*
X182880Y115440D02*
Y119070D01*
X69850Y288290D02*
X78920D01*
X92280Y274930D01*
X120650Y313690D02*
X140690D01*
X99500Y379000D02*
Y379150D01*
X85150Y393500D02*
X99500Y379150D01*
X65150Y393500D02*
Y407650D01*
X70500Y413000D01*
X88200Y450850D02*
X119500Y419550D01*
X355600Y25400D02*
Y60960D01*
X311150Y105410D02*
X355600Y60960D01*
X236380Y199370D02*
X242710Y193040D01*
X255270D01*
Y161170D02*
Y193040D01*
X143150Y193400D02*
X158242Y178308D01*
X139446Y197104D02*
X143150Y193400D01*
X181480Y116840D02*
X182880Y115440D01*
X168910Y116840D02*
X181480D01*
X195000Y142900D02*
X206710D01*
X187420D02*
X195000D01*
X158242Y99060D02*
X166624Y90678D01*
X158242Y99060D02*
Y178308D01*
X166624Y90678D02*
X237900D01*
X184150Y146170D02*
X187420Y142900D01*
X182880Y119070D02*
X206710Y142900D01*
X254540Y161900D02*
X255270Y161170D01*
X232710Y161900D02*
X254540D01*
X106470Y197104D02*
X139446D01*
D71*
X49280Y244430D02*
X70280Y265430D01*
X37000Y399650D02*
X88200Y450850D01*
X37000Y376250D02*
Y399650D01*
Y376250D02*
X44750Y368500D01*
X65150D01*
X119500Y419100D02*
Y419550D01*
X38050Y441200D02*
X47700Y450850D01*
X64200D01*
X463050Y82550D02*
X482600D01*
X457200Y76700D02*
X463050Y82550D01*
X457200Y25400D02*
Y76700D01*
X278130Y80010D02*
Y92580D01*
X255270Y115440D02*
X278130Y92580D01*
X598772Y232250D02*
X619760Y253238D01*
X485742Y232250D02*
X598772D01*
X476250Y222758D02*
X485742Y232250D01*
X76454Y348996D02*
X85150Y357692D01*
X28448Y348996D02*
X76454D01*
X11176Y331724D02*
X28448Y348996D01*
X38050Y320800D02*
X53800Y336550D01*
X117000D01*
X237900Y90678D02*
Y100610D01*
Y27940D02*
Y90678D01*
X619760Y294386D02*
Y318498D01*
Y253238D02*
Y294386D01*
X619746Y294400D02*
X619760Y294386D01*
X594360Y294400D02*
X619746D01*
X653796Y327660D02*
X661670Y319786D01*
X628922Y327660D02*
X653796D01*
X619760Y318498D02*
X628922Y327660D01*
X661670Y304800D02*
Y319786D01*
X476250Y201930D02*
Y222758D01*
Y177038D02*
Y201930D01*
X461010Y161798D02*
X476250Y177038D01*
X439928Y161798D02*
X461010D01*
X425450Y147320D02*
X439928Y161798D01*
X425450Y125730D02*
Y147320D01*
Y125730D02*
X426840Y124340D01*
Y104140D02*
Y124340D01*
Y73018D02*
Y104140D01*
X417830Y64008D02*
X426840Y73018D01*
X392176Y64008D02*
X417830D01*
X381000Y52832D02*
X392176Y64008D01*
X381000Y25400D02*
Y52832D01*
X237900Y100610D02*
X252730Y115440D01*
X85150Y357692D02*
Y368500D01*
X11176Y295656D02*
Y331724D01*
Y295656D02*
X20402Y286430D01*
X40640D01*
X173030Y27940D02*
X193900D01*
X117150Y83820D02*
X173030Y27940D01*
D72*
X258318Y245364D02*
X260922Y242760D01*
X272650D01*
D73*
X47470Y173850D02*
X106470D01*
D74*
X99625Y138000D02*
D03*
D75*
X660400Y355600D02*
D03*
Y76200D02*
D03*
X139700Y25400D02*
D03*
X152400Y508000D02*
D03*
D76*
X38050Y320800D02*
D03*
Y441200D02*
D03*
D77*
X65150Y393500D02*
D03*
X85150Y368500D02*
D03*
X65150D02*
D03*
X85150Y393500D02*
D03*
D78*
X298450Y125730D02*
D03*
X323850D02*
D03*
X349250D02*
D03*
X374650D02*
D03*
X400050D02*
D03*
X425450D02*
D03*
X450850D02*
D03*
X476250D02*
D03*
X501650D02*
D03*
X527050D02*
D03*
X552450D02*
D03*
X577850D02*
D03*
X603250D02*
D03*
X628650D02*
D03*
X298450Y201930D02*
D03*
X323850D02*
D03*
X349250D02*
D03*
X374650D02*
D03*
X400050D02*
D03*
X425450D02*
D03*
X450850D02*
D03*
X476250D02*
D03*
X501650D02*
D03*
X527050D02*
D03*
X552450D02*
D03*
X577850D02*
D03*
X603250D02*
D03*
X279400Y25400D02*
D03*
X304800D02*
D03*
X330200D02*
D03*
X355600D02*
D03*
X381000D02*
D03*
X406400D02*
D03*
X457200D02*
D03*
X431800D02*
D03*
X482600Y508000D02*
D03*
X457200D02*
D03*
X508000D02*
D03*
X533400D02*
D03*
X558800D02*
D03*
X584200D02*
D03*
X609600D02*
D03*
X635000D02*
D03*
Y25400D02*
D03*
X609600D02*
D03*
X584200D02*
D03*
X558800D02*
D03*
X533400D02*
D03*
X508000D02*
D03*
X187960Y508000D02*
D03*
X213360D02*
D03*
X264160D02*
D03*
X238760D02*
D03*
X289560D02*
D03*
X314960D02*
D03*
X340360D02*
D03*
X365760D02*
D03*
X391160D02*
D03*
X416560D02*
D03*
D79*
X628650Y201930D02*
D03*
D80*
X57150Y83820D02*
D03*
X117150D02*
D03*
D81*
X91150Y35820D02*
D03*
D82*
X164830Y261620D02*
D03*
X213630D02*
D03*
D83*
X90170Y427990D02*
D03*
X140970Y171450D02*
D03*
X303530Y376174D02*
D03*
X299720Y314960D02*
D03*
X306324Y342900D02*
D03*
X433324Y315214D02*
D03*
X471424Y292354D02*
D03*
X514350Y215900D02*
D03*
X411734Y179324D02*
D03*
X482600Y25400D02*
D03*
X271780Y142240D02*
D03*
X214884Y28194D02*
D03*
X292100Y62230D02*
D03*
X219710Y115570D02*
D03*
X166624Y68834D02*
D03*
X189230Y261620D02*
D03*
X120650Y247650D02*
D03*
X69850Y241300D02*
D03*
X114300Y127000D02*
D03*
X88900Y133350D02*
D03*
X76200Y152400D02*
D03*
Y196850D02*
D03*
X50800Y203200D02*
D03*
Y146050D02*
D03*
X25400Y215900D02*
D03*
Y173990D02*
D03*
Y133350D02*
D03*
X104140Y499110D02*
D03*
X436880Y508000D02*
D03*
X546100Y491490D02*
D03*
X646684Y405384D02*
D03*
Y473964D02*
D03*
X672084Y106934D02*
D03*
X672338Y177038D02*
D03*
X69850Y288290D02*
D03*
X88900Y476611D02*
D03*
X254512Y474523D02*
D03*
X226060Y466090D02*
D03*
X318770Y300990D02*
D03*
X302260Y293370D02*
D03*
X118745Y216535D02*
D03*
X88900Y215900D02*
D03*
X231140Y217170D02*
D03*
X248920Y276860D02*
D03*
X187452Y336042D02*
D03*
X120650Y313690D02*
D03*
X251460Y375920D02*
D03*
X259080Y298450D02*
D03*
X223520Y184150D02*
D03*
X482600Y82550D02*
D03*
X278130Y80010D02*
D03*
X311150Y105410D02*
D03*
X189230Y210820D02*
D03*
X255270Y193040D02*
D03*
X308610Y411480D02*
D03*
X250190Y406400D02*
D03*
X258318Y245364D02*
D03*
X168910Y116840D02*
D03*
X377190Y163830D02*
D03*
X269240Y214630D02*
D03*
X328930Y312420D02*
D03*
X488315Y257175D02*
D03*
X470535Y255905D02*
D03*
X618490Y172720D02*
D03*
X593090Y182880D02*
D03*
X323850Y248920D02*
D03*
X335280Y260350D02*
D03*
X363220Y283210D02*
D03*
X606298Y326136D02*
D03*
X566420Y309626D02*
D03*
X594360Y248158D02*
D03*
X224536Y410972D02*
D03*
M02*
