G04*
G04 #@! TF.GenerationSoftware,Altium Limited,Altium Designer,21.3.2 (30)*
G04*
G04 Layer_Color=65280*
%FSLAX24Y24*%
%MOIN*%
G70*
G04*
G04 #@! TF.SameCoordinates,6E726B93-E50A-4388-B932-66385DC3C8FA*
G04*
G04*
G04 #@! TF.FilePolarity,Positive*
G04*
G01*
G75*
%ADD10C,0.0100*%
%ADD14C,0.0020*%
%ADD15C,0.0060*%
D10*
X-3987Y39357D02*
X-3787Y38757D01*
X-4187D02*
X-3987Y39357D01*
X-4187Y587D02*
X-3987Y-13D01*
X-3787Y587D01*
X-3987Y21322D02*
Y39357D01*
Y-13D02*
Y17703D01*
X-4087Y39357D02*
X-248D01*
X-4087Y-13D02*
X-248D01*
X-50Y43294D02*
X550Y43494D01*
X-50Y43294D02*
X550Y43094D01*
X38720D02*
X39320Y43294D01*
X38720Y43494D02*
X39320Y43294D01*
X-50D02*
X17666D01*
X21285D02*
X39320D01*
X-50Y39555D02*
Y43394D01*
X39320Y39555D02*
Y43394D01*
D14*
X22537Y6524D02*
G03*
X23667Y6524I565J2D01*
G01*
X21820Y3150D02*
G03*
X21820Y3150I-256J0D01*
G01*
Y4150D02*
G03*
X21820Y4150I-256J0D01*
G01*
Y5150D02*
G03*
X21820Y5150I-256J0D01*
G01*
Y6150D02*
G03*
X21820Y6150I-256J0D01*
G01*
X24891Y3150D02*
G03*
X24891Y3150I-256J0D01*
G01*
Y4150D02*
G03*
X24891Y4150I-256J0D01*
G01*
Y5150D02*
G03*
X24891Y5150I-256J0D01*
G01*
Y6150D02*
G03*
X24891Y6150I-256J0D01*
G01*
X22537Y6524D02*
X23667Y6524D01*
X21194Y5780D02*
X21871Y5777D01*
X21194Y5780D02*
Y6522D01*
X21870D02*
X22537Y6524D01*
X23673Y6528D02*
X24334Y6534D01*
X21196Y6522D02*
X21870D01*
Y2803D02*
Y6522D01*
X24334Y2806D02*
Y6534D01*
X21870Y2803D02*
X24334Y2806D01*
X22019Y6219D02*
Y6153D01*
Y6186D01*
X22215D01*
X22183Y6219D01*
X22094Y3080D02*
X22291D01*
X22192Y3178D01*
Y3047D01*
X24218Y3042D02*
Y3173D01*
X24120D01*
X24153Y3108D01*
Y3075D01*
X24120Y3042D01*
X24054D01*
X24021Y3075D01*
Y3141D01*
X24054Y3173D01*
X24120Y6220D02*
X24153Y6188D01*
Y6122D01*
X24120Y6089D01*
X24087D01*
X24054Y6122D01*
X24021Y6089D01*
X23989D01*
X23956Y6122D01*
Y6188D01*
X23989Y6220D01*
X24021D01*
X24054Y6188D01*
X24087Y6220D01*
X24120D01*
X24054Y6188D02*
Y6122D01*
X22537Y6524D02*
G03*
X23667Y6524I565J2D01*
G01*
X21820Y3150D02*
G03*
X21820Y3150I-256J0D01*
G01*
Y4150D02*
G03*
X21820Y4150I-256J0D01*
G01*
Y5150D02*
G03*
X21820Y5150I-256J0D01*
G01*
Y6150D02*
G03*
X21820Y6150I-256J0D01*
G01*
X24891Y3150D02*
G03*
X24891Y3150I-256J0D01*
G01*
Y4150D02*
G03*
X24891Y4150I-256J0D01*
G01*
Y5150D02*
G03*
X24891Y5150I-256J0D01*
G01*
Y6150D02*
G03*
X24891Y6150I-256J0D01*
G01*
X22537Y6524D02*
X23667Y6524D01*
X21194Y5780D02*
X21871Y5777D01*
X21194Y5780D02*
Y6522D01*
X21870D02*
X22537Y6524D01*
X23673Y6528D02*
X24334Y6534D01*
X21196Y6522D02*
X21870D01*
Y2803D02*
Y6522D01*
X24334Y2806D02*
Y6534D01*
X21870Y2803D02*
X24334Y2806D01*
X22019Y6219D02*
Y6153D01*
Y6186D01*
X22215D01*
X22183Y6219D01*
X22094Y3080D02*
X22291D01*
X22192Y3178D01*
Y3047D01*
X24218Y3042D02*
Y3173D01*
X24120D01*
X24153Y3108D01*
Y3075D01*
X24120Y3042D01*
X24054D01*
X24021Y3075D01*
Y3141D01*
X24054Y3173D01*
X24120Y6220D02*
X24153Y6188D01*
Y6122D01*
X24120Y6089D01*
X24087D01*
X24054Y6122D01*
X24021Y6089D01*
X23989D01*
X23956Y6122D01*
Y6188D01*
X23989Y6220D01*
X24021D01*
X24054Y6188D01*
X24087Y6220D01*
X24120D01*
X24054Y6188D02*
Y6122D01*
D15*
X-3527Y17863D02*
Y18063D01*
Y17963D01*
X-4127D01*
X-4027Y17863D01*
Y18362D02*
X-4127Y18462D01*
Y18662D01*
X-4027Y18762D01*
X-3627D01*
X-3527Y18662D01*
Y18462D01*
X-3627Y18362D01*
X-4027D01*
Y18962D02*
X-4127Y19062D01*
Y19262D01*
X-4027Y19362D01*
X-3627D01*
X-3527Y19262D01*
Y19062D01*
X-3627Y18962D01*
X-4027D01*
X-3427Y19662D02*
X-3527Y19762D01*
X-3627D01*
Y19662D01*
X-3527D01*
Y19762D01*
X-3427Y19662D01*
X-3327Y19562D01*
X-4027Y20162D02*
X-4127Y20262D01*
Y20462D01*
X-4027Y20562D01*
X-3627D01*
X-3527Y20462D01*
Y20262D01*
X-3627Y20162D01*
X-4027D01*
Y20762D02*
X-4127Y20862D01*
Y21062D01*
X-4027Y21162D01*
X-3627D01*
X-3527Y21062D01*
Y20862D01*
X-3627Y20762D01*
X-4027D01*
X17826Y42834D02*
X18026D01*
X17926D01*
Y43434D01*
X17826Y43334D01*
X18325D02*
X18425Y43434D01*
X18625D01*
X18725Y43334D01*
Y42934D01*
X18625Y42834D01*
X18425D01*
X18325Y42934D01*
Y43334D01*
X18925D02*
X19025Y43434D01*
X19225D01*
X19325Y43334D01*
Y42934D01*
X19225Y42834D01*
X19025D01*
X18925Y42934D01*
Y43334D01*
X19625Y42734D02*
X19725Y42834D01*
Y42934D01*
X19625D01*
Y42834D01*
X19725D01*
X19625Y42734D01*
X19525Y42634D01*
X20125Y43334D02*
X20225Y43434D01*
X20425D01*
X20525Y43334D01*
Y42934D01*
X20425Y42834D01*
X20225D01*
X20125Y42934D01*
Y43334D01*
X20725D02*
X20825Y43434D01*
X21025D01*
X21125Y43334D01*
Y42934D01*
X21025Y42834D01*
X20825D01*
X20725Y42934D01*
Y43334D01*
M02*
