G04*
G04 #@! TF.GenerationSoftware,Altium Limited,Altium Designer,21.3.2 (30)*
G04*
G04 Layer_Physical_Order=2*
G04 Layer_Color=16711680*
%FSLAX24Y24*%
%MOIN*%
G70*
G04*
G04 #@! TF.SameCoordinates,6E726B93-E50A-4388-B932-66385DC3C8FA*
G04*
G04*
G04 #@! TF.FilePolarity,Positive*
G04*
G01*
G75*
%ADD10C,0.0100*%
%ADD14C,0.0020*%
%ADD15C,0.0060*%
%ADD29O,0.0591X0.0512*%
%ADD30R,0.0591X0.0512*%
%ADD31R,0.0650X0.1000*%
%ADD32O,0.0650X0.1000*%
%ADD33C,0.0551*%
%ADD34C,0.0700*%
%ADD35R,0.0900X0.0600*%
%ADD36O,0.0900X0.0600*%
%ADD37C,0.0512*%
%ADD38C,0.1100*%
%ADD39C,0.0750*%
%ADD40R,0.1000X0.0650*%
%ADD41O,0.1000X0.0650*%
%ADD42C,0.0394*%
%ADD43C,0.0197*%
G36*
X39062Y245D02*
X208D01*
Y39099D01*
X39062D01*
Y245D01*
D02*
G37*
%LPC*%
G36*
X22902Y37259D02*
X22537D01*
X22560Y37176D01*
X22622Y37068D01*
X22710Y36980D01*
X22818Y36918D01*
X22902Y36895D01*
Y37259D01*
D02*
G37*
G36*
X17213Y37209D02*
X16848D01*
Y36845D01*
X16932Y36868D01*
X17040Y36930D01*
X17128Y37018D01*
X17190Y37126D01*
X17213Y37209D01*
D02*
G37*
G36*
X16652D02*
X16287D01*
X16310Y37126D01*
X16372Y37018D01*
X16460Y36930D01*
X16568Y36868D01*
X16652Y36845D01*
Y37209D01*
D02*
G37*
G36*
X32798Y35121D02*
Y34756D01*
X33163D01*
X33140Y34840D01*
X33078Y34948D01*
X32990Y35036D01*
X32882Y35098D01*
X32798Y35121D01*
D02*
G37*
G36*
X8348D02*
Y34756D01*
X8713D01*
X8690Y34840D01*
X8628Y34948D01*
X8540Y35036D01*
X8432Y35098D01*
X8348Y35121D01*
D02*
G37*
G36*
X32602D02*
X32518Y35098D01*
X32410Y35036D01*
X32322Y34948D01*
X32260Y34840D01*
X32237Y34756D01*
X32602D01*
Y35121D01*
D02*
G37*
G36*
X8152D02*
X8068Y35098D01*
X7960Y35036D01*
X7872Y34948D01*
X7810Y34840D01*
X7787Y34756D01*
X8152D01*
Y35121D01*
D02*
G37*
G36*
X33163Y34559D02*
X32798D01*
Y34195D01*
X32882Y34218D01*
X32990Y34280D01*
X33078Y34368D01*
X33140Y34476D01*
X33163Y34559D01*
D02*
G37*
G36*
X8713D02*
X8348D01*
Y34195D01*
X8432Y34218D01*
X8540Y34280D01*
X8628Y34368D01*
X8690Y34476D01*
X8713Y34559D01*
D02*
G37*
G36*
X32602D02*
X32237D01*
X32260Y34476D01*
X32322Y34368D01*
X32410Y34280D01*
X32518Y34218D01*
X32602Y34195D01*
Y34559D01*
D02*
G37*
G36*
X8152D02*
X7787D01*
X7810Y34476D01*
X7872Y34368D01*
X7960Y34280D01*
X8068Y34218D01*
X8152Y34195D01*
Y34559D01*
D02*
G37*
G36*
X8348Y26771D02*
Y26406D01*
X8713D01*
X8690Y26490D01*
X8628Y26598D01*
X8540Y26686D01*
X8432Y26748D01*
X8348Y26771D01*
D02*
G37*
G36*
X8152D02*
X8068Y26748D01*
X7960Y26686D01*
X7872Y26598D01*
X7810Y26490D01*
X7787Y26406D01*
X8152D01*
Y26771D01*
D02*
G37*
G36*
X8713Y26209D02*
X8348D01*
Y25845D01*
X8432Y25868D01*
X8540Y25930D01*
X8628Y26018D01*
X8690Y26126D01*
X8713Y26209D01*
D02*
G37*
G36*
X8152D02*
X7787D01*
X7810Y26126D01*
X7872Y26018D01*
X7960Y25930D01*
X8068Y25868D01*
X8152Y25845D01*
Y26209D01*
D02*
G37*
G36*
X23285Y38223D02*
X12715D01*
X12648Y38214D01*
X12586Y38189D01*
X12533Y38148D01*
X6817Y32433D01*
X6776Y32379D01*
X6751Y32317D01*
X6742Y32250D01*
Y30150D01*
X6751Y30083D01*
X6776Y30021D01*
X6817Y29967D01*
X10166Y26619D01*
X10219Y26578D01*
X10268Y26558D01*
Y25743D01*
X11232D01*
Y26089D01*
X11280Y26099D01*
X11329Y25982D01*
X11406Y25881D01*
X11414Y25875D01*
X11417Y25825D01*
X8316Y22723D01*
X8307Y22725D01*
X8193D01*
X8083Y22696D01*
X7984Y22639D01*
X7903Y22558D01*
X7846Y22459D01*
X7817Y22349D01*
Y22235D01*
X7846Y22125D01*
X7903Y22026D01*
X7984Y21946D01*
X8083Y21889D01*
X8193Y21859D01*
X8307D01*
X8417Y21889D01*
X8516Y21946D01*
X8597Y22026D01*
X8654Y22125D01*
X8683Y22235D01*
Y22349D01*
X8681Y22358D01*
X11933Y25610D01*
X11974Y25663D01*
X11999Y25725D01*
X12008Y25792D01*
Y25815D01*
X12094Y25881D01*
X12171Y25982D01*
X12220Y26099D01*
X12237Y26225D01*
Y26575D01*
X12220Y26701D01*
X12171Y26818D01*
X12094Y26919D01*
X11993Y26996D01*
X11876Y27045D01*
X11750Y27062D01*
X11624Y27045D01*
X11507Y26996D01*
X11406Y26919D01*
X11329Y26818D01*
X11280Y26701D01*
X11232Y26711D01*
Y27057D01*
X10540D01*
X10523Y27060D01*
X10455D01*
X7258Y30257D01*
Y32143D01*
X12822Y37707D01*
X16410D01*
X16431Y37657D01*
X16372Y37598D01*
X16310Y37490D01*
X16287Y37406D01*
X16750D01*
X17213D01*
X17190Y37490D01*
X17128Y37598D01*
X17069Y37657D01*
X17090Y37707D01*
X22616D01*
X22635Y37661D01*
X22622Y37648D01*
X22560Y37540D01*
X22537Y37456D01*
X23000D01*
Y37358D01*
X23098D01*
Y36895D01*
X23182Y36918D01*
X23290Y36980D01*
X23378Y37068D01*
X23440Y37176D01*
X23472Y37296D01*
Y37347D01*
X23519Y37366D01*
X24492Y36393D01*
Y27407D01*
X23107Y26023D01*
X22269Y25184D01*
X22206Y25188D01*
X22176Y25226D01*
X22081Y25300D01*
X21969Y25346D01*
X21850Y25361D01*
X21550D01*
X21431Y25346D01*
X21319Y25300D01*
X21224Y25226D01*
X21196Y25190D01*
X21146Y25206D01*
Y25594D01*
X21196Y25610D01*
X21224Y25574D01*
X21319Y25500D01*
X21431Y25454D01*
X21550Y25439D01*
X21850D01*
X21969Y25454D01*
X22081Y25500D01*
X22176Y25574D01*
X22250Y25669D01*
X22296Y25781D01*
X22311Y25900D01*
X22296Y26019D01*
X22250Y26131D01*
X22176Y26226D01*
X22081Y26300D01*
X21969Y26346D01*
X21899Y26355D01*
Y26405D01*
X21980Y26416D01*
X22101Y26466D01*
X22204Y26546D01*
X22284Y26649D01*
X22334Y26770D01*
X22338Y26802D01*
X21700D01*
Y26998D01*
X22338D01*
X22334Y27030D01*
X22284Y27151D01*
X22204Y27254D01*
X22111Y27326D01*
X22098Y27383D01*
X23803Y29088D01*
X23844Y29141D01*
X23870Y29203D01*
X23878Y29270D01*
Y33836D01*
X23870Y33902D01*
X23844Y33965D01*
X23803Y34018D01*
X23143Y34678D01*
X23090Y34719D01*
X23028Y34744D01*
X22961Y34753D01*
X22080D01*
X22013Y34744D01*
X21951Y34719D01*
X21897Y34678D01*
X19985Y32765D01*
X19944Y32711D01*
X19918Y32649D01*
X19909Y32582D01*
Y31678D01*
X19859Y31668D01*
X19854Y31682D01*
X19813Y31736D01*
X17503Y34046D01*
X17449Y34087D01*
X17387Y34112D01*
X17320Y34121D01*
X15318D01*
X15251Y34112D01*
X15189Y34087D01*
X15135Y34046D01*
X13317Y32228D01*
X13276Y32174D01*
X13251Y32112D01*
X13242Y32045D01*
Y31957D01*
X13018D01*
Y30753D01*
X8669D01*
X8654Y30809D01*
X8597Y30908D01*
X8516Y30989D01*
X8417Y31046D01*
X8307Y31075D01*
X8193D01*
X8083Y31046D01*
X7984Y30989D01*
X7903Y30908D01*
X7846Y30809D01*
X7817Y30699D01*
Y30585D01*
X7846Y30475D01*
X7903Y30376D01*
X7984Y30296D01*
X8083Y30239D01*
X8193Y30209D01*
X8307D01*
X8417Y30239D01*
X8429Y30245D01*
X8493Y30237D01*
X14500D01*
X14567Y30246D01*
X14629Y30272D01*
X14683Y30313D01*
X14724Y30366D01*
X14749Y30428D01*
X14758Y30495D01*
Y30715D01*
X14844Y30781D01*
X14921Y30882D01*
X14970Y30999D01*
X14987Y31125D01*
Y31475D01*
X14970Y31601D01*
X14921Y31718D01*
X14844Y31819D01*
X14743Y31896D01*
X14626Y31945D01*
X14500Y31962D01*
X14374Y31945D01*
X14257Y31896D01*
X14156Y31819D01*
X14079Y31718D01*
X14030Y31601D01*
X13982Y31611D01*
Y31957D01*
X13843D01*
X13824Y32004D01*
X15425Y33605D01*
X16385D01*
X16395Y33581D01*
X16402Y33555D01*
X16346Y33459D01*
X16317Y33349D01*
Y33235D01*
X16346Y33125D01*
X16403Y33026D01*
X16484Y32946D01*
X16583Y32889D01*
X16693Y32859D01*
X16807D01*
X16816Y32861D01*
X18742Y30935D01*
Y30535D01*
X18656Y30469D01*
X18579Y30368D01*
X18530Y30251D01*
X18482Y30261D01*
Y30607D01*
X17518D01*
Y30052D01*
X17501Y30012D01*
X17492Y29945D01*
Y25250D01*
X17501Y25183D01*
X17526Y25121D01*
X17567Y25067D01*
X17917Y24717D01*
X17971Y24676D01*
X18033Y24651D01*
X18100Y24642D01*
X18171D01*
X18224Y24574D01*
X18319Y24500D01*
X18431Y24454D01*
X18550Y24439D01*
X18850D01*
X18969Y24454D01*
X19081Y24500D01*
X19176Y24574D01*
X19250Y24669D01*
X19296Y24781D01*
X19311Y24900D01*
X19296Y25019D01*
X19250Y25131D01*
X19176Y25226D01*
X19081Y25300D01*
X18969Y25346D01*
X18850Y25361D01*
X18550D01*
X18431Y25346D01*
X18319Y25300D01*
X18224Y25226D01*
X18210Y25208D01*
X18160Y25205D01*
X18008Y25357D01*
Y29293D01*
X18482D01*
Y29639D01*
X18530Y29649D01*
X18579Y29532D01*
X18656Y29431D01*
X18757Y29354D01*
X18874Y29305D01*
X19000Y29288D01*
X19126Y29305D01*
X19243Y29354D01*
X19322Y29414D01*
X19372Y29389D01*
Y28392D01*
X18517Y27538D01*
X18476Y27484D01*
X18451Y27422D01*
X18442Y27355D01*
Y27347D01*
X18431Y27346D01*
X18319Y27300D01*
X18224Y27226D01*
X18150Y27131D01*
X18104Y27019D01*
X18089Y26900D01*
X18104Y26781D01*
X18150Y26669D01*
X18224Y26574D01*
X18319Y26500D01*
X18431Y26454D01*
X18550Y26439D01*
X18850D01*
X18969Y26454D01*
X19081Y26500D01*
X19176Y26574D01*
X19250Y26669D01*
X19296Y26781D01*
X19311Y26900D01*
X19296Y27019D01*
X19250Y27131D01*
X19176Y27226D01*
X19081Y27300D01*
X19072Y27303D01*
X19062Y27352D01*
X19813Y28103D01*
X19854Y28156D01*
X19859Y28170D01*
X19909Y28160D01*
Y25816D01*
X19918Y25749D01*
X19944Y25686D01*
X19904Y25656D01*
X19478Y26083D01*
X19425Y26124D01*
X19362Y26149D01*
X19295Y26158D01*
X19229D01*
X19176Y26226D01*
X19081Y26300D01*
X18969Y26346D01*
X18850Y26361D01*
X18550D01*
X18431Y26346D01*
X18319Y26300D01*
X18224Y26226D01*
X18150Y26131D01*
X18104Y26019D01*
X18089Y25900D01*
X18104Y25781D01*
X18150Y25669D01*
X18224Y25574D01*
X18319Y25500D01*
X18431Y25454D01*
X18550Y25439D01*
X18850D01*
X18969Y25454D01*
X19081Y25500D01*
X19176Y25574D01*
X19188Y25589D01*
X19238Y25592D01*
X19842Y24989D01*
Y20392D01*
X19360Y19911D01*
X19308Y19928D01*
X19296Y20019D01*
X19250Y20131D01*
X19176Y20226D01*
X19081Y20300D01*
X18969Y20346D01*
X18899Y20355D01*
Y20405D01*
X18980Y20416D01*
X19101Y20466D01*
X19204Y20546D01*
X19284Y20649D01*
X19334Y20770D01*
X19338Y20802D01*
X18700D01*
X18062D01*
X18066Y20770D01*
X18116Y20649D01*
X18196Y20546D01*
X18299Y20466D01*
X18420Y20416D01*
X18501Y20405D01*
Y20355D01*
X18431Y20346D01*
X18319Y20300D01*
X18264Y20257D01*
X18098D01*
X16203Y22153D01*
X16129Y22210D01*
X16042Y22245D01*
X16054Y22292D01*
X16650D01*
X17224Y21717D01*
X17278Y21676D01*
X17340Y21651D01*
X17407Y21642D01*
X18171D01*
X18224Y21574D01*
X18319Y21500D01*
X18431Y21454D01*
X18501Y21445D01*
Y21395D01*
X18420Y21384D01*
X18299Y21334D01*
X18196Y21254D01*
X18116Y21151D01*
X18066Y21030D01*
X18062Y20998D01*
X18700D01*
X19338D01*
X19334Y21030D01*
X19284Y21151D01*
X19204Y21254D01*
X19101Y21334D01*
X18980Y21384D01*
X18899Y21395D01*
Y21445D01*
X18969Y21454D01*
X19081Y21500D01*
X19176Y21574D01*
X19250Y21669D01*
X19296Y21781D01*
X19311Y21900D01*
X19296Y22019D01*
X19250Y22131D01*
X19176Y22226D01*
X19081Y22300D01*
X18969Y22346D01*
X18899Y22355D01*
Y22405D01*
X18980Y22416D01*
X19101Y22466D01*
X19204Y22546D01*
X19284Y22649D01*
X19334Y22770D01*
X19338Y22802D01*
X18700D01*
X18062D01*
X18066Y22770D01*
X18116Y22649D01*
X18196Y22546D01*
X18299Y22466D01*
X18420Y22416D01*
X18501Y22405D01*
Y22355D01*
X18431Y22346D01*
X18319Y22300D01*
X18224Y22226D01*
X18171Y22158D01*
X17514D01*
X16939Y22733D01*
X16886Y22774D01*
X16824Y22799D01*
X16757Y22808D01*
X12400D01*
X12333Y22799D01*
X12271Y22774D01*
X12217Y22733D01*
X10367Y20883D01*
X10326Y20829D01*
X10301Y20767D01*
X10292Y20700D01*
Y18557D01*
X1117Y9383D01*
X1076Y9329D01*
X1051Y9267D01*
X1042Y9200D01*
Y1550D01*
X1051Y1483D01*
X1076Y1421D01*
X1117Y1367D01*
X1632Y853D01*
X1686Y812D01*
X1748Y786D01*
X1815Y777D01*
X29685D01*
X29752Y786D01*
X29814Y812D01*
X29868Y853D01*
X30233Y1217D01*
X30274Y1271D01*
X30299Y1333D01*
X30308Y1400D01*
Y4013D01*
X30362Y4044D01*
X30456Y4138D01*
X30523Y4254D01*
X30557Y4383D01*
Y4517D01*
X30523Y4646D01*
X30456Y4762D01*
X30362Y4856D01*
X30246Y4923D01*
X30117Y4957D01*
X29983D01*
X29854Y4923D01*
X29738Y4856D01*
X29644Y4762D01*
X29577Y4646D01*
X29543Y4517D01*
Y4383D01*
X29577Y4254D01*
X29644Y4138D01*
X29738Y4044D01*
X29792Y4013D01*
Y1507D01*
X29578Y1293D01*
X7810D01*
X7794Y1340D01*
X7803Y1347D01*
X8353Y1897D01*
X8353Y1897D01*
X8410Y1971D01*
X8445Y2058D01*
X8457Y2150D01*
Y3087D01*
X8553D01*
Y3143D01*
X10302D01*
X10693Y2752D01*
Y2683D01*
X10727Y2554D01*
X10794Y2438D01*
X10888Y2344D01*
X11004Y2277D01*
X11133Y2243D01*
X11267D01*
X11396Y2277D01*
X11512Y2344D01*
X11560Y2393D01*
X21165D01*
X21257Y2405D01*
X21343Y2440D01*
X21417Y2497D01*
X21565Y2645D01*
X22504Y1705D01*
X22504Y1705D01*
X22578Y1648D01*
X22664Y1613D01*
X22757Y1600D01*
X22757Y1600D01*
X26777D01*
X26869Y1613D01*
X26956Y1648D01*
X27030Y1705D01*
X27803Y2478D01*
X27860Y2552D01*
X27895Y2639D01*
X27907Y2731D01*
Y5419D01*
X27907Y5419D01*
X27895Y5512D01*
X27860Y5598D01*
X27803Y5672D01*
X27803Y5672D01*
X27072Y6403D01*
X26998Y6460D01*
X26912Y6495D01*
X26819Y6507D01*
X24843D01*
X24795Y6535D01*
X24690Y6563D01*
X24581D01*
X24476Y6535D01*
X24382Y6481D01*
X24305Y6404D01*
X24250Y6310D01*
X24222Y6204D01*
Y6096D01*
X24250Y5990D01*
X24305Y5896D01*
X24382Y5819D01*
X24476Y5765D01*
X24581Y5737D01*
X24690D01*
X24795Y5765D01*
X24843Y5793D01*
X26671D01*
X27193Y5271D01*
Y2879D01*
X26629Y2315D01*
X25011D01*
X24991Y2361D01*
X26572Y3943D01*
X26617D01*
X26746Y3977D01*
X26862Y4044D01*
X26956Y4138D01*
X27023Y4254D01*
X27057Y4383D01*
Y4517D01*
X27023Y4646D01*
X26956Y4762D01*
X26862Y4856D01*
X26746Y4923D01*
X26617Y4957D01*
X26483D01*
X26354Y4923D01*
X26238Y4856D01*
X26144Y4762D01*
X26077Y4646D01*
X26043Y4517D01*
Y4383D01*
X26077Y4254D01*
X26105Y4205D01*
X25094Y3194D01*
X25046Y3216D01*
X25021Y3310D01*
X24966Y3404D01*
X24889Y3481D01*
X24795Y3535D01*
X24690Y3563D01*
X24581D01*
X24476Y3535D01*
X24382Y3481D01*
X24305Y3404D01*
X24250Y3310D01*
X24222Y3204D01*
Y3096D01*
X24250Y2990D01*
X24305Y2896D01*
X24382Y2819D01*
X24476Y2765D01*
X24501Y2758D01*
X24494Y2708D01*
X23607D01*
X22448Y3867D01*
X22476Y3910D01*
X22498Y3901D01*
X22565Y3892D01*
X24309D01*
X24382Y3819D01*
X24476Y3765D01*
X24581Y3737D01*
X24690D01*
X24795Y3765D01*
X24889Y3819D01*
X24966Y3896D01*
X25021Y3990D01*
X25049Y4096D01*
Y4204D01*
X25021Y4310D01*
X24966Y4404D01*
X24889Y4481D01*
X24795Y4535D01*
X24690Y4563D01*
X24581D01*
X24476Y4535D01*
X24382Y4481D01*
X24309Y4408D01*
X22671D01*
X21978Y5102D01*
Y5204D01*
X21950Y5310D01*
X21895Y5404D01*
X21818Y5481D01*
X21724Y5535D01*
X21619Y5563D01*
X21510D01*
X21405Y5535D01*
X21311Y5481D01*
X21234Y5404D01*
X21179Y5310D01*
X21151Y5204D01*
Y5102D01*
X20608Y4558D01*
X19453D01*
Y4713D01*
X18547D01*
Y4252D01*
X17804Y3508D01*
X15157D01*
X14962Y3703D01*
X14982Y3780D01*
Y3920D01*
X14946Y4056D01*
X14876Y4177D01*
X14777Y4276D01*
X14656Y4346D01*
X14520Y4382D01*
X14380D01*
X14244Y4346D01*
X14123Y4276D01*
X14024Y4177D01*
X13954Y4056D01*
X13918Y3920D01*
Y3780D01*
X13954Y3644D01*
X14024Y3523D01*
X14123Y3424D01*
X14244Y3354D01*
X14380Y3318D01*
X14520D01*
X14597Y3338D01*
X14781Y3154D01*
X14762Y3107D01*
X11560D01*
X11512Y3156D01*
X11396Y3223D01*
X11267Y3257D01*
X11198D01*
X10703Y3753D01*
X10629Y3810D01*
X10543Y3845D01*
X10450Y3857D01*
X8553D01*
Y3913D01*
X7647D01*
Y3857D01*
X4184D01*
X4184Y3857D01*
X4091Y3845D01*
X4074Y3838D01*
X4051Y3861D01*
X3935Y3939D01*
X3806Y3992D01*
X3670Y4019D01*
X3530D01*
X3394Y3992D01*
X3265Y3939D01*
X3149Y3861D01*
X3050Y3763D01*
X2973Y3647D01*
X2920Y3518D01*
X2893Y3382D01*
Y3242D01*
X2920Y3106D01*
X2973Y2977D01*
X3050Y2861D01*
X3149Y2762D01*
X3265Y2685D01*
X3394Y2632D01*
X3530Y2604D01*
X3670D01*
X3806Y2632D01*
X3935Y2685D01*
X4051Y2762D01*
X4150Y2861D01*
X4227Y2977D01*
X4280Y3106D01*
X4285Y3127D01*
X4310Y3138D01*
X4316Y3143D01*
X7647D01*
Y3087D01*
X7743D01*
Y2298D01*
X7402Y1957D01*
X2179D01*
X2157Y1979D01*
Y8552D01*
X11503Y17897D01*
X11560Y17971D01*
X11595Y18058D01*
X11607Y18150D01*
Y20452D01*
X12698Y21543D01*
X15802D01*
X17697Y19647D01*
X17697Y19647D01*
X17771Y19590D01*
X17858Y19555D01*
X17950Y19543D01*
X17950Y19543D01*
X18264D01*
X18319Y19500D01*
X18431Y19454D01*
X18550Y19439D01*
X18818D01*
X18839Y19389D01*
X17187Y17738D01*
X17146Y17684D01*
X17121Y17622D01*
X17112Y17555D01*
Y10885D01*
X17121Y10818D01*
X17146Y10756D01*
X17187Y10703D01*
X17750Y10140D01*
X17731Y10094D01*
X17467D01*
X16568Y10992D01*
Y19790D01*
X16559Y19857D01*
X16534Y19919D01*
X16493Y19973D01*
X15333Y21133D01*
X15279Y21174D01*
X15217Y21199D01*
X15150Y21208D01*
X14497D01*
Y21432D01*
X13183D01*
Y20468D01*
X13529D01*
X13539Y20420D01*
X13422Y20371D01*
X13321Y20294D01*
X13244Y20193D01*
X13195Y20076D01*
X13178Y19950D01*
X13195Y19824D01*
X13244Y19707D01*
X13321Y19606D01*
X13422Y19529D01*
X13539Y19480D01*
X13582Y19474D01*
Y19262D01*
X8562Y14242D01*
X8516Y14289D01*
X8417Y14346D01*
X8307Y14375D01*
X8193D01*
X8083Y14346D01*
X7984Y14289D01*
X7903Y14208D01*
X7846Y14109D01*
X7817Y13999D01*
Y13885D01*
X7846Y13775D01*
X7903Y13676D01*
X7984Y13596D01*
X8083Y13539D01*
X8193Y13509D01*
X8307D01*
X8417Y13539D01*
X8516Y13596D01*
X8597Y13676D01*
X8601Y13684D01*
X8627D01*
X8694Y13693D01*
X8756Y13719D01*
X8810Y13760D01*
X14023Y18973D01*
X14064Y19026D01*
X14089Y19088D01*
X14098Y19155D01*
Y19474D01*
X14141Y19480D01*
X14258Y19529D01*
X14359Y19606D01*
X14436Y19707D01*
X14485Y19824D01*
X14502Y19950D01*
X14485Y20076D01*
X14436Y20193D01*
X14359Y20294D01*
X14258Y20371D01*
X14141Y20420D01*
X14151Y20468D01*
X14497D01*
Y20692D01*
X15043D01*
X16052Y19683D01*
Y10885D01*
X16061Y10818D01*
X16086Y10756D01*
X16127Y10703D01*
X17177Y9653D01*
X17231Y9612D01*
X17293Y9586D01*
X17360Y9577D01*
X19530D01*
X19597Y9586D01*
X19659Y9612D01*
X19713Y9653D01*
X21227Y11167D01*
X21275Y11163D01*
X21301Y11117D01*
X21252Y11032D01*
X21229Y10948D01*
X21692D01*
X22155D01*
X22132Y11032D01*
X22084Y11117D01*
X22111Y11167D01*
X23818D01*
X24888Y10097D01*
X24942Y10056D01*
X25004Y10030D01*
X25071Y10021D01*
X29074D01*
X29141Y10030D01*
X29203Y10056D01*
X29257Y10097D01*
X33990Y14830D01*
X34031Y14884D01*
X34057Y14946D01*
X34066Y15013D01*
Y17386D01*
X34057Y17453D01*
X34031Y17515D01*
X33990Y17569D01*
X32387Y19172D01*
Y19835D01*
X32437Y19864D01*
X32518Y19818D01*
X32602Y19795D01*
Y20258D01*
Y20721D01*
X32518Y20698D01*
X32437Y20652D01*
X32387Y20681D01*
Y23869D01*
X32437Y23898D01*
X32518Y23852D01*
X32602Y23829D01*
Y24292D01*
X32700D01*
Y24391D01*
X33163D01*
X33140Y24474D01*
X33078Y24582D01*
X32990Y24670D01*
X32882Y24732D01*
X32762Y24765D01*
X32694D01*
X32674Y24815D01*
X34341Y26481D01*
X34382Y26535D01*
X34407Y26597D01*
X34416Y26664D01*
Y31217D01*
X34407Y31284D01*
X34382Y31346D01*
X34341Y31399D01*
X33453Y32288D01*
X33399Y32329D01*
X33337Y32354D01*
X33270Y32363D01*
X25370D01*
X25303Y32354D01*
X25241Y32329D01*
X25187Y32288D01*
X25054Y32154D01*
X25008Y32174D01*
Y36500D01*
X24999Y36567D01*
X24974Y36629D01*
X24933Y36683D01*
X23468Y38148D01*
X23414Y38189D01*
X23352Y38214D01*
X23285Y38223D01*
D02*
G37*
G36*
X33163Y24194D02*
X32798D01*
Y23829D01*
X32882Y23852D01*
X32990Y23914D01*
X33078Y24002D01*
X33140Y24110D01*
X33163Y24194D01*
D02*
G37*
G36*
X18850Y24361D02*
X18550D01*
X18431Y24346D01*
X18319Y24300D01*
X18224Y24226D01*
X18150Y24131D01*
X18104Y24019D01*
X18089Y23900D01*
X18104Y23781D01*
X18150Y23669D01*
X18224Y23574D01*
X18319Y23500D01*
X18431Y23454D01*
X18501Y23445D01*
Y23395D01*
X18420Y23384D01*
X18299Y23334D01*
X18196Y23254D01*
X18116Y23151D01*
X18066Y23030D01*
X18062Y22998D01*
X18700D01*
X19338D01*
X19334Y23030D01*
X19284Y23151D01*
X19204Y23254D01*
X19101Y23334D01*
X18980Y23384D01*
X18899Y23395D01*
Y23445D01*
X18969Y23454D01*
X19081Y23500D01*
X19176Y23574D01*
X19250Y23669D01*
X19296Y23781D01*
X19311Y23900D01*
X19296Y24019D01*
X19250Y24131D01*
X19176Y24226D01*
X19081Y24300D01*
X18969Y24346D01*
X18850Y24361D01*
D02*
G37*
G36*
X32798Y20721D02*
Y20356D01*
X33163D01*
X33140Y20440D01*
X33078Y20548D01*
X32990Y20636D01*
X32882Y20698D01*
X32798Y20721D01*
D02*
G37*
G36*
X33163Y20159D02*
X32798D01*
Y19795D01*
X32882Y19818D01*
X32990Y19880D01*
X33078Y19968D01*
X33140Y20076D01*
X33163Y20159D01*
D02*
G37*
G36*
X8348Y18421D02*
Y18056D01*
X8713D01*
X8690Y18140D01*
X8628Y18248D01*
X8540Y18336D01*
X8432Y18398D01*
X8348Y18421D01*
D02*
G37*
G36*
X8152D02*
X8068Y18398D01*
X7960Y18336D01*
X7872Y18248D01*
X7810Y18140D01*
X7787Y18056D01*
X8152D01*
Y18421D01*
D02*
G37*
G36*
X8713Y17859D02*
X8348D01*
Y17495D01*
X8432Y17518D01*
X8540Y17580D01*
X8628Y17668D01*
X8690Y17776D01*
X8713Y17859D01*
D02*
G37*
G36*
X8152D02*
X7787D01*
X7810Y17776D01*
X7872Y17668D01*
X7960Y17580D01*
X8068Y17518D01*
X8152Y17495D01*
Y17859D01*
D02*
G37*
G36*
X14841Y11263D02*
Y10898D01*
X15205D01*
X15182Y10982D01*
X15120Y11090D01*
X15032Y11178D01*
X14924Y11240D01*
X14841Y11263D01*
D02*
G37*
G36*
X14644D02*
X14560Y11240D01*
X14452Y11178D01*
X14364Y11090D01*
X14302Y10982D01*
X14279Y10898D01*
X14644D01*
Y11263D01*
D02*
G37*
G36*
X22155Y10752D02*
X21791D01*
Y10387D01*
X21874Y10410D01*
X21982Y10472D01*
X22070Y10560D01*
X22132Y10668D01*
X22155Y10752D01*
D02*
G37*
G36*
X21594D02*
X21229D01*
X21252Y10668D01*
X21314Y10560D01*
X21402Y10472D01*
X21510Y10410D01*
X21594Y10387D01*
Y10752D01*
D02*
G37*
G36*
X15205Y10702D02*
X14841D01*
Y10337D01*
X14924Y10360D01*
X15032Y10422D01*
X15120Y10510D01*
X15182Y10618D01*
X15205Y10702D01*
D02*
G37*
G36*
X14644D02*
X14279D01*
X14302Y10618D01*
X14364Y10510D01*
X14452Y10422D01*
X14560Y10360D01*
X14644Y10337D01*
Y10702D01*
D02*
G37*
G36*
X22007Y6052D02*
X21663D01*
Y5708D01*
X21739Y5728D01*
X21843Y5788D01*
X21927Y5872D01*
X21986Y5975D01*
X22007Y6052D01*
D02*
G37*
G36*
X21466D02*
X21122D01*
X21143Y5975D01*
X21202Y5872D01*
X21287Y5788D01*
X21390Y5728D01*
X21466Y5708D01*
Y6052D01*
D02*
G37*
G36*
X3698Y6054D02*
Y5410D01*
X4342D01*
X4318Y5530D01*
X4262Y5666D01*
X4180Y5788D01*
X4076Y5892D01*
X3954Y5974D01*
X3818Y6030D01*
X3698Y6054D01*
D02*
G37*
G36*
X3502D02*
X3382Y6030D01*
X3246Y5974D01*
X3124Y5892D01*
X3020Y5788D01*
X2938Y5666D01*
X2882Y5530D01*
X2858Y5410D01*
X3502D01*
Y6054D01*
D02*
G37*
G36*
X19098Y5749D02*
Y5398D01*
X19483D01*
X19480Y5418D01*
X19435Y5528D01*
X19362Y5623D01*
X19268Y5695D01*
X19158Y5741D01*
X19098Y5749D01*
D02*
G37*
G36*
X18902D02*
X18842Y5741D01*
X18732Y5695D01*
X18638Y5623D01*
X18565Y5528D01*
X18520Y5418D01*
X18517Y5398D01*
X18902D01*
Y5749D01*
D02*
G37*
G36*
X22885Y7058D02*
X18400D01*
X18333Y7049D01*
X18271Y7024D01*
X18217Y6983D01*
X16597Y5362D01*
X16520Y5382D01*
X16380D01*
X16303Y5362D01*
X15633Y6033D01*
X15579Y6074D01*
X15517Y6099D01*
X15450Y6108D01*
X14916D01*
X14876Y6177D01*
X14777Y6276D01*
X14656Y6346D01*
X14520Y6382D01*
X14380D01*
X14244Y6346D01*
X14198Y6319D01*
X14085Y6433D01*
X14031Y6474D01*
X13969Y6499D01*
X13902Y6508D01*
X11637D01*
X11606Y6562D01*
X11512Y6656D01*
X11396Y6723D01*
X11267Y6757D01*
X11133D01*
X11004Y6723D01*
X10888Y6656D01*
X10794Y6562D01*
X10727Y6446D01*
X10693Y6317D01*
Y6183D01*
X10727Y6054D01*
X10794Y5938D01*
X10888Y5844D01*
X11004Y5777D01*
X11133Y5743D01*
X11267D01*
X11396Y5777D01*
X11512Y5844D01*
X11606Y5938D01*
X11637Y5992D01*
X13795D01*
X13918Y5870D01*
Y5780D01*
X13954Y5644D01*
X14024Y5523D01*
X14123Y5424D01*
X14244Y5354D01*
X14380Y5318D01*
X14520D01*
X14656Y5354D01*
X14777Y5424D01*
X14876Y5523D01*
X14916Y5592D01*
X15343D01*
X15938Y4997D01*
X15918Y4920D01*
Y4780D01*
X15954Y4644D01*
X16024Y4523D01*
X16123Y4424D01*
X16244Y4354D01*
X16380Y4318D01*
X16520D01*
X16656Y4354D01*
X16777Y4424D01*
X16876Y4523D01*
X16946Y4644D01*
X16982Y4780D01*
Y4920D01*
X16962Y4997D01*
X18507Y6542D01*
X21245D01*
X21266Y6492D01*
X21202Y6428D01*
X21143Y6325D01*
X21122Y6248D01*
X21565D01*
X22007D01*
X21986Y6325D01*
X21927Y6428D01*
X21863Y6492D01*
X21884Y6542D01*
X22742D01*
Y5850D01*
X22751Y5783D01*
X22776Y5721D01*
X22817Y5667D01*
X23517Y4967D01*
X23571Y4926D01*
X23633Y4901D01*
X23700Y4892D01*
X24309D01*
X24382Y4819D01*
X24476Y4765D01*
X24581Y4737D01*
X24690D01*
X24795Y4765D01*
X24889Y4819D01*
X24966Y4896D01*
X25021Y4990D01*
X25049Y5096D01*
Y5204D01*
X25021Y5310D01*
X24966Y5404D01*
X24889Y5481D01*
X24795Y5535D01*
X24690Y5563D01*
X24581D01*
X24476Y5535D01*
X24382Y5481D01*
X24309Y5408D01*
X23807D01*
X23258Y5957D01*
Y6685D01*
X23249Y6751D01*
X23224Y6814D01*
X23183Y6867D01*
X23067Y6983D01*
X23014Y7024D01*
X22951Y7049D01*
X22885Y7058D01*
D02*
G37*
G36*
X19483Y5202D02*
X19098D01*
Y4851D01*
X19158Y4859D01*
X19268Y4905D01*
X19362Y4977D01*
X19435Y5072D01*
X19480Y5182D01*
X19483Y5202D01*
D02*
G37*
G36*
X18902D02*
X18517D01*
X18520Y5182D01*
X18565Y5072D01*
X18638Y4977D01*
X18732Y4905D01*
X18842Y4859D01*
X18902Y4851D01*
Y5202D01*
D02*
G37*
G36*
X8198Y4949D02*
Y4598D01*
X8583D01*
X8580Y4618D01*
X8535Y4728D01*
X8462Y4823D01*
X8368Y4895D01*
X8258Y4941D01*
X8198Y4949D01*
D02*
G37*
G36*
X8002D02*
X7942Y4941D01*
X7832Y4895D01*
X7738Y4823D01*
X7665Y4728D01*
X7620Y4618D01*
X7617Y4598D01*
X8002D01*
Y4949D01*
D02*
G37*
G36*
X4342Y5214D02*
X3698D01*
Y4570D01*
X3818Y4594D01*
X3954Y4650D01*
X4076Y4732D01*
X4180Y4836D01*
X4262Y4958D01*
X4318Y5094D01*
X4342Y5214D01*
D02*
G37*
G36*
X3502D02*
X2858D01*
X2882Y5094D01*
X2938Y4958D01*
X3020Y4836D01*
X3124Y4732D01*
X3246Y4650D01*
X3382Y4594D01*
X3502Y4570D01*
Y5214D01*
D02*
G37*
G36*
X8583Y4402D02*
X8198D01*
Y4051D01*
X8258Y4059D01*
X8368Y4105D01*
X8462Y4177D01*
X8535Y4272D01*
X8580Y4382D01*
X8583Y4402D01*
D02*
G37*
G36*
X8002D02*
X7617D01*
X7620Y4382D01*
X7665Y4272D01*
X7738Y4177D01*
X7832Y4105D01*
X7942Y4059D01*
X8002Y4051D01*
Y4402D01*
D02*
G37*
%LPD*%
G36*
X23362Y33729D02*
Y33663D01*
X23312Y33642D01*
X23266Y33689D01*
X23167Y33746D01*
X23057Y33775D01*
X22943D01*
X22833Y33746D01*
X22734Y33689D01*
X22653Y33608D01*
X22596Y33509D01*
X22567Y33399D01*
Y33285D01*
X22596Y33175D01*
X22653Y33076D01*
X22734Y32996D01*
X22742Y32991D01*
Y30535D01*
X22656Y30469D01*
X22579Y30368D01*
X22530Y30251D01*
X22482Y30261D01*
Y30607D01*
X21518D01*
Y29293D01*
X21518Y29293D01*
X21518D01*
X21499Y29249D01*
X20472Y28222D01*
X20425Y28241D01*
Y32475D01*
X22187Y34237D01*
X22854D01*
X23362Y33729D01*
D02*
G37*
G36*
Y33021D02*
Y30518D01*
X23312Y30494D01*
X23258Y30535D01*
Y32991D01*
X23266Y32996D01*
X23312Y33042D01*
X23362Y33021D01*
D02*
G37*
G36*
X19372Y31446D02*
Y30511D01*
X19322Y30486D01*
X19258Y30535D01*
Y31042D01*
X19249Y31109D01*
X19224Y31171D01*
X19183Y31225D01*
X17181Y33226D01*
X17183Y33235D01*
Y33349D01*
X17154Y33459D01*
X17098Y33555D01*
X17105Y33581D01*
X17115Y33605D01*
X17213D01*
X19372Y31446D01*
D02*
G37*
G36*
X33900Y31110D02*
Y26771D01*
X31947Y24818D01*
X31906Y24764D01*
X31880Y24702D01*
X31871Y24635D01*
Y19065D01*
X31880Y18998D01*
X31906Y18936D01*
X31947Y18883D01*
X33550Y17279D01*
Y17161D01*
X33500Y17140D01*
X29143Y21498D01*
X29089Y21539D01*
X29027Y21564D01*
X28960Y21573D01*
X25120D01*
X25053Y21564D01*
X24991Y21539D01*
X24937Y21498D01*
X23598Y20158D01*
X22307D01*
Y20357D01*
X21093D01*
Y19643D01*
X21046Y19624D01*
X20752Y19918D01*
Y22268D01*
X20798Y22287D01*
X21100Y21985D01*
X21089Y21900D01*
X21104Y21781D01*
X21150Y21669D01*
X21224Y21574D01*
X21319Y21500D01*
X21431Y21454D01*
X21550Y21439D01*
X21850D01*
X21969Y21454D01*
X22081Y21500D01*
X22176Y21574D01*
X22250Y21669D01*
X22296Y21781D01*
X22311Y21900D01*
X22296Y22019D01*
X22250Y22131D01*
X22176Y22226D01*
X22081Y22300D01*
X21969Y22346D01*
X21850Y22361D01*
X21550D01*
X21465Y22350D01*
X21404Y22411D01*
X21430Y22453D01*
X21432Y22454D01*
X21550Y22439D01*
X21850D01*
X21969Y22454D01*
X22081Y22500D01*
X22176Y22574D01*
X22229Y22642D01*
X23745D01*
X23812Y22651D01*
X23874Y22676D01*
X23927Y22717D01*
X27402Y26192D01*
X29068D01*
Y25743D01*
X30032D01*
Y26089D01*
X30080Y26099D01*
X30129Y25982D01*
X30206Y25881D01*
X30307Y25804D01*
X30424Y25755D01*
X30550Y25738D01*
X30676Y25755D01*
X30793Y25804D01*
X30894Y25881D01*
X30971Y25982D01*
X31020Y26099D01*
X31037Y26225D01*
Y26575D01*
X31020Y26701D01*
X30971Y26818D01*
X30894Y26919D01*
X30886Y26925D01*
X30883Y26975D01*
X31957Y28050D01*
X32349D01*
X32353Y28042D01*
X32434Y27961D01*
X32533Y27904D01*
X32643Y27875D01*
X32757D01*
X32867Y27904D01*
X32966Y27961D01*
X32976Y27971D01*
X33022Y27952D01*
Y27337D01*
X30993Y25308D01*
X27500D01*
X27433Y25299D01*
X27371Y25274D01*
X27317Y25233D01*
X23243Y21158D01*
X22229D01*
X22176Y21226D01*
X22081Y21300D01*
X21969Y21346D01*
X21850Y21361D01*
X21550D01*
X21431Y21346D01*
X21319Y21300D01*
X21224Y21226D01*
X21150Y21131D01*
X21104Y21019D01*
X21089Y20900D01*
X21104Y20781D01*
X21150Y20669D01*
X21224Y20574D01*
X21319Y20500D01*
X21431Y20454D01*
X21550Y20439D01*
X21850D01*
X21969Y20454D01*
X22081Y20500D01*
X22176Y20574D01*
X22229Y20642D01*
X23350D01*
X23417Y20651D01*
X23479Y20676D01*
X23533Y20717D01*
X27607Y24792D01*
X31100D01*
X31167Y24801D01*
X31229Y24826D01*
X31283Y24867D01*
X33463Y27047D01*
X33504Y27101D01*
X33529Y27163D01*
X33538Y27230D01*
Y28885D01*
X33529Y28952D01*
X33504Y29014D01*
X33463Y29068D01*
X32453Y30078D01*
X32399Y30119D01*
X32337Y30144D01*
X32270Y30153D01*
X26957D01*
X26608Y30502D01*
Y30643D01*
X26832D01*
Y30989D01*
X26880Y30999D01*
X26929Y30882D01*
X27006Y30781D01*
X27107Y30704D01*
X27224Y30655D01*
X27350Y30638D01*
X27476Y30655D01*
X27585Y30700D01*
X27825Y30460D01*
X27879Y30419D01*
X27941Y30393D01*
X28008Y30384D01*
X32349D01*
X32353Y30376D01*
X32434Y30296D01*
X32533Y30239D01*
X32643Y30209D01*
X32757D01*
X32867Y30239D01*
X32966Y30296D01*
X33047Y30376D01*
X33104Y30475D01*
X33133Y30585D01*
Y30699D01*
X33104Y30809D01*
X33047Y30908D01*
X32966Y30989D01*
X32867Y31046D01*
X32757Y31075D01*
X32643D01*
X32533Y31046D01*
X32434Y30989D01*
X32353Y30908D01*
X32349Y30900D01*
X28115D01*
X27837Y31178D01*
Y31475D01*
X27820Y31601D01*
X27771Y31718D01*
X27711Y31797D01*
X27736Y31847D01*
X33163D01*
X33900Y31110D01*
D02*
G37*
G36*
X25868Y30643D02*
X26092D01*
Y30395D01*
X26101Y30328D01*
X26126Y30266D01*
X26167Y30213D01*
X26667Y29713D01*
X26721Y29672D01*
X26783Y29646D01*
X26850Y29637D01*
X32163D01*
X33022Y28778D01*
Y28664D01*
X32976Y28645D01*
X32966Y28654D01*
X32867Y28711D01*
X32757Y28741D01*
X32643D01*
X32533Y28711D01*
X32434Y28654D01*
X32353Y28574D01*
X32349Y28566D01*
X31850D01*
X31783Y28557D01*
X31721Y28531D01*
X31667Y28490D01*
X30367Y27190D01*
X30326Y27137D01*
X30301Y27075D01*
X30292Y27008D01*
Y26985D01*
X30206Y26919D01*
X30129Y26818D01*
X30080Y26701D01*
X30032Y26711D01*
Y27057D01*
X29068D01*
Y26708D01*
X27295D01*
X27228Y26699D01*
X27166Y26674D01*
X27112Y26633D01*
X23638Y23158D01*
X22229D01*
X22176Y23226D01*
X22081Y23300D01*
X21969Y23346D01*
X21850Y23361D01*
X21550D01*
X21431Y23346D01*
X21319Y23300D01*
X21224Y23226D01*
X21196Y23190D01*
X21146Y23206D01*
Y23594D01*
X21196Y23610D01*
X21224Y23574D01*
X21319Y23500D01*
X21431Y23454D01*
X21550Y23439D01*
X21850D01*
X21969Y23454D01*
X22081Y23500D01*
X22176Y23574D01*
X22229Y23642D01*
X22910D01*
X22977Y23651D01*
X23039Y23676D01*
X23093Y23717D01*
X25326Y25951D01*
X25367Y26005D01*
X25393Y26067D01*
X25402Y26134D01*
Y31772D01*
X25477Y31847D01*
X25868D01*
Y30643D01*
D02*
G37*
G36*
X22579Y29532D02*
X22656Y29431D01*
X22757Y29354D01*
X22874Y29305D01*
X23000Y29288D01*
X23126Y29305D01*
X23243Y29354D01*
X23272Y29375D01*
X23326Y29354D01*
X23328Y29343D01*
X21738Y27753D01*
X20955D01*
X20888Y27745D01*
X20869Y27737D01*
X20819Y27770D01*
Y27839D01*
X22183Y29203D01*
X22224Y29256D01*
X22239Y29293D01*
X22482D01*
Y29639D01*
X22530Y29649D01*
X22579Y29532D01*
D02*
G37*
G36*
X24886Y27005D02*
Y26241D01*
X22803Y24158D01*
X22229D01*
X22176Y24226D01*
X22081Y24300D01*
X21969Y24346D01*
X21850Y24361D01*
X21550D01*
X21431Y24346D01*
X21319Y24300D01*
X21224Y24226D01*
X21196Y24190D01*
X21146Y24206D01*
Y24594D01*
X21196Y24610D01*
X21224Y24574D01*
X21319Y24500D01*
X21431Y24454D01*
X21550Y24439D01*
X21850D01*
X21969Y24454D01*
X22081Y24500D01*
X22176Y24574D01*
X22229Y24642D01*
X22350D01*
X22417Y24651D01*
X22479Y24676D01*
X22533Y24717D01*
X23473Y25657D01*
X23473Y25657D01*
X24839Y27024D01*
X24886Y27005D01*
D02*
G37*
G36*
X25868Y19793D02*
X25917D01*
X25936Y19746D01*
X25743Y19553D01*
X22307D01*
Y19642D01*
X23705D01*
X23772Y19651D01*
X23834Y19676D01*
X23887Y19717D01*
X25227Y21057D01*
X25868D01*
Y19793D01*
D02*
G37*
G36*
X26929Y20032D02*
X27006Y19931D01*
X27092Y19865D01*
Y19815D01*
X27101Y19748D01*
X27126Y19686D01*
X27167Y19633D01*
X29643Y17157D01*
X29618Y17114D01*
X29592Y17124D01*
X29525Y17133D01*
X18000D01*
X17933Y17124D01*
X17871Y17099D01*
X17817Y17058D01*
X17776Y17004D01*
X17751Y16942D01*
X17742Y16875D01*
Y16707D01*
X17628D01*
Y17448D01*
X20189Y20009D01*
X20236Y19990D01*
Y19811D01*
X20244Y19745D01*
X20270Y19682D01*
X20311Y19629D01*
X20827Y19113D01*
X20881Y19072D01*
X20943Y19046D01*
X21010Y19037D01*
X25850D01*
X25917Y19046D01*
X25979Y19072D01*
X26033Y19113D01*
X26533Y19613D01*
X26574Y19666D01*
X26599Y19728D01*
X26608Y19793D01*
X26832D01*
Y20139D01*
X26880Y20149D01*
X26929Y20032D01*
D02*
G37*
G36*
X33092Y16818D02*
Y16520D01*
X33085Y16518D01*
X33042Y16513D01*
X32966Y16589D01*
X32867Y16646D01*
X32757Y16675D01*
X32643D01*
X32533Y16646D01*
X32434Y16589D01*
X32353Y16508D01*
X32349Y16500D01*
X31030D01*
X27667Y19863D01*
X27670Y19913D01*
X27694Y19931D01*
X27771Y20032D01*
X27820Y20149D01*
X27837Y20275D01*
Y20625D01*
X27820Y20751D01*
X27771Y20868D01*
X27694Y20969D01*
X27645Y21007D01*
X27662Y21057D01*
X28853D01*
X33092Y16818D01*
D02*
G37*
G36*
X22579Y15632D02*
X22656Y15531D01*
X22742Y15465D01*
Y13000D01*
X22751Y12933D01*
X22776Y12871D01*
X22817Y12817D01*
X23902Y11733D01*
X23881Y11683D01*
X21218D01*
X21199Y11729D01*
X22183Y12713D01*
X22224Y12766D01*
X22249Y12828D01*
X22258Y12895D01*
Y15393D01*
X22482D01*
Y15739D01*
X22530Y15749D01*
X22579Y15632D01*
D02*
G37*
G36*
X30567Y15467D02*
X30621Y15426D01*
X30683Y15401D01*
X30750Y15392D01*
X33235D01*
X33301Y15401D01*
X33364Y15426D01*
X33417Y15467D01*
X33500Y15550D01*
X33550Y15529D01*
Y15120D01*
X28967Y10537D01*
X26073D01*
X26063Y10561D01*
X26056Y10587D01*
X26111Y10683D01*
X26141Y10793D01*
Y10907D01*
X26111Y11017D01*
X26054Y11116D01*
X25974Y11197D01*
X25875Y11254D01*
X25765Y11283D01*
X25651D01*
X25541Y11254D01*
X25442Y11197D01*
X25361Y11116D01*
X25357Y11108D01*
X25257D01*
X23258Y13107D01*
Y15465D01*
X23344Y15531D01*
X23421Y15632D01*
X23470Y15749D01*
X23487Y15875D01*
Y16225D01*
X23470Y16351D01*
X23421Y16468D01*
X23346Y16567D01*
X23349Y16584D01*
X23360Y16617D01*
X29418D01*
X30567Y15467D01*
D02*
G37*
G36*
X21518Y15393D02*
X21742D01*
Y13002D01*
X19227Y10487D01*
X19123D01*
X19113Y10511D01*
X19106Y10537D01*
X19161Y10633D01*
X19191Y10743D01*
Y10857D01*
X19188Y10867D01*
X19224Y10913D01*
X19249Y10975D01*
X19258Y11042D01*
Y15465D01*
X19344Y15531D01*
X19421Y15632D01*
X19470Y15749D01*
X19487Y15875D01*
Y16225D01*
X19470Y16351D01*
X19421Y16468D01*
X19346Y16567D01*
X19349Y16584D01*
X19360Y16617D01*
X21518D01*
Y15393D01*
D02*
G37*
G36*
X18579Y15632D02*
X18656Y15531D01*
X18742Y15465D01*
Y11233D01*
X18701D01*
X18591Y11204D01*
X18492Y11147D01*
X18411Y11066D01*
X18354Y10967D01*
X18325Y10857D01*
Y10743D01*
X18354Y10633D01*
X18410Y10537D01*
X18403Y10511D01*
X18393Y10487D01*
X18133D01*
X17628Y10992D01*
Y15393D01*
X18482D01*
Y15739D01*
X18530Y15749D01*
X18579Y15632D01*
D02*
G37*
G36*
X10894Y20612D02*
X10893Y20600D01*
Y18298D01*
X1604Y9010D01*
X1558Y9029D01*
Y9093D01*
X10733Y18267D01*
X10774Y18321D01*
X10799Y18383D01*
X10808Y18450D01*
Y20593D01*
X10849Y20634D01*
X10894Y20612D01*
D02*
G37*
G36*
X21206Y4356D02*
X21179Y4310D01*
X21151Y4204D01*
Y4096D01*
X21179Y3990D01*
X21234Y3896D01*
X21311Y3819D01*
X21405Y3765D01*
X21510Y3737D01*
X21619D01*
X21724Y3765D01*
X21785Y3800D01*
X23224Y2361D01*
X23204Y2315D01*
X22905D01*
X21964Y3256D01*
X21950Y3310D01*
X21895Y3404D01*
X21818Y3481D01*
X21724Y3535D01*
X21619Y3563D01*
X21510D01*
X21405Y3535D01*
X21311Y3481D01*
X21234Y3404D01*
X21179Y3310D01*
X21165Y3256D01*
X21017Y3107D01*
X18198D01*
X18179Y3154D01*
X18912Y3887D01*
X19453D01*
Y4042D01*
X20715D01*
X20781Y4051D01*
X20844Y4076D01*
X20897Y4117D01*
X21166Y4386D01*
X21206Y4356D01*
D02*
G37*
D10*
X-3987Y39357D02*
X-3787Y38757D01*
X-4187D02*
X-3987Y39357D01*
X-4187Y587D02*
X-3987Y-13D01*
X-3787Y587D01*
X-3987Y21322D02*
Y39357D01*
Y-13D02*
Y17703D01*
X-4087Y39357D02*
X-248D01*
X-4087Y-13D02*
X-248D01*
X-50Y43294D02*
X550Y43494D01*
X-50Y43294D02*
X550Y43094D01*
X38720D02*
X39320Y43294D01*
X38720Y43494D02*
X39320Y43294D01*
X-50D02*
X17666D01*
X21285D02*
X39320D01*
X-50Y39555D02*
Y43394D01*
X39320Y39555D02*
Y43394D01*
D14*
X22537Y6524D02*
G03*
X23667Y6524I565J2D01*
G01*
X21820Y3150D02*
G03*
X21820Y3150I-256J0D01*
G01*
Y4150D02*
G03*
X21820Y4150I-256J0D01*
G01*
Y5150D02*
G03*
X21820Y5150I-256J0D01*
G01*
Y6150D02*
G03*
X21820Y6150I-256J0D01*
G01*
X24891Y3150D02*
G03*
X24891Y3150I-256J0D01*
G01*
Y4150D02*
G03*
X24891Y4150I-256J0D01*
G01*
Y5150D02*
G03*
X24891Y5150I-256J0D01*
G01*
Y6150D02*
G03*
X24891Y6150I-256J0D01*
G01*
X22537Y6524D02*
X23667Y6524D01*
X21194Y5780D02*
X21871Y5777D01*
X21194Y5780D02*
Y6522D01*
X21870D02*
X22537Y6524D01*
X23673Y6528D02*
X24334Y6534D01*
X21196Y6522D02*
X21870D01*
Y2803D02*
Y6522D01*
X24334Y2806D02*
Y6534D01*
X21870Y2803D02*
X24334Y2806D01*
X22019Y6219D02*
Y6153D01*
Y6186D01*
X22215D01*
X22183Y6219D01*
X22094Y3080D02*
X22291D01*
X22192Y3178D01*
Y3047D01*
X24218Y3042D02*
Y3173D01*
X24120D01*
X24153Y3108D01*
Y3075D01*
X24120Y3042D01*
X24054D01*
X24021Y3075D01*
Y3141D01*
X24054Y3173D01*
X24120Y6220D02*
X24153Y6188D01*
Y6122D01*
X24120Y6089D01*
X24087D01*
X24054Y6122D01*
X24021Y6089D01*
X23989D01*
X23956Y6122D01*
Y6188D01*
X23989Y6220D01*
X24021D01*
X24054Y6188D01*
X24087Y6220D01*
X24120D01*
X24054Y6188D02*
Y6122D01*
D15*
X-3527Y17863D02*
Y18063D01*
Y17963D01*
X-4127D01*
X-4027Y17863D01*
Y18362D02*
X-4127Y18462D01*
Y18662D01*
X-4027Y18762D01*
X-3627D01*
X-3527Y18662D01*
Y18462D01*
X-3627Y18362D01*
X-4027D01*
Y18962D02*
X-4127Y19062D01*
Y19262D01*
X-4027Y19362D01*
X-3627D01*
X-3527Y19262D01*
Y19062D01*
X-3627Y18962D01*
X-4027D01*
X-3427Y19662D02*
X-3527Y19762D01*
X-3627D01*
Y19662D01*
X-3527D01*
Y19762D01*
X-3427Y19662D01*
X-3327Y19562D01*
X-4027Y20162D02*
X-4127Y20262D01*
Y20462D01*
X-4027Y20562D01*
X-3627D01*
X-3527Y20462D01*
Y20262D01*
X-3627Y20162D01*
X-4027D01*
Y20762D02*
X-4127Y20862D01*
Y21062D01*
X-4027Y21162D01*
X-3627D01*
X-3527Y21062D01*
Y20862D01*
X-3627Y20762D01*
X-4027D01*
X17826Y42834D02*
X18026D01*
X17926D01*
Y43434D01*
X17826Y43334D01*
X18325D02*
X18425Y43434D01*
X18625D01*
X18725Y43334D01*
Y42934D01*
X18625Y42834D01*
X18425D01*
X18325Y42934D01*
Y43334D01*
X18925D02*
X19025Y43434D01*
X19225D01*
X19325Y43334D01*
Y42934D01*
X19225Y42834D01*
X19025D01*
X18925Y42934D01*
Y43334D01*
X19625Y42734D02*
X19725Y42834D01*
Y42934D01*
X19625D01*
Y42834D01*
X19725D01*
X19625Y42734D01*
X19525Y42634D01*
X20125Y43334D02*
X20225Y43434D01*
X20425D01*
X20525Y43334D01*
Y42934D01*
X20425Y42834D01*
X20225D01*
X20125Y42934D01*
Y43334D01*
X20725D02*
X20825Y43434D01*
X21025D01*
X21125Y43334D01*
Y42934D01*
X21025Y42834D01*
X20825D01*
X20725Y42934D01*
Y43334D01*
D29*
X19000Y5300D02*
D03*
X8100Y4500D02*
D03*
D30*
X19000Y4300D02*
D03*
X8100Y3500D02*
D03*
D31*
X22000Y29950D02*
D03*
X26350Y31300D02*
D03*
X29550Y26400D02*
D03*
X26350Y20450D02*
D03*
X22000Y16050D02*
D03*
X18000D02*
D03*
X10750Y26400D02*
D03*
X13500Y31300D02*
D03*
X18000Y29950D02*
D03*
D32*
X23000D02*
D03*
X27350Y31300D02*
D03*
X30550Y26400D02*
D03*
X27350Y20450D02*
D03*
X23000Y16050D02*
D03*
X19000D02*
D03*
X11750Y26400D02*
D03*
X14500Y31300D02*
D03*
X19000Y29950D02*
D03*
D33*
X23000Y33342D02*
D03*
Y37358D02*
D03*
X32700Y30642D02*
D03*
Y34658D02*
D03*
Y28308D02*
D03*
Y24292D02*
D03*
Y16242D02*
D03*
Y20258D02*
D03*
X25708Y10850D02*
D03*
X21692D02*
D03*
X18758Y10800D02*
D03*
X14742D02*
D03*
X8250Y13942D02*
D03*
Y17958D02*
D03*
Y22292D02*
D03*
Y26308D02*
D03*
Y30642D02*
D03*
Y34658D02*
D03*
X16750Y33292D02*
D03*
Y37308D02*
D03*
D34*
X11200Y2750D02*
D03*
Y6250D02*
D03*
X26550Y4450D02*
D03*
X30050D02*
D03*
D35*
X21700Y19900D02*
D03*
D36*
Y20900D02*
D03*
Y21900D02*
D03*
Y22900D02*
D03*
Y23900D02*
D03*
Y24900D02*
D03*
Y25900D02*
D03*
Y26900D02*
D03*
X18700Y19900D02*
D03*
Y20900D02*
D03*
Y21900D02*
D03*
Y22900D02*
D03*
Y23900D02*
D03*
Y24900D02*
D03*
Y25900D02*
D03*
Y26900D02*
D03*
D37*
X24635Y3150D02*
D03*
Y4150D02*
D03*
Y5150D02*
D03*
Y6150D02*
D03*
X21565D02*
D03*
Y5150D02*
D03*
Y4150D02*
D03*
Y3150D02*
D03*
D38*
X3600Y5312D02*
D03*
Y3312D02*
D03*
D39*
X14450Y5850D02*
D03*
X16450Y4850D02*
D03*
X14450Y3850D02*
D03*
D40*
X13840Y20950D02*
D03*
D41*
Y19950D02*
D03*
D42*
X3600Y3312D02*
X3735Y3447D01*
X4184Y3500D02*
X8100D01*
X3735Y3447D02*
X4131D01*
X4184Y3500D01*
X22485Y26900D02*
X24112Y28527D01*
Y36245D01*
X23000Y37358D02*
X24112Y36245D01*
X8100Y4500D02*
X8171D01*
X8290Y4619D01*
X15081D01*
X15750Y3950D01*
X17500D01*
X18929Y5300D02*
X19000D01*
X18578Y4950D02*
X18929Y5300D01*
X18500Y4950D02*
X18578D01*
X17500Y3950D02*
X18500Y4950D01*
X19000Y5300D02*
X19039D01*
X19889Y6150D02*
X21565D01*
X19039Y5300D02*
X19889Y6150D01*
X8100Y6150D02*
X12750Y10800D01*
X14742D01*
X8100Y4500D02*
Y6150D01*
X21565Y3150D02*
X22757Y1958D01*
X26777D02*
X27550Y2731D01*
X22757Y1958D02*
X26777D01*
X27550Y2731D02*
Y5419D01*
X24635Y6150D02*
X26819D01*
X27550Y5419D01*
X21165Y2750D02*
X21565Y3150D01*
X11200Y2750D02*
X21165D01*
X10450Y3500D02*
X11200Y2750D01*
X1800Y1831D02*
Y8700D01*
Y1831D02*
X2031Y1600D01*
X7550D01*
X8100Y2150D02*
Y3500D01*
X7550Y1600D02*
X8100Y2150D01*
X3600Y5312D02*
X4412Y4500D01*
X8100D01*
X1800Y8700D02*
X11250Y18150D01*
Y20600D02*
X12550Y21900D01*
X15950D01*
X11250Y18150D02*
Y20600D01*
X17950Y19900D02*
X18700D01*
X15950Y21900D02*
X17950Y19900D01*
X8250Y35300D02*
X11400Y38450D01*
X12504D02*
X12511Y38457D01*
X11400Y38450D02*
X12504D01*
X23581Y38365D02*
X28993D01*
X23489Y38457D02*
X23581Y38365D01*
X8250Y34658D02*
Y35300D01*
X12511Y38457D02*
X23489D01*
X7350Y25408D02*
X8250Y26308D01*
X7350Y18858D02*
Y25408D01*
Y18858D02*
X8250Y17958D01*
X7581Y30365D02*
Y30919D01*
X11965Y27950D02*
X16715Y23200D01*
X8112Y29973D02*
X10135Y27950D01*
X7973Y29973D02*
X8112D01*
X7679Y31018D02*
Y31429D01*
X7581Y30919D02*
X7679Y31018D01*
X10135Y27950D02*
X11965D01*
X7581Y30365D02*
X7973Y29973D01*
X18850Y22900D02*
X19544Y22206D01*
X18700Y22900D02*
X18850D01*
X18700Y20900D02*
X18850D01*
X19544Y21594D01*
Y22206D01*
X15607Y9343D02*
X20185D01*
X21692Y10850D01*
X14742Y10208D02*
X15607Y9343D01*
X14742Y10208D02*
Y10800D01*
X22755Y9787D02*
X30537D01*
X34650Y13900D01*
X21692Y10850D02*
X22755Y9787D01*
X34650Y13900D02*
Y18308D01*
X32700Y20258D02*
X34650Y18308D01*
X32700Y34658D02*
X35200Y32158D01*
X32700Y24292D02*
X35200Y26792D01*
Y32158D01*
X13558Y37308D02*
X16750D01*
X7679Y31429D02*
X13558Y37308D01*
X7808Y34658D02*
X8250D01*
X6400Y33250D02*
X7808Y34658D01*
X6400Y28158D02*
Y33250D01*
Y28158D02*
X8250Y26308D01*
X18114Y22913D02*
X18687D01*
X17827Y23200D02*
X18114Y22913D01*
X18687D02*
X18700Y22900D01*
X16715Y23200D02*
X17827D01*
X8250Y20675D02*
X10775Y23200D01*
X16715D01*
X16750Y37308D02*
X22950D01*
X23000Y37358D01*
X28993Y38365D02*
X32700Y34658D01*
X21700Y26900D02*
X22485D01*
X8100Y3500D02*
X10450D01*
X8250Y17958D02*
Y20675D01*
X32700Y20258D02*
Y24292D01*
D43*
X23620Y29270D02*
Y33836D01*
X22961Y34495D02*
X23620Y33836D01*
X21845Y27495D02*
X23620Y29270D01*
X20955Y27495D02*
X21845D01*
X25071Y10279D02*
X29074D01*
X21120Y11425D02*
X23925D01*
X25071Y10279D01*
X23000Y13000D02*
Y16050D01*
Y13000D02*
X25150Y10850D01*
X25708D01*
X33350Y15765D02*
Y16925D01*
X29525Y16875D02*
X30750Y15650D01*
X33235D01*
X33350Y15765D01*
X18000Y16875D02*
X29525D01*
X29074Y10279D02*
X33808Y15013D01*
X1300Y1550D02*
Y9200D01*
X1815Y1035D02*
X29685D01*
X1300Y1550D02*
X1815Y1035D01*
X23000Y5850D02*
X23700Y5150D01*
X23000Y5850D02*
Y6685D01*
X23700Y5150D02*
X24635D01*
X22885Y6800D02*
X23000Y6685D01*
X17911Y3250D02*
X18961Y4300D01*
X15050Y3250D02*
X17911D01*
X14450Y3850D02*
X15050Y3250D01*
X15450Y5850D02*
X16450Y4850D01*
X14302Y5850D02*
X15450D01*
X18400Y6800D02*
X22885D01*
X16450Y4850D02*
X18400Y6800D01*
X21565Y5150D02*
X22565Y4150D01*
X24635D01*
X19000Y4300D02*
X20715D01*
X21565Y5150D01*
X18961Y4300D02*
X19000D01*
X21565Y4150D02*
X21625Y4090D01*
X21860D02*
X23500Y2450D01*
X21625Y4090D02*
X21860D01*
X23500Y2450D02*
X24715D01*
X13902Y6250D02*
X14302Y5850D01*
X11200Y6250D02*
X13902D01*
X24715Y2450D02*
X26454Y4189D01*
Y4354D01*
X26550Y4450D01*
X30050Y1400D02*
Y4450D01*
X29685Y1035D02*
X30050Y1400D01*
X1300Y9200D02*
X10550Y18450D01*
Y20700D01*
X12400Y22550D01*
X17407Y21900D02*
X18700D01*
X16757Y22550D02*
X17407Y21900D01*
X12400Y22550D02*
X16757D01*
X27500Y25050D02*
X31100D01*
X21700Y20900D02*
X23350D01*
X27500Y25050D01*
X31100D02*
X33280Y27230D01*
Y28885D01*
X29500Y26450D02*
X29550Y26400D01*
X23745Y22900D02*
X27295Y26450D01*
X29500D01*
X24750Y27300D02*
Y36500D01*
X23290Y25840D02*
Y25840D01*
X24750Y27300D01*
X25144Y31879D02*
X25370Y32105D01*
X23285Y37965D02*
X24750Y36500D01*
X25144Y26134D02*
Y31879D01*
X22910Y23900D02*
X25144Y26134D01*
X20167Y32582D02*
X22080Y34495D01*
X20561Y25979D02*
X20887Y25652D01*
X21550Y21900D02*
X21700D01*
X20887Y22563D02*
X21550Y21900D01*
X20167Y25816D02*
Y32582D01*
X20561Y27946D02*
X22000Y29385D01*
X20100Y20285D02*
Y25095D01*
X20494Y19811D02*
Y25489D01*
X20887Y22563D02*
Y25652D01*
X17370Y17555D02*
X20100Y20285D01*
X20494Y19811D02*
X21010Y19295D01*
X20167Y25816D02*
X20494Y25489D01*
X19295Y25900D02*
X20100Y25095D01*
X20561Y25979D02*
Y27946D01*
X19334Y10229D02*
X22000Y12895D01*
X18026Y10229D02*
X19334D01*
X17370Y10885D02*
X18026Y10229D01*
X17360Y9835D02*
X19530D01*
X21120Y11425D01*
X16310Y10885D02*
X17360Y9835D01*
X34158Y26664D02*
Y31217D01*
X33270Y32105D02*
X34158Y31217D01*
X32129Y24635D02*
X34158Y26664D01*
X8493Y30495D02*
X14500D01*
X8250Y30642D02*
X8346D01*
X8493Y30495D01*
X10750Y26400D02*
Y26575D01*
X7000Y30150D02*
Y32250D01*
Y30150D02*
X10348Y26802D01*
X10523D02*
X10750Y26575D01*
X10348Y26802D02*
X10523D01*
X7000Y32250D02*
X12715Y37965D01*
X23285D01*
X21310Y25900D02*
Y26280D01*
X17750Y29945D02*
X18000D01*
X21700Y19900D02*
X23705D01*
X25120Y21315D01*
X28960D01*
X33350Y16925D01*
X18000Y16050D02*
Y16875D01*
X21700Y22900D02*
X23745D01*
X13840Y20950D02*
X15150D01*
X16310Y19790D01*
Y10885D02*
Y19790D01*
X33808Y15013D02*
Y17386D01*
X32129Y19065D02*
X33808Y17386D01*
X32129Y19065D02*
Y24635D01*
X25370Y32105D02*
X33270D01*
X21700Y23900D02*
X22910D01*
X22350Y24900D02*
X23290Y25840D01*
X21700Y24900D02*
X22350D01*
X21310Y25900D02*
X21700D01*
X20955Y26635D02*
X21310Y26280D01*
X20955Y26635D02*
Y27495D01*
X22080Y34495D02*
X22961D01*
X21010Y19295D02*
X25850D01*
X26350Y19795D01*
Y20450D01*
X18000Y29945D02*
Y29950D01*
X17750Y25250D02*
Y29945D01*
Y25250D02*
X18100Y24900D01*
X18700D01*
X28008Y30642D02*
X32700D01*
X27350Y31300D02*
X28008Y30642D01*
X27350Y19815D02*
Y20450D01*
Y19815D02*
X30923Y16242D01*
X32700D01*
X19000Y11042D02*
Y16050D01*
X18758Y10800D02*
X19000Y11042D01*
X8250Y13942D02*
X8627D01*
X13840Y19155D01*
Y19950D01*
X18700Y25900D02*
X19295D01*
X17370Y10885D02*
Y17555D01*
X22000Y12895D02*
Y16050D01*
Y29385D02*
Y29950D01*
X26350Y30395D02*
Y31300D01*
Y30395D02*
X26850Y29895D01*
X32270D01*
X33280Y28885D01*
X31850Y28308D02*
X32700D01*
X30550Y27008D02*
X31850Y28308D01*
X30550Y26400D02*
Y27008D01*
X23000Y29950D02*
Y33342D01*
X18700Y26900D02*
Y27355D01*
X19630Y28285D01*
Y31553D01*
X17320Y33863D02*
X19630Y31553D01*
X15318Y33863D02*
X17320D01*
X13500Y32045D02*
X15318Y33863D01*
X13500Y31300D02*
Y32045D01*
X19000Y29950D02*
Y31042D01*
X16750Y33292D02*
X19000Y31042D01*
X8250Y22292D02*
X11750Y25792D01*
Y26400D01*
X14500Y30495D02*
Y31300D01*
M02*
