M48
;Layer_Color=9474304
;FILE_FORMAT=4:3
METRIC,LZ
;TYPE=PLATED
T1F00S00C0.600
T2F00S00C0.787
T3F00S00C0.800
T4F00S00C0.813
T5F00S00C0.889
T6F00S00C1.270
%
T01
X0129179Y0043091
X0146939Y0056787
Y0066987
Y0077234
X0118979Y0043091
X0111526Y0042964
X0101326
X0084836Y0050945
Y0061145
Y0072154
Y0082354
Y0093363
Y0103563
X0106426Y0100094
Y0110294
X0122301Y0110421
Y0100221
X0146939Y0103563
Y0093363
Y0087434
T02
X0092329Y0022517
Y0031407
X0131318Y0026835
X0140208
X0118999Y0066078
Y0068618
Y0071158
Y0073698
Y0076238
Y0078778
X0111379
Y0076238
Y0073698
Y0071158
Y0068618
Y0066078
Y0081318
Y0083858
X0118999
Y0081318
T03
X0084455Y0024422
Y0026962
X0112141Y0026454
Y0028994
X0118655Y0028613
Y0031153
Y0026073
Y0023533
X0126455
Y0026073
Y0028613
Y0031153
T04
X0119761Y0056299
X0122301
X013081Y0067475
X013335
X0112141Y0056299
X0109601
X0099035Y0066205
Y0068745
X0093726Y0082588
X0091186
X0098171Y0095034
X0100711
X0109601Y0091605
X0112141
X0119761
X0122301
X013081Y0095034
X013335
X0138938Y0082588
X0141478
T05
X0100584Y0025311
Y0030391
X0105664Y0027851
T06
X0073025Y0023944
Y0029024
M30
