M48
;Layer_Color=9474304
;FILE_FORMAT=4:4
METRIC,LZ
;TYPE=PLATED
T1F00S00C0.6096
T2F00S00C0.7620
T4F00S00C1.0000
T5F00S00C1.1000
T6F00S00C2.3000
T7F00S00C3.2000
%
T01
X004826Y000254
X00214884Y00028194
X00166624Y00068834
X0016891Y0011684
X0021971Y0011557
X0022352Y0018415
X0023114Y0021717
X0018923Y0021082
Y0026162
X00187452Y00336042
X0012065Y0031369
Y0024765
X00118745Y00216535
X000889Y002159
X000762Y0019685
X000508Y002032
X000254Y002159
Y0017399
Y0013335
X000508Y0014605
X000762Y001524
X000889Y0013335
X001143Y00127
X0014097Y0017145
X0006985Y002413
Y0028829
X0009017Y0042799
X00224536Y00410972
X0025019Y004064
X0025146Y0037592
X0030353Y00376174
X00306324Y003429
X0029972Y0031496
X0030226Y0029337
X0031877Y0030099
X0032893Y0031242
X0033528Y0026035
X0032385Y0024892
X00258318Y00245364
X0024892Y0027686
X0025908Y0029845
X0026924Y0021463
X0025527Y0019304
X0027178Y0014224
X0027813Y0008001
X002921Y0006223
X0031115Y0010541
X0037719Y0016383
X00411734Y00179324
X00470535Y00255905
X00488315Y00257175
X00471424Y00292354
X00433324Y00315214
X0036322Y0028321
X0030861Y0041148
X0056642Y00309626
X00606298Y00326136
X0059436Y00248158
X0059309Y0018288
X0061849Y0017272
X0051435Y002159
X004826Y0008255
X00672084Y00106934
X00672338Y00177038
X00646684Y00405384
Y00473964
X005461Y0049149
X0043688Y00508
X00254512Y00474523
X0022606Y0046609
X000889Y00476611
X0010414Y0049911
T02
X0016483Y0026162
X0021363
T04
X0006515Y003685
X0008515
Y003935
X0006515
T05
X00635Y000254
X006096
X005842
X005588
X005334
X00508
X004572
X004318
X004064
X00381
X003556
X003302
X003048
X002794
X0020828Y0039878
Y0042418
X0018288
Y0039878
X0029845Y0020193
X0032385
X0034925
X0037465
X0040005
X0042545
X0045085
X0047625
X0050165
X0052705
X0055245
X0057785
X0060325
X0062865
Y0012573
X0060325
X0057785
X0055245
X0052705
X0050165
X0047625
X0045085
X0042545
X0040005
X0037465
X0034925
X0032385
X0029845
X0063627Y00254
Y002794
Y003048
X0066167
Y002794
Y00254
X00635Y00508
X006096
X005842
X005588
X005334
X00508
X004826
X004572
X0041656
X0039116
X0036576
X0034036
X0031496
X0028956
X0026416
X0023876
X0021336
X0018796
X0018288Y0047498
Y0044958
X0015748
Y0047498
X0020828
Y0044958
T06
X0003805Y003208
Y004412
T07
X001397Y000254
X006604Y000762
Y003556
X001524Y00508
M30
